<?xml version="1.0" standalone="no"?>
<!DOCTYPE svg PUBLIC "-//W3C//DTD SVG 1.1//EN" "http://www.w3.org/Graphics/SVG/1.1/DTD/svg11.dtd" >
<svg xmlns="http://www.w3.org/2000/svg" xmlns:xlink="http://www.w3.org/1999/xlink" version="1.1">
<metadata>
Created by FontForge 20150824 at Tue Apr 12 07:00:26 2016
 By Everything Fonts
Copyright (c) 2013, Natanael Gama (www.ndiscovered.com . info(at)ndiscovered.com), with Reserved Font Name Exo. This Font Software is licensed under the SIL Open Font License, Version 1.1.
</metadata>
<defs>
<font id="Exo2Bold" horiz-adv-x="590" >
  <font-face 
    font-family="Exo2Bold"
    font-weight="700"
    font-stretch="normal"
    units-per-em="1000"
    panose-1="0 0 8 0 0 0 0 0 0 0"
    ascent="800"
    descent="-200"
    x-height="493"
    cap-height="690"
    bbox="-175 -292 1259 949"
    underline-thickness="50"
    underline-position="-150"
    unicode-range="U+0020-FB02"
  />
<missing-glyph horiz-adv-x="600" 
 />
    <glyph glyph-name=".notdef" horiz-adv-x="600" 
 />
    <glyph glyph-name=".null" horiz-adv-x="0" 
 />
    <glyph glyph-name="nonmarkingreturn" horiz-adv-x="333" 
 />
    <glyph glyph-name="space" unicode=" " horiz-adv-x="217" 
 />
    <glyph glyph-name="exclam" unicode="!" horiz-adv-x="300" 
d="M223 425l-15 -206h-116l-16 206v270h147v-270zM133 151h34q29 0 40.5 -11t11.5 -40v-48q0 -29 -11.5 -40.5t-40.5 -11.5h-34q-29 0 -40.5 11.5t-11.5 40.5v48q0 29 11.5 40t40.5 11z" />
    <glyph glyph-name="quotedbl" unicode="&#x22;" horiz-adv-x="375" 
d="M152 469h-91l-8 221h108zM314 469h-91l-9 221h109z" />
    <glyph glyph-name="numbersign" unicode="#" horiz-adv-x="710" 
d="M551 426l-24 -140h109l-17 -89h-108l-34 -197h-112l34 197h-139l-34 -197h-112l34 197h-116l17 89h115l24 140h-114l17 88h113l30 176h112l-31 -176h140l30 176h112l-31 -176h112l-17 -88h-110zM439 426h-139l-24 -140h139z" />
    <glyph glyph-name="dollar" unicode="$" horiz-adv-x="577" 
d="M268 434l128 -45q79 -28 111.5 -76.5t32.5 -126.5q0 -110 -50.5 -153t-176.5 -45l-10 -108h-111l10 111q-69 5 -150 22l10 112q167 -4 225 -4q60 0 80.5 12.5t20.5 51.5q0 35 -14 49.5t-52 26.5l-136 49q-76 28 -108.5 76t-32.5 126q0 76 24.5 117.5t73 57t135.5 16.5
l9 90h111l-10 -94q72 -7 129 -23l-9 -104q-87 3 -214 3q-59 0 -79 -10.5t-20 -52.5q0 -34 15.5 -49t57.5 -29z" />
    <glyph glyph-name="percent" unicode="%" horiz-adv-x="907" 
d="M205 703q96 0 134 -45t38 -160q0 -114 -38 -159.5t-134 -45.5q-95 0 -133 45.5t-38 159.5q0 115 38 160t133 45zM293 0h-95l414 690h94zM204 621q-36 0 -48.5 -24.5t-12.5 -98.5q0 -75 12.5 -99t48.5 -24q38 0 50.5 24t12.5 99t-12.5 99t-50.5 24zM701 399
q96 0 134 -45.5t38 -159.5q0 -115 -38 -160.5t-134 -45.5q-95 0 -132.5 45.5t-37.5 160.5q0 114 37.5 159.5t132.5 45.5zM701 316q-37 0 -49.5 -23.5t-11.5 -98.5q-1 -75 11.5 -99t49.5 -24t49.5 24t12.5 99q0 74 -12.5 98t-49.5 24z" />
    <glyph glyph-name="ampersand" unicode="&#x26;" horiz-adv-x="765" 
d="M715 108l16 -100q-52 -20 -127 -20q-99 0 -128 73q-41 -39 -90.5 -56t-125.5 -17q-113 0 -161 42t-48 145q0 83 31.5 129t104.5 52v4q-61 6 -88 45t-27 116q0 60 14 96t49.5 54.5t80.5 24.5t124 6q98 0 163 -12l-18 -105q-102 3 -149 3q-66 0 -88 -17t-22 -73
q0 -53 19.5 -72t73.5 -19h152l10 106h124v-106h107v-103h-107v-145q0 -29 10.5 -40t37.5 -11h62zM466 304h-155q-58 0 -78.5 -20.5t-20.5 -78.5q0 -57 18 -76t73 -19q99 2 163 45v149z" />
    <glyph glyph-name="quotesingle" unicode="'" horiz-adv-x="213" 
d="M152 469h-91l-8 221h108z" />
    <glyph glyph-name="parenleft" unicode="(" horiz-adv-x="365" 
d="M329 790l17 -64q-164 -75 -164 -413q0 -333 164 -414l-17 -64q-150 48 -220 163.5t-70 313.5q0 199 70 315t220 163z" />
    <glyph glyph-name="parenright" unicode=")" horiz-adv-x="365" 
d="M19 726l17 64q150 -47 220 -163t70 -315q0 -198 -70 -313.5t-220 -163.5l-17 64q164 81 164 414q0 338 -164 413z" />
    <glyph glyph-name="asterisk" unicode="*" horiz-adv-x="452" 
d="M255 524l106 -129l-65 -49l-70 122l-70 -121l-66 48l107 128l-12 168h82zM414 534l-122 -29l-19 22v36l116 49zM179 563v-36l-18 -22l-123 29l25 78z" />
    <glyph glyph-name="plus" unicode="+" horiz-adv-x="539" 
d="M497 247h-173v-167h-109v167h-173v108h172v168h110v-168h173v-108z" />
    <glyph glyph-name="comma" unicode="," horiz-adv-x="243" 
d="M104 151h35q29 0 40 -11t11 -40v-64q0 -100 -51 -183l-61 19q14 59 14 128q-40 0 -42 46l1 54q1 29 12.5 40t40.5 11z" />
    <glyph glyph-name="hyphen" unicode="-" horiz-adv-x="414" 
d="M356 206h-298v97h298v-97z" />
    <glyph glyph-name="period" unicode="." horiz-adv-x="246" 
d="M103 151h40q29 0 40.5 -11t11.5 -40v-48q0 -29 -11.5 -40.5t-40.5 -11.5h-40q-29 0 -40.5 11.5t-11.5 40.5v48q0 29 11.5 40t40.5 11z" />
    <glyph glyph-name="slash" unicode="/" horiz-adv-x="550" 
d="M137 -72h-117l393 762h117z" />
    <glyph glyph-name="zero" unicode="0" horiz-adv-x="629" 
d="M314 703q148 0 207 -80t59 -278t-59 -278t-207 -80q-147 0 -206 80t-59 278t59 278t206 80zM313 582q-67 0 -90.5 -48.5t-23.5 -188.5t23.5 -188.5t90.5 -48.5q69 0 93 48.5t24 188.5t-24 188.5t-93 48.5z" />
    <glyph glyph-name="one" unicode="1" horiz-adv-x="429" 
d="M336 0h-152v486q0 44 6 75l-161 -42l-18 102l173 69h152v-690z" />
    <glyph glyph-name="two" unicode="2" horiz-adv-x="578" 
d="M57 563l-6 115q116 24 232 24t173.5 -34t57.5 -126q0 -62 -22.5 -109.5t-89.5 -118.5l-177 -184q38 7 102 7h207v-137h-489v85q0 39 22 62l169 182q124 129 123 197q-1 29 -22 37.5t-72 8.5q-106 0 -208 -9z" />
    <glyph glyph-name="three" unicode="3" horiz-adv-x="566" 
d="M61 575l-7 110q111 18 217 18q123 0 174 -35t51 -125q0 -78 -23 -121t-82 -53v-4q67 -11 94.5 -52.5t28.5 -120.5q2 -109 -52 -157t-184 -48q-102 0 -237 18l6 114q112 -7 190 -7q73 0 100 20.5t27 79.5q0 51 -22 73.5t-84 21.5h-129v104h129q60 0 77.5 22.5t16.5 69.5
q0 49 -21 62.5t-86 13.5q-86 0 -184 -4z" />
    <glyph glyph-name="four" unicode="4" horiz-adv-x="636" 
d="M605 260v-94l-84 -14h-2v-152h-141v152h-273q-45 0 -67.5 35t-5.5 77l179 426h144l-164 -397q-7 -17 -1 -25t21 -8h167v186l25 110h116v-296h86z" />
    <glyph glyph-name="five" unicode="5" horiz-adv-x="551" 
d="M483 572h-283l-8 -125l99 -12q119 -13 168.5 -69t49.5 -155q0 -223 -241 -223q-100 0 -230 22l14 118q111 -12 178 -12q75 0 100.5 22t27.5 76q3 62 -29 80t-132 27l-84 10q-22 2 -35.5 18t-12.5 38l17 303h406z" />
    <glyph glyph-name="six" unicode="6" horiz-adv-x="588" 
d="M502 684l-8 -100q-52 2 -155 2q-78 0 -106.5 -34t-33.5 -147q55 50 152 50q112 0 154.5 -49.5t42.5 -169.5q0 -64 -10 -107t-35.5 -76.5t-74 -49t-122.5 -15.5q-104 0 -157.5 30.5t-75.5 104t-22 215.5q0 94 12 159t33.5 105t59 62.5t79.5 30t104 7.5q98 0 163 -18z
M307 105q63 0 80 27.5t17 100.5q0 65 -19.5 88t-77.5 23q-54 0 -109 -36q1 -130 19 -166.5t90 -36.5z" />
    <glyph glyph-name="seven" unicode="7" horiz-adv-x="526" 
d="M27 690h414q38 0 55.5 -23.5t5.5 -57.5l-209 -609h-150l175 500q12 37 29 65h-314z" />
    <glyph glyph-name="eight" unicode="8" horiz-adv-x="619" 
d="M172 356v4q-52 6 -77 49.5t-25 108.5q0 101 49.5 142.5t190.5 41.5t190.5 -41.5t49.5 -142.5q0 -65 -25.5 -108.5t-76.5 -49.5v-4q66 -6 92 -54t26 -130q0 -101 -53 -142.5t-203 -42.5q-149 -1 -203 41.5t-54 143.5q0 173 119 184zM311 593q-63 0 -83.5 -18.5
t-20.5 -74.5q0 -53 21 -71t84 -18q62 0 81 17.5t19 71.5q0 56 -19.5 74.5t-81.5 18.5zM312 305q-70 0 -93 -20.5t-23 -81.5q0 -58 23 -78t92 -20q67 0 89 20t22 78q0 62 -21.5 82t-88.5 20z" />
    <glyph glyph-name="nine" unicode="9" horiz-adv-x="588" 
d="M71 6l9 101q56 -2 167 -2q78 0 107.5 37.5t33.5 144.5q-56 -52 -153 -52q-193 0 -193 219q-1 132 53 190t190 58q65 0 107.5 -10.5t71.5 -33t44 -65.5t21 -98.5t6 -142.5q0 -116 -14.5 -187t-51.5 -110.5t-87.5 -53t-133.5 -13.5q-104 0 -177 18zM185 457
q-1 -61 19.5 -86.5t75.5 -25.5q52 0 109 38q0 129 -17.5 166t-87.5 37q-62 0 -81 -29t-18 -100z" />
    <glyph glyph-name="colon" unicode=":" horiz-adv-x="259" 
d="M104 451h40q29 0 40.5 -11.5t11.5 -40.5v-48q0 -29 -11.5 -40t-40.5 -11h-40q-29 0 -40.5 11t-11.5 40v48q0 29 11.5 40.5t40.5 11.5zM104 152h40q29 0 40.5 -11.5t11.5 -40.5v-48q0 -29 -11.5 -40.5t-40.5 -11.5h-40q-29 0 -40.5 11.5t-11.5 40.5v48q0 29 11.5 40.5
t40.5 11.5z" />
    <glyph glyph-name="semicolon" unicode=";" horiz-adv-x="259" 
d="M111 451h40q29 0 40.5 -11.5t11.5 -40.5v-48q0 -29 -11.5 -40t-40.5 -11h-40q-29 0 -40.5 11t-11.5 40v48q0 29 11.5 40.5t40.5 11.5zM112 151h35q29 0 40 -11t12 -40v-64q-1 -101 -52 -183l-61 19q13 51 15 128q-41 0 -43 46l2 54q1 29 12.5 40t39.5 11z" />
    <glyph glyph-name="less" unicode="&#x3c;" horiz-adv-x="518" 
d="M460 408l-295 -107l295 -107v-115l-420 165v114l420 165v-115z" />
    <glyph glyph-name="equal" unicode="=" horiz-adv-x="579" 
d="M519 351h-459v105h459v-105zM519 138h-459v105h459v-105z" />
    <glyph glyph-name="greater" unicode="&#x3e;" horiz-adv-x="517" 
d="M477 358v-114l-420 -165v115l295 107l-295 107v115z" />
    <glyph glyph-name="question" unicode="?" horiz-adv-x="516" 
d="M36 587l-5 101q11 2 40.5 7.5t41.5 7t38 4.5t54.5 4t66.5 1q108 0 161 -38t53 -117q0 -40 -17.5 -74.5t-42.5 -60.5t-51 -53t-46 -65.5t-23 -84.5h-120q-2 60 19 111t47.5 80t50.5 61t26 57q3 33 -19 48.5t-73 15.5q-88 0 -201 -5zM228 151h35q29 0 40.5 -11t11.5 -40
v-48q0 -29 -11.5 -40.5t-40.5 -11.5h-35q-29 0 -40.5 11.5t-11.5 40.5v48q0 29 11.5 40t40.5 11z" />
    <glyph glyph-name="at" unicode="@" horiz-adv-x="756" 
d="M373 601h152q87 0 130.5 -38.5t43.5 -127.5v-300h-109l-13 69q-28 -32 -74.5 -56t-100.5 -24q-62 0 -101.5 33t-39.5 93v48q0 52 33 81t94 29h174v25q0 34 -14.5 46t-52.5 12h-122q-47 0 -69.5 -1t-47 -9t-33.5 -20t-18 -39t-10.5 -61.5t-1.5 -92.5q0 -60 1.5 -95t13 -63
t20.5 -39.5t41 -19t57 -8t85 -0.5h5h282v-99q-173 -13 -281 -13q-86 0 -139.5 3.5t-97 18t-65.5 35t-36.5 62t-18 90t-3.5 128.5q0 79 3 126.5t16 88.5t32 61t57 34.5t85 18.5t123 4zM562 334l-121 -4q-26 -1 -36.5 -10.5t-10.5 -30.5v-16q0 -46 48 -46q70 0 120 44v63z" />
    <glyph glyph-name="A" unicode="A" horiz-adv-x="650" 
d="M444 181h-237l-50 -181h-156l199 650q4 18 19 29t34 11h144q43 0 53 -40l199 -650h-155zM411 299l-58 211q-12 50 -14 65h-27q-2 -10 -7 -32t-8 -33l-58 -211h172z" />
    <glyph glyph-name="B" unicode="B" horiz-adv-x="637" 
d="M452 360v-4q77 -7 110 -52.5t33 -131.5q0 -104 -53 -142t-181 -38q-192 0 -291 8v690q89 8 259 8q138 0 191 -37.5t53 -142.5q0 -75 -28.5 -113.5t-92.5 -44.5zM219 408h111q56 0 76.5 18t20.5 71q0 52 -22 69t-83 17l-103 1v-176zM219 107h116q63 0 85 18.5t22 75.5
q0 62 -23 83.5t-88 22.5h-112v-200z" />
    <glyph glyph-name="C" unicode="C" horiz-adv-x="586" 
d="M545 129l13 -113q-90 -28 -221 -28q-160 0 -225 80t-65 277t65 277t225 80q116 0 207 -23l-13 -114q-81 5 -194 5q-75 0 -102.5 -47.5t-27.5 -177.5t27.5 -177.5t102.5 -47.5q139 0 208 9z" />
    <glyph glyph-name="D" unicode="D" horiz-adv-x="680" 
d="M70 0v690q142 9 268 9q165 0 229.5 -76t64.5 -278t-64.5 -278t-229.5 -76q-126 0 -268 9zM222 579v-467q17 0 55.5 -0.5t60.5 -0.5q77 0 105.5 49t28.5 185t-28.5 185.5t-105.5 49.5z" />
    <glyph glyph-name="E" unicode="E" horiz-adv-x="576" 
d="M529 119l7 -112q-94 -10 -320 -10q-69 0 -110 37.5t-42 101.5v418q1 64 42 101.5t110 37.5q226 0 320 -10l-7 -113h-265q-25 0 -36 -12t-11 -39v-105h275v-110h-275v-133q0 -28 11 -40t36 -12h265z" />
    <glyph glyph-name="F" unicode="F" horiz-adv-x="554" 
d="M522 570h-247q-29 0 -41.5 -12t-12.5 -39v-118h264v-111h-264v-290h-153v550q0 66 41.5 104.5t110.5 38.5q220 0 310 -11z" />
    <glyph glyph-name="G" unicode="G" horiz-adv-x="645" 
d="M592 398v-398h-112l-14 69q-80 -82 -199 -82q-116 0 -168 85t-52 275q0 202 68.5 279t240.5 77q125 0 212 -24l-12 -112q-113 5 -195 5q-46 0 -72.5 -7.5t-46.5 -32.5t-27 -69.5t-7 -120.5q0 -129 24 -177t89 -48q60 0 124 35v246h147z" />
    <glyph glyph-name="H" unicode="H" horiz-adv-x="688" 
d="M618 690v-690h-152v308h-244v-308h-152v690h152v-264h244v264h152z" />
    <glyph glyph-name="I" unicode="I" horiz-adv-x="292" 
d="M222 0h-152v690h152v-690z" />
    <glyph glyph-name="J" unicode="J" horiz-adv-x="369" 
d="M302 690v-545q0 -75 -41 -116t-115 -41q-83 0 -126 20l17 102h47q66 0 66 53v527h152z" />
    <glyph glyph-name="K" unicode="K" horiz-adv-x="631" 
d="M274 304h-59q7 -40 7 -66v-238h-152v690h152v-195q0 -44 -7 -82h59l175 277h165l-178 -275q-17 -30 -50 -55v-4q36 -25 58 -61l182 -295h-170z" />
    <glyph glyph-name="L" unicode="L" horiz-adv-x="532" 
d="M220 690v-515q0 -27 12.5 -39t41.5 -12h237l7 -116q-101 -11 -292 -11q-80 0 -119 40t-39 107v546h152z" />
    <glyph glyph-name="M" unicode="M" horiz-adv-x="911" 
d="M624 690h147q55 0 57 -57l27 -633h-144l-23 571h-17l-104 -427q-10 -49 -62 -49h-100q-52 0 -62 49l-105 427h-17l-20 -571h-144l25 633q3 57 57 57h147q49 0 60 -49l84 -344q8 -33 18 -97h13q1 5 7.5 41t10.5 56l83 344q12 49 62 49z" />
    <glyph glyph-name="N" unicode="N" horiz-adv-x="722" 
d="M652 690v-635q0 -55 -54 -55h-95q-23 0 -36 10.5t-25 34.5l-181 368q-34 73 -42 107h-11q7 -50 7 -110v-410h-145v635q0 55 55 55h93q23 0 36 -10.5t25 -34.5l175 -357q25 -50 50 -111h10q-6 78 -6 116v397h144z" />
    <glyph glyph-name="O" unicode="O" horiz-adv-x="684" 
d="M342 703q166 0 231 -76.5t65 -281.5t-65 -281.5t-231 -76.5t-230.5 76.5t-64.5 281.5t64.5 281.5t230.5 76.5zM342 580q-78 0 -106.5 -49t-28.5 -186t28.5 -186t106.5 -49t106.5 49t28.5 186t-28.5 186t-106.5 49z" />
    <glyph glyph-name="P" unicode="P" horiz-adv-x="614" 
d="M70 0v690q93 9 262 9q145 0 198.5 -47t53.5 -178t-50.5 -178.5t-181.5 -47.5q-66 0 -130 8v-256h-152zM222 365h107q59 1 80.5 23t21.5 86t-21.5 86t-80.5 22l-107 -1v-216z" />
    <glyph glyph-name="Q" unicode="Q" horiz-adv-x="686" 
d="M343 703q166 0 230.5 -76.5t64.5 -281.5t-64.5 -281.5t-230.5 -76.5t-231 76.5t-65 281.5t65 281.5t231 76.5zM343 580q-78 0 -106.5 -49t-28.5 -186t28.5 -186t106.5 -49t106.5 49t28.5 186t-28.5 186t-106.5 49zM257 -116l36 81q120 -42 300 -68l-43 -136
q-150 37 -293 123z" />
    <glyph glyph-name="R" unicode="R" horiz-adv-x="643" 
d="M614 0h-161l-52 211q-10 33 -26.5 45.5t-47.5 12.5l-107 1v-270h-150v690q93 9 263 9q139 0 197 -44t58 -160q0 -76 -30.5 -119t-101.5 -52v-5q79 -18 98 -104zM220 387h110q60 0 82 20.5t22 77.5t-21.5 77t-82.5 20l-110 -1v-194z" />
    <glyph glyph-name="S" unicode="S" horiz-adv-x="582" 
d="M325 261l-139 49q-77 28 -110 76t-33 126q0 114 55.5 152.5t195.5 38.5q132 0 227 -27l-10 -104q-87 3 -216 3q-60 0 -80 -10.5t-20 -52.5q0 -34 15 -49t57 -29l131 -45q80 -28 113 -76.5t33 -126.5q0 -116 -56 -157.5t-200 -41.5q-117 0 -237 26l9 110q213 -5 228 -5
q61 0 81.5 13t20.5 54q0 35 -14 49.5t-51 26.5z" />
    <glyph glyph-name="T" unicode="T" horiz-adv-x="601" 
d="M583 566h-206v-566h-153v566h-206v124h565v-124z" />
    <glyph glyph-name="U" unicode="U" horiz-adv-x="681" 
d="M617 690v-415q0 -158 -60.5 -223t-208.5 -65q-156 0 -219.5 65t-63.5 223v415h152v-415q0 -95 26.5 -130t97.5 -35q70 0 96.5 35t26.5 130v415h153z" />
    <glyph glyph-name="V" unicode="V" horiz-adv-x="636" 
d="M629 690l-187 -648q-5 -19 -19.5 -30.5t-34.5 -11.5h-139q-20 0 -34.5 11.5t-19.5 30.5l-188 648h157l125 -498q10 -40 17 -77h25q3 19 17 77l124 498h157z" />
    <glyph glyph-name="W" unicode="W" horiz-adv-x="973" 
d="M947 690l-109 -648q-4 -19 -19 -30.5t-36 -11.5h-146q-21 0 -36 12t-18 31l-75 451q-8 44 -12 87h-19q0 -3 -4.5 -37t-7.5 -51l-74 -450q-3 -19 -18.5 -31t-36.5 -12h-146q-20 0 -35.5 11.5t-19.5 30.5l-109 648h156l67 -479q6 -45 9 -100h20q3 28 15 100l74 432
q3 21 17.5 34t36.5 13h132q21 0 35.5 -13t17.5 -34l74 -433q12 -74 14 -99h21q4 57 9 98l68 481h155z" />
    <glyph glyph-name="X" unicode="X" horiz-adv-x="641" 
d="M326 307h-12l-147 -307h-157l180 354l-166 336h156l133 -285h15l133 285h156l-166 -336l180 -354h-158z" />
    <glyph glyph-name="Y" unicode="Y" horiz-adv-x="608" 
d="M381 228v-228h-153v228l-228 462h159l115 -253q10 -22 26 -87h10q12 54 25 87l115 253h157z" />
    <glyph glyph-name="Z" unicode="Z" horiz-adv-x="583" 
d="M544 117v-117h-504v117l328 456h-320v117h488v-117l-328 -456h336z" />
    <glyph glyph-name="bracketleft" unicode="[" horiz-adv-x="346" 
d="M313 676h-80q-19 0 -19 -19v-711q0 -19 19 -19h80v-92h-160q-77 0 -77 77v779q0 34 21.5 55.5t55.5 21.5h160v-92z" />
    <glyph glyph-name="backslash" unicode="\" horiz-adv-x="551" 
d="M531 -72h-118l-393 762h118z" />
    <glyph glyph-name="bracketright" unicode="]" horiz-adv-x="346" 
d="M33 768h159q34 0 56 -21.5t22 -55.5v-779q0 -34 -22 -55.5t-56 -21.5h-159v92h80q19 0 19 19v711q0 19 -19 19h-80v92z" />
    <glyph glyph-name="asciicircum" unicode="^" horiz-adv-x="462" 
d="M432 402l-58 -32l-138 165h-8l-141 -165l-57 32l148 225h107z" />
    <glyph glyph-name="underscore" unicode="_" horiz-adv-x="557" 
d="M501 -97h-445v97h445v-97z" />
    <glyph glyph-name="grave" unicode="`" horiz-adv-x="353" 
d="M297 588l-43 -64l-226 110l68 102z" />
    <glyph glyph-name="a" unicode="a" horiz-adv-x="567" 
d="M74 383l-14 100q133 24 257 24q100 0 147 -40.5t47 -140.5v-326h-117l-15 75q-74 -87 -182 -87q-71 0 -116 37.5t-45 104.5v50q0 59 40 92t111 33h176v22q-1 38 -17.5 51t-63.5 13q-82 0 -208 -8zM182 169v-19q0 -51 58 -51q60 0 123 48v69h-133q-48 -1 -48 -47z" />
    <glyph glyph-name="b" unicode="b" horiz-adv-x="592" 
d="M208 700v-157q0 -69 -13 -116q78 80 175 80q96 0 138.5 -59.5t42.5 -196.5q0 -127 -52 -195t-189 -68q-60 0 -134.5 10t-116.5 28v674h149zM207 347v-240q51 -11 100 -9q51 2 71.5 34t20.5 118q0 82 -17 110.5t-71 28.5q-41 0 -104 -42z" />
    <glyph glyph-name="c" unicode="c" horiz-adv-x="507" 
d="M465 117l13 -96q-76 -33 -191 -33q-136 0 -191.5 58.5t-55.5 200.5q0 143 56 201.5t193 58.5q112 0 182 -31l-16 -92q-108 2 -141 2q-68 0 -93.5 -29t-25.5 -110t25.5 -110t93.5 -29q87 0 151 9z" />
    <glyph glyph-name="d" unicode="d" horiz-adv-x="594" 
d="M533 700v-700h-117l-12 72q-71 -84 -188 -84q-92 0 -133.5 66.5t-41.5 196.5q0 142 46 199t143 57q95 0 160 -44q-5 55 -5 103v134h148zM385 150v228q-67 19 -105 19q-50 0 -68.5 -28t-18.5 -117q0 -85 18 -113.5t64 -28.5q31 0 53 8.5t57 31.5z" />
    <glyph glyph-name="e" unicode="e" horiz-adv-x="560" 
d="M375 197h-178q7 -54 32.5 -72.5t84.5 -18.5q79 0 184 11l14 -92q-77 -37 -215 -37q-139 0 -198 60t-59 198q0 145 57.5 203t193.5 58q123 0 178 -42.5t56 -129.5q0 -69 -35.5 -103.5t-114.5 -34.5zM194 286h140q27 0 36.5 13t9.5 38q0 35 -18 48.5t-66 13.5
q-57 0 -78 -22.5t-24 -90.5z" />
    <glyph glyph-name="f" unicode="f" horiz-adv-x="404" 
d="M413 612h-93q-37 0 -51.5 -14t-14.5 -50v-55h136v-99h-136v-394h-149v394h-86v94l86 5v75q0 152 162 152q105 0 160 -10z" />
    <glyph glyph-name="g" unicode="g" horiz-adv-x="579" 
d="M559 428l-62 -8q12 -28 12 -71q0 -86 -51.5 -122t-180.5 -36q-43 0 -85 5q-12 -16 -4.5 -36t33.5 -23l179 -21q76 -9 109.5 -44t33.5 -103q0 -94 -56.5 -127t-202.5 -33q-152 0 -206 31.5t-54 115.5q0 38 17.5 62.5t60.5 44.5q-34 33 -27.5 81.5t43.5 70.5
q-73 34 -73 133q0 87 52 123t181 36q78 0 129 -14h159zM277 285q54 0 74.5 14t20.5 50q0 37 -20 50t-75 13t-75.5 -13t-20.5 -50q0 -36 20.5 -50t75.5 -14zM321 19l-124 13q-32 -26 -32 -57q0 -36 22 -46t95 -10t96.5 10.5t23.5 43.5q0 26 -15 33t-66 13z" />
    <glyph glyph-name="h" unicode="h" horiz-adv-x="599" 
d="M210 700v-171q0 -51 -9 -103q103 81 202 81q67 0 102.5 -35t35.5 -102v-370h-147v324q0 33 -10.5 45.5t-37.5 12.5q-53 0 -137 -45v-337h-148v700h149z" />
    <glyph glyph-name="i" unicode="i" horiz-adv-x="276" 
d="M105 711h66q43 0 43 -43v-54q0 -43 -43 -43h-66q-43 0 -43 43v54q0 43 43 43zM212 0h-147v493h147v-493z" />
    <glyph glyph-name="j" unicode="j" horiz-adv-x="278" 
d="M106 715h65q43 0 43 -43v-54q0 -43 -43 -43h-65q-43 0 -43 43v54q0 43 43 43zM213 493v-470q0 -69 -34 -128.5t-93 -91.5l-81 65q61 69 61 155v470h147z" />
    <glyph glyph-name="k" unicode="k" horiz-adv-x="557" 
d="M249 229h-47q7 -45 7 -74v-155h-148v700h148v-289q0 -49 -7 -90h46l122 172h166l-128 -171q-16 -27 -46 -47v-2q25 -17 46 -53l145 -220h-166z" />
    <glyph glyph-name="l" unicode="l" horiz-adv-x="327" 
d="M209 700v-539q0 -50 56 -50h40l17 -103q-38 -20 -118 -20q-66 0 -104 35.5t-38 100.5v576h147z" />
    <glyph glyph-name="m" unicode="m" horiz-adv-x="878" 
d="M179 493l10 -72q94 86 188 86q100 0 127 -80q87 80 180 80q67 0 102 -35t35 -102v-370h-147v324q0 32 -11 45t-41 13q-24 0 -46 -9t-64 -35v-338h-142v324q0 32 -12.5 45t-40.5 13q-39 0 -109 -43v-339h-147v493h118z" />
    <glyph glyph-name="n" unicode="n" horiz-adv-x="599" 
d="M181 493l11 -73q107 87 211 87q67 0 102.5 -35t35.5 -102v-370h-147v324q0 33 -10.5 45.5t-37.5 12.5q-47 0 -137 -45v-337h-148v493h120z" />
    <glyph glyph-name="o" unicode="o" horiz-adv-x="587" 
d="M294 507q138 0 195.5 -59.5t57.5 -201.5t-57.5 -200.5t-195.5 -58.5q-139 0 -196.5 58.5t-57.5 200.5q0 143 57.5 202t196.5 59zM294 396q-59 0 -79 -30t-20 -120q0 -88 20 -118t79 -30q57 0 77.5 30t20.5 118q0 89 -20 119.5t-78 30.5z" />
    <glyph glyph-name="p" unicode="p" horiz-adv-x="600" 
d="M181 493l11 -72q31 37 85.5 61t110.5 24q170 0 170 -264q0 -142 -45.5 -198.5t-142.5 -56.5q-100 0 -165 48q5 -51 3 -106v-119h-147v683h120zM208 343v-226q78 -20 112 -20q49 0 67.5 28t18.5 117q0 87 -17 117.5t-60 30.5q-49 0 -121 -47z" />
    <glyph glyph-name="q" unicode="q" horiz-adv-x="591" 
d="M532 -190h-148v144q0 65 12 112q-87 -79 -179 -79t-134.5 63t-42.5 194q0 132 52 197.5t192 65.5q59 0 132.5 -10t115.5 -29v-658zM385 148v239q-55 12 -101 10q-53 -2 -72.5 -34t-19.5 -123q0 -73 16.5 -101.5t65.5 -28.5q45 0 111 38z" />
    <glyph glyph-name="r" unicode="r" horiz-adv-x="425" 
d="M415 507l-15 -137h-40q-49 0 -151 -34v-336h-148v493h115l13 -72q101 86 200 86h26z" />
    <glyph glyph-name="s" unicode="s" horiz-adv-x="527" 
d="M280 183l-123 33q-68 20 -94 54.5t-26 95.5q0 77 47.5 109t162.5 32q133 -2 228 -19l-10 -95q-126 2 -190 2q-35 0 -48.5 -0.5t-27 -3.5t-16.5 -9.5t-3 -19.5q0 -5 0.5 -9t2.5 -7.5t3.5 -5.5t5.5 -4.5t6.5 -3.5t9 -3.5t10 -3.5t13 -3.5t14.5 -3.5l126 -34
q66 -19 94 -50.5t28 -93.5q0 -88 -51 -119.5t-175 -31.5q-120 0 -221 17l9 96q36 -2 171 -2q77 0 100.5 6.5t23.5 30.5q0 5 -0.5 9t-2.5 7.5t-4 5.5t-6.5 4.5t-7 4t-9.5 4t-11 3.5l-14 3.5t-15 4.5z" />
    <glyph glyph-name="t" unicode="t" horiz-adv-x="411" 
d="M253 394v-233q0 -28 12 -39t42 -11h63l16 -103q-57 -20 -139 -20q-67 0 -104 37.5t-37 104.5v264h-87v94l87 5v138h147v-138h137v-99h-137z" />
    <glyph glyph-name="u" unicode="u" 
d="M529 493v-493h-117l-11 68q-102 -81 -204 -81q-139 0 -139 137v369h148v-324q-1 -32 11 -45t42 -13q43 0 123 41v341h147z" />
    <glyph glyph-name="v" unicode="v" horiz-adv-x="563" 
d="M555 493l-162 -458q-12 -35 -48 -35h-128q-36 0 -48 35l-162 458h157l89 -309q11 -41 21 -88h13l23 88l89 309h156z" />
    <glyph glyph-name="w" unicode="w" horiz-adv-x="847" 
d="M831 493l-121 -454q-10 -39 -51 -39h-116q-20 0 -35 12.5t-18 32.5l-50 279q-1 9 -4.5 38t-6.5 45h-12l-12 -83l-49 -279q-3 -20 -18 -32.5t-36 -12.5h-114q-41 0 -51 39l-121 454h149l67 -320q10 -54 12 -81h13q2 14 6.5 41t6.5 40l50 276q7 44 51 44h104q20 0 34.5 -12
t17.5 -33l49 -275q2 -14 7 -41t7 -40h12l12 81l68 320h149z" />
    <glyph glyph-name="x" unicode="x" horiz-adv-x="564" 
d="M285 207h-6l-117 -207h-152l152 253l-141 240h151l105 -190h10l105 190h151l-141 -240l152 -253h-152z" />
    <glyph glyph-name="y" unicode="y" horiz-adv-x="562" 
d="M554 493l-175 -500q-14 -40 -34.5 -74t-52.5 -65.5t-79.5 -46.5t-105.5 -8l-12 87q60 16 94 41.5t53 68.5l2 4h-28q-37 0 -48 36l-161 457h158l92 -319q9 -35 15 -74h13q3 12 10 37.5t10 36.5l91 319h158z" />
    <glyph glyph-name="z" unicode="z" horiz-adv-x="525" 
d="M485 106v-106h-445v106l272 282h-267v105h435v-105l-271 -282h276z" />
    <glyph glyph-name="braceleft" unicode="{" horiz-adv-x="339" 
d="M303 768v-91q-45 0 -60.5 -12.5t-15.5 -49.5v-151q1 -65 -20.5 -95.5t-82.5 -40.5q61 -17 83.5 -47t23.5 -85v-210q0 -37 15.5 -48.5t60.5 -11.5v-91q-111 -14 -164 23.5t-53 115.5v239q0 18 -2 28t-12 18t-15 10t-27 11v96l27 9t14.5 10t9.5 19t1 33v182q0 77 53 115
t164 24z" />
    <glyph glyph-name="bar" unicode="|" horiz-adv-x="261" 
d="M182 -169h-104v950h104v-950z" />
    <glyph glyph-name="braceright" unicode="}" horiz-adv-x="340" 
d="M37 677v91q111 14 164 -24t53 -115v-182q0 -22 1 -33t9.5 -19t14.5 -10l27 -9v-96q-39 -16 -46 -25q-10 -13 -10 -42v-239q0 -78 -53 -115.5t-164 -23.5v91q45 0 60.5 11.5t15.5 48.5v210q1 55 23.5 85t83.5 47q-60 10 -82 40.5t-21 95.5v151q0 37 -15.5 49.5t-60.5 12.5
z" />
    <glyph glyph-name="asciitilde" unicode="~" horiz-adv-x="513" 
d="M129 217h-67q-11 72 13 109.5t68 36.5q32 -2 111 -25.5t95 -25.5q23 -4 29.5 6t6.5 40h67q11 -71 -12.5 -109t-68.5 -36q-35 1 -113 24.5t-94 25.5q-23 4 -29 -6t-6 -40z" />
    <glyph glyph-name="uni00A0" unicode="&#xa0;" horiz-adv-x="217" 
 />
    <glyph glyph-name="exclamdown" unicode="&#xa1;" horiz-adv-x="283" 
d="M125 507h34q29 0 40.5 -11.5t11.5 -40.5v-49q0 -29 -11.5 -40t-40.5 -11h-34q-29 0 -40.5 11t-11.5 40v49q0 29 11.5 40.5t40.5 11.5zM215 82v-267h-147v267l16 206h116z" />
    <glyph glyph-name="cent" unicode="&#xa2;" horiz-adv-x="521" 
d="M466 213l13 -91q-68 -29 -158 -32l-10 -90h-111l10 94q-92 14 -131.5 73t-39.5 181q0 137 52 196t176 63l9 83h111l-10 -88q57 -9 95 -25l-16 -90q-72 4 -142 4q-74 0 -101.5 -29.5t-27.5 -113.5t27.5 -113.5t101.5 -29.5q87 0 152 8z" />
    <glyph glyph-name="sterling" unicode="&#xa3;" horiz-adv-x="585" 
d="M544 123v-123h-494v123q86 39 77 160l-3 42h-77l-1 77h73l-8 113q-6 110 42.5 148.5t162.5 38.5q90 0 206 -10l-8 -114q-43 1 -179 1q-45 0 -61.5 -15t-13.5 -55l9 -107h179l-4 -77h-169l3 -42q4 -64 -13.5 -99t-58.5 -68q25 7 76 7h262z" />
    <glyph glyph-name="currency" unicode="&#xa4;" horiz-adv-x="585" 
d="M534 531l-71 -71q31 -48 31 -109q0 -58 -32 -108l72 -71l-62 -61l-71 70q-51 -32 -109 -32t-109 32l-69 -69l-66 65l70 70q-29 48 -29 104q0 61 33 111l-70 69l62 61l69 -70q47 32 109 32q61 0 110 -33l71 71zM292 234q47 0 81.5 34.5t34.5 83.5t-34.5 84t-81.5 35
q-48 0 -83 -35t-35 -84t35 -83.5t83 -34.5z" />
    <glyph glyph-name="yen" unicode="&#xa5;" horiz-adv-x="658" 
d="M465 361h102v-94h-472l-1 94h100l-169 329h157l116 -237q5 -9 27 -88h10q22 77 27 88l113 237h157zM94 236h473v-93h-162v-143h-151v143h-159z" />
    <glyph glyph-name="brokenbar" unicode="&#xa6;" horiz-adv-x="263" 
d="M183 381h-104v400h104v-400zM183 -169h-104v400h104v-400z" />
    <glyph glyph-name="section" unicode="&#xa7;" horiz-adv-x="553" 
d="M307 308l-158 88q-24 14 -37 23.5t-30.5 28.5t-25.5 45.5t-8 62.5q0 85 53 116t170 31q121 0 225 -12l-10 -106q-54 3 -172 3q-59 1 -82.5 -5.5t-25.5 -31.5q-2 -23 11.5 -37.5t42.5 -29.5l137 -72q79 -40 98 -101t-10 -146h-103q3 60 -11.5 88t-63.5 55zM68 359h103
q-3 -59 12 -87t64 -55l157 -87q23 -13 37 -23.5t31 -29.5t25 -46t8 -63q0 -87 -53.5 -117t-168.5 -30q-129 0 -225 12l10 106q76 -4 172 -4q59 0 82.5 7t24.5 32q3 23 -11 37.5t-42 29.5l-136 72q-80 40 -99.5 100.5t9.5 145.5z" />
    <glyph glyph-name="dieresis" unicode="&#xa8;" horiz-adv-x="424" 
d="M97 708h49q32 0 32 -33v-58q0 -33 -32 -33h-49q-32 0 -32 33v58q0 33 32 33zM279 708h48q33 0 33 -33v-58q0 -33 -33 -33h-48q-33 0 -33 33v58q0 33 33 33z" />
    <glyph glyph-name="copyright" unicode="&#xa9;" horiz-adv-x="810" 
d="M405 703q154 0 258 -101.5t104 -256.5t-104 -256.5t-258 -101.5q-153 0 -257.5 101.5t-104.5 256.5t104.5 256.5t257.5 101.5zM405 632q-119 0 -203 -82t-84 -205t84 -205t203 -82q120 0 203.5 82t83.5 205t-83.5 205t-203.5 82zM547 236l9 -80q-63 -18 -146 -18
q-107 0 -151 47t-44 162q0 114 44 160.5t151 46.5q79 0 136 -14l-9 -80q-86 2 -128 2q-48 0 -64.5 -23.5t-16.5 -91.5q0 -69 16 -92t65 -23q97 0 138 4z" />
    <glyph glyph-name="ordfeminine" unicode="&#xaa;" horiz-adv-x="437" 
d="M75 526l-11 73q98 16 184 16q67 0 100 -28t33 -96v-216h-86l-11 54q-55 -63 -129 -63q-47 0 -77.5 24t-30.5 68v36q0 39 27.5 61.5t75.5 22.5h123v14q0 20 -11 29.5t-38 9.5q-59 0 -149 -5zM152 388v-10q0 -30 40 -30q37 0 81 30v46l-85 -7q-36 -3 -36 -29z" />
    <glyph glyph-name="guillemotleft" unicode="&#xab;" horiz-adv-x="518" 
d="M270 415l-105 -164l106 -169l-78 -49l-159 202v32l158 198zM478 415l-106 -164l106 -169l-77 -49l-160 202v32l159 198z" />
    <glyph glyph-name="logicalnot" unicode="&#xac;" horiz-adv-x="582" 
d="M518 355v-220h-110v115h-350v105h460z" />
    <glyph glyph-name="softhyphen" unicode="&#xad;" horiz-adv-x="414" 
d="M356 206h-298v97h298v-97z" />
    <glyph glyph-name="registered" unicode="&#xae;" horiz-adv-x="523" 
d="M262 703q92 0 157 -65t65 -157q0 -93 -65 -158t-157 -65q-93 0 -158 65t-65 158q0 92 65 157t158 65zM262 301q73 0 125.5 52.5t52.5 127.5q0 74 -52.5 126.5t-125.5 52.5q-74 0 -126 -52.5t-52 -126.5q0 -75 52 -127.5t126 -52.5zM318 478v-2q32 -4 40 -37l24 -72h-67
l-19 70q-8 19 -30 19h-41v-89h-62v233q33 3 106 3q56 0 79.5 -15t23.5 -54q0 -51 -54 -56zM225 497h42q25 1 33.5 7.5t8.5 23.5q0 18 -8.5 24t-33.5 6h-42v-61z" />
    <glyph glyph-name="macron" unicode="&#xaf;" horiz-adv-x="400" 
d="M350 598h-300v95h300v-95z" />
    <glyph glyph-name="degree" unicode="&#xb0;" horiz-adv-x="344" 
d="M172 703q55 0 95.5 -38.5t40.5 -93.5t-40 -94.5t-96 -39.5t-96 39.5t-40 94.5t40 93.5t96 38.5zM172 629q-25 0 -41.5 -16t-16.5 -42t17 -43t41 -17t41 17t17 43t-16.5 42t-41.5 16z" />
    <glyph glyph-name="plusminus" unicode="&#xb1;" horiz-adv-x="574" 
d="M515 427v-109h-174v-119h-109v119h-173v109h173v120h110v-120h173zM59 153h456v-108h-456v108z" />
    <glyph glyph-name="twosuperior" unicode="&#xb2;" horiz-adv-x="432" 
d="M57 684l-4 84q77 13 150 13q90 0 128.5 -21.5t38.5 -84.5q0 -55 -72 -124l-108 -98q29 5 62 5l131 -2v-96h-334v59q0 30 17 47l101 93q72 65 80 101q2 17 -11 22t-43 5q-47 0 -136 -3z" />
    <glyph glyph-name="threesuperior" unicode="&#xb3;" horiz-adv-x="413" 
d="M59 691l-4 80q79 11 148 11q88 0 122 -21t34 -75q0 -48 -16.5 -73.5t-61.5 -31.5v-2q49 -7 68.5 -31t20.5 -73q2 -66 -35.5 -94.5t-127.5 -28.5q-67 0 -161 11l4 82q55 -3 126 -3q46 0 62 10t16 39q0 23 -12.5 33.5t-50.5 10.5l-86 2v74l86 1q36 1 47 12t11 32
q0 22 -13 29t-52 7q-92 0 -125 -1z" />
    <glyph glyph-name="acute" unicode="&#xb4;" horiz-adv-x="353" 
d="M317 634l-225 -110l-44 64l201 148z" />
    <glyph glyph-name="paragraph" unicode="&#xb6;" horiz-adv-x="603" 
d="M260 -210v411q-124 11 -177.5 69t-53.5 180q0 138 73 195t246 57q103 0 171 -17v-685h-98v610q-44 2 -63 2v-822h-98z" />
    <glyph glyph-name="periodcentered" unicode="&#xb7;" horiz-adv-x="254" 
d="M107 334h40q29 0 40.5 -11.5t11.5 -40.5v-48q0 -29 -11.5 -40.5t-40.5 -11.5h-40q-29 0 -40.5 11.5t-11.5 40.5v48q0 29 11.5 40.5t40.5 11.5z" />
    <glyph glyph-name="cedilla" unicode="&#xb8;" horiz-adv-x="248" 
d="M66 -96l14 58q83 9 114.5 -3t29.5 -62q-3 -73 -59 -109.5t-141 -25.5l19 65q82 -2 86 58q1 13 -10.5 16t-52.5 3z" />
    <glyph glyph-name="onesuperior" unicode="&#xb9;" horiz-adv-x="306" 
d="M245 360h-113v271q0 33 4 50l-103 -21l-13 73l112 41h113v-414z" />
    <glyph glyph-name="ordmasculine" unicode="&#xba;" horiz-adv-x="439" 
d="M220 615q97 0 136.5 -39.5t39.5 -135.5q0 -95 -39.5 -134t-136.5 -39t-137 39t-40 134q0 96 40 135.5t137 39.5zM220 535q-38 0 -51 -19t-14 -76q1 -56 14 -75t51 -19q37 0 50.5 19t13.5 75q0 57 -13.5 76t-50.5 19z" />
    <glyph glyph-name="guillemotright" unicode="&#xbb;" horiz-adv-x="518" 
d="M485 267v-32l-160 -202l-77 49l106 169l-106 164l78 50zM277 267v-32l-159 -202l-78 49l106 169l-105 164l77 50z" />
    <glyph glyph-name="onequarter" unicode="&#xbc;" horiz-adv-x="900" 
d="M136 276v271q0 29 5 50l-101 -21l-13 73l109 41h113v-414h-113zM663 690l-416 -690h-95l417 690h94zM867 95l-47 -9v-86h-105v85h-179q-29 0 -44 19.5t-1 49.5l113 260h104l-101 -234q-6 -16 14 -16h94v105l18 64h87v-169h47v-69z" />
    <glyph glyph-name="onehalf" unicode="&#xbd;" horiz-adv-x="913" 
d="M249 276h-113v271q0 29 5 50l-101 -21l-13 73l109 41h113v-414zM242 0h-95l416 690h95zM548 324l-4 84q77 13 149 13q90 0 128.5 -21.5t38.5 -84.5q0 -55 -73 -124l-106 -98q29 5 62 5l129 -2v-96h-332v59q0 30 17 47l100 93q73 67 79 101q3 17 -10 22t-43 5
q-47 0 -135 -3z" />
    <glyph glyph-name="threequarters" unicode="&#xbe;" horiz-adv-x="984" 
d="M276 495v-2q50 -7 69 -31t20 -73q1 -67 -36 -95.5t-126 -28.5q-73 0 -160 12l4 82q56 -3 125 -3q46 0 61.5 9.5t15.5 38.5q0 24 -12.5 35t-49.5 12h-85v72l85 2q35 0 45.5 11t10.5 33t-12.5 29.5t-50.5 7.5q-91 0 -124 -1l-4 80q73 10 148 10q86 0 119.5 -20.5
t33.5 -74.5q0 -49 -16 -74t-61 -31zM754 690l-416 -690h-95l416 690h95zM952 95l-47 -9v-86h-105v85h-178q-29 0 -44 19.5t-1 49.5l112 260h104l-101 -234q-6 -16 14 -16h94v105l18 64h87v-169h47v-69z" />
    <glyph glyph-name="questiondown" unicode="&#xbf;" horiz-adv-x="511" 
d="M253 509h34q29 0 40.5 -11.5t11.5 -40.5v-48q0 -29 -11.5 -40.5t-40.5 -11.5h-34q-29 0 -40.5 11.5t-11.5 40.5v48q0 29 11.5 40.5t40.5 11.5zM210 290h118q2 -60 -18.5 -111t-47.5 -80t-51 -61t-26 -57q-3 -33 19 -48.5t73 -15.5q88 0 201 5l5 -101q-8 -1 -29.5 -5.5
t-29.5 -5.5t-26.5 -4t-31 -4t-32.5 -2.5t-42.5 -2t-49.5 -0.5q-108 0 -160.5 38t-52.5 117q0 40 17.5 74.5t42.5 60.5t51 53t46 65.5t24 84.5z" />
    <glyph glyph-name="Agrave" unicode="&#xc0;" horiz-adv-x="650" 
d="M354 723l-225 109l67 103l202 -149zM444 181h-237l-50 -181h-156l199 650q4 18 19 29t34 11h144q43 0 53 -40l199 -650h-155zM411 299l-58 211q-12 50 -14 65h-27q-2 -10 -7 -32t-8 -33l-58 -211h172z" />
    <glyph glyph-name="Aacute" unicode="&#xc1;" horiz-adv-x="650" 
d="M286 723l-44 63l202 149l67 -103zM444 181h-237l-50 -181h-156l199 650q4 18 19 29t34 11h144q43 0 53 -40l199 -650h-155zM411 299l-58 211q-12 50 -14 65h-27q-2 -10 -7 -32t-8 -33l-58 -211h172z" />
    <glyph glyph-name="Acircumflex" unicode="&#xc2;" horiz-adv-x="650" 
d="M180 719l-41 58l134 132h107l132 -135l-41 -55l-141 95h-8zM444 181h-237l-50 -181h-156l199 650q4 18 19 29t34 11h144q43 0 53 -40l199 -650h-155zM411 299l-58 211q-12 50 -14 65h-27q-2 -10 -7 -32t-8 -33l-58 -211h172z" />
    <glyph glyph-name="Atilde" unicode="&#xc3;" horiz-adv-x="650" 
d="M215 757h-63q-11 71 14 108t67 34q35 -3 85.5 -23.5t74.5 -24.5q23 -4 30.5 5.5t7.5 37.5h64q10 -68 -14 -106t-68 -35q-38 3 -89.5 24.5t-70.5 24.5q-24 4 -31 -6t-7 -39zM444 181h-237l-50 -181h-156l199 650q4 18 19 29t34 11h144q43 0 53 -40l199 -650h-155zM411 299
l-58 211q-12 50 -14 65h-27q-2 -10 -7 -32t-8 -33l-58 -211h172z" />
    <glyph glyph-name="Adieresis" unicode="&#xc4;" horiz-adv-x="650" 
d="M258 763h-48q-33 0 -33 33v57q0 33 33 33h48q33 0 33 -33v-57q0 -33 -33 -33zM440 763h-48q-33 0 -33 33v57q0 33 33 33h48q33 0 33 -33v-57q0 -33 -33 -33zM444 181h-237l-50 -181h-156l199 650q4 18 19 29t34 11h144q43 0 53 -40l199 -650h-155zM411 299l-58 211
q-12 50 -14 65h-27q-2 -10 -7 -32t-8 -33l-58 -211h172z" />
    <glyph glyph-name="Aring" unicode="&#xc5;" horiz-adv-x="650" 
d="M326 713q-49 0 -83.5 33.5t-34.5 81.5t35 81.5t83 33.5t83 -33.5t35 -81.5t-34.5 -81.5t-83.5 -33.5zM326 879q-21 0 -35.5 -14.5t-14.5 -36.5q0 -23 14.5 -37t35.5 -14t35.5 14t14.5 37q0 22 -14.5 36.5t-35.5 14.5zM444 181h-237l-50 -181h-156l199 650q4 18 19 29
t34 11h144q43 0 53 -40l199 -650h-155zM411 299l-58 211q-12 50 -14 65h-27q-2 -10 -7 -32t-8 -33l-58 -211h172z" />
    <glyph glyph-name="AE" unicode="&#xc6;" horiz-adv-x="931" 
d="M884 119l7 -112q-99 -10 -317 -10q-59 0 -94.5 39t-35.5 100v54h-204l-94 -190h-157l291 558q26 52 58 79.5t86.5 40.5t144.5 13q217 0 322 -8l-7 -112h-245q-23 0 -38 -14.5t-15 -39.5v-104h261v-108h-261v-134q0 -28 12.5 -40t40.5 -12h245zM444 304v224q0 40 23 67
h-11q-19 -16 -40 -53l-119 -238h147z" />
    <glyph glyph-name="Ccedilla" unicode="&#xc7;" horiz-adv-x="586" 
d="M545 129l13 -113q-90 -28 -221 -28q-160 0 -225 80t-65 277t65 277t225 80q116 0 207 -23l-13 -114q-81 5 -194 5q-75 0 -102.5 -47.5t-27.5 -177.5t27.5 -177.5t102.5 -47.5q139 0 208 9zM252 -116l15 58q82 9 114 -3t30 -62q-3 -73 -59.5 -109.5t-140.5 -24.5l19 64
q37 -1 60.5 13.5t25.5 44.5q1 13 -10.5 16t-53.5 3z" />
    <glyph glyph-name="Egrave" unicode="&#xc8;" horiz-adv-x="576" 
d="M343 735l-225 109l67 102l202 -148zM529 119l7 -112q-94 -10 -320 -10q-69 0 -110 37.5t-42 101.5v418q1 64 42 101.5t110 37.5q226 0 320 -10l-7 -113h-265q-25 0 -36 -12t-11 -39v-105h275v-110h-275v-133q0 -28 11 -40t36 -12h265z" />
    <glyph glyph-name="Eacute" unicode="&#xc9;" horiz-adv-x="576" 
d="M275 735l-44 63l202 148l67 -102zM529 119l7 -112q-94 -10 -320 -10q-69 0 -110 37.5t-42 101.5v418q1 64 42 101.5t110 37.5q226 0 320 -10l-7 -113h-265q-25 0 -36 -12t-11 -39v-105h275v-110h-275v-133q0 -28 11 -40t36 -12h265z" />
    <glyph glyph-name="Ecircumflex" unicode="&#xca;" horiz-adv-x="576" 
d="M169 731l-41 58l134 132h107l132 -135l-41 -55l-141 95h-8zM529 119l7 -112q-94 -10 -320 -10q-69 0 -110 37.5t-42 101.5v418q1 64 42 101.5t110 37.5q226 0 320 -10l-7 -113h-265q-25 0 -36 -12t-11 -39v-105h275v-110h-275v-133q0 -28 11 -40t36 -12h265z" />
    <glyph glyph-name="Edieresis" unicode="&#xcb;" horiz-adv-x="576" 
d="M248 775h-49q-33 0 -33 32v58q0 33 33 33h49q32 0 32 -33v-58q0 -32 -32 -32zM429 775h-48q-33 0 -33 32v58q0 33 33 33h48q33 0 33 -33v-58q0 -32 -33 -32zM529 119l7 -112q-94 -10 -320 -10q-69 0 -110 37.5t-42 101.5v418q1 64 42 101.5t110 37.5q226 0 320 -10
l-7 -113h-265q-25 0 -36 -12t-11 -39v-105h275v-110h-275v-133q0 -28 11 -40t36 -12h265z" />
    <glyph glyph-name="Igrave" unicode="&#xcc;" horiz-adv-x="292" 
d="M218 786l-44 -63l-225 109l68 103zM222 0h-152v690h152v-690z" />
    <glyph glyph-name="Iacute" unicode="&#xcd;" horiz-adv-x="292" 
d="M331 832l-225 -109l-43 63l201 149zM222 0h-152v690h152v-690z" />
    <glyph glyph-name="Icircumflex" unicode="&#xce;" horiz-adv-x="292" 
d="M333 774l-42 -55l-140 95h-8l-143 -95l-41 58l134 132h107zM222 0h-152v690h152v-690z" />
    <glyph glyph-name="Idieresis" unicode="&#xcf;" horiz-adv-x="292" 
d="M30 886h49q32 0 32 -33v-57q0 -33 -32 -33h-49q-32 0 -32 33v57q0 33 32 33zM212 886h49q33 0 33 -33v-57q0 -33 -33 -33h-49q-33 0 -33 33v57q0 33 33 33zM222 0h-152v690h152v-690z" />
    <glyph glyph-name="Eth" unicode="&#xd0;" horiz-adv-x="683" 
d="M73 400v290q142 9 269 9q164 0 228.5 -76t64.5 -278t-64.5 -278t-228.5 -76q-127 0 -269 9v323h-57v77h57zM225 323v-211q17 0 56 -0.5t61 -0.5q77 0 105 49.5t28 184.5q0 136 -28 185.5t-105 49.5l-117 -1v-179h124v-77h-124z" />
    <glyph glyph-name="Ntilde" unicode="&#xd1;" horiz-adv-x="722" 
d="M257 757h-63q-11 71 14 108t67 34q35 -3 85.5 -23.5t74.5 -24.5q23 -4 30.5 5.5t7.5 37.5h63q11 -68 -13 -106t-68 -35q-38 3 -89.5 24.5t-70.5 24.5q-24 4 -31 -6t-7 -39zM652 690v-635q0 -55 -54 -55h-95q-23 0 -36 10.5t-25 34.5l-181 368q-34 73 -42 107h-11
q7 -50 7 -110v-410h-145v635q0 55 55 55h93q23 0 36 -10.5t25 -34.5l175 -357q25 -50 50 -111h10q-6 78 -6 116v397h144z" />
    <glyph glyph-name="Ograve" unicode="&#xd2;" horiz-adv-x="684" 
d="M413 786l-43 -63l-226 109l68 103zM342 703q166 0 231 -76.5t65 -281.5t-65 -281.5t-231 -76.5t-230.5 76.5t-64.5 281.5t64.5 281.5t230.5 76.5zM342 580q-78 0 -106.5 -49t-28.5 -186t28.5 -186t106.5 -49t106.5 49t28.5 186t-28.5 186t-106.5 49z" />
    <glyph glyph-name="Oacute" unicode="&#xd3;" horiz-adv-x="684" 
d="M526 832l-225 -109l-43 63l201 149zM342 703q166 0 231 -76.5t65 -281.5t-65 -281.5t-231 -76.5t-230.5 76.5t-64.5 281.5t64.5 281.5t230.5 76.5zM342 580q-78 0 -106.5 -49t-28.5 -186t28.5 -186t106.5 -49t106.5 49t28.5 186t-28.5 186t-106.5 49z" />
    <glyph glyph-name="Ocircumflex" unicode="&#xd4;" horiz-adv-x="684" 
d="M528 774l-42 -55l-140 95h-8l-143 -95l-41 58l134 132h107zM342 703q166 0 231 -76.5t65 -281.5t-65 -281.5t-231 -76.5t-230.5 76.5t-64.5 281.5t64.5 281.5t230.5 76.5zM342 580q-78 0 -106.5 -49t-28.5 -186t28.5 -186t106.5 -49t106.5 49t28.5 186t-28.5 186
t-106.5 49z" />
    <glyph glyph-name="Otilde" unicode="&#xd5;" horiz-adv-x="684" 
d="M231 757h-64q-11 71 14.5 108t67.5 34q35 -3 85.5 -24t73.5 -24q24 -4 31.5 5.5t7.5 37.5h63q11 -68 -13 -106t-68 -35q-38 3 -90.5 24.5t-70.5 24.5q-23 4 -30 -6t-7 -39zM342 703q166 0 231 -76.5t65 -281.5t-65 -281.5t-231 -76.5t-230.5 76.5t-64.5 281.5t64.5 281.5
t230.5 76.5zM342 580q-78 0 -106.5 -49t-28.5 -186t28.5 -186t106.5 -49t106.5 49t28.5 186t-28.5 186t-106.5 49z" />
    <glyph glyph-name="Odieresis" unicode="&#xd6;" horiz-adv-x="684" 
d="M225 886h49q32 0 32 -33v-57q0 -33 -32 -33h-49q-32 0 -32 33v57q0 33 32 33zM407 886h49q33 0 33 -33v-57q0 -33 -33 -33h-49q-33 0 -33 33v57q0 33 33 33zM342 703q166 0 231 -76.5t65 -281.5t-65 -281.5t-231 -76.5t-230.5 76.5t-64.5 281.5t64.5 281.5t230.5 76.5z
M342 580q-78 0 -106.5 -49t-28.5 -186t28.5 -186t106.5 -49t106.5 49t28.5 186t-28.5 186t-106.5 49z" />
    <glyph glyph-name="multiply" unicode="&#xd7;" horiz-adv-x="492" 
d="M31 412l364 -325l70 83l-364 326z" />
    <glyph glyph-name="Oslash" unicode="&#xd8;" horiz-adv-x="684" 
d="M597 739l-43 -93q45 -39 64.5 -111t19.5 -190q0 -205 -65 -281.5t-231 -76.5q-55 0 -96 7l-48 -103l-115 56l47 98q-83 73 -83 300q0 205 64.5 281.5t230.5 76.5q56 0 95 -7l45 98zM342 110q78 0 106.5 49t28.5 186t-28.5 186t-106.5 49t-106.5 -49t-28.5 -186t28.5 -186
t106.5 -49z" />
    <glyph glyph-name="Ugrave" unicode="&#xd9;" horiz-adv-x="681" 
d="M413 786l-43 -63l-226 109l68 103zM617 690v-415q0 -158 -60.5 -223t-208.5 -65q-156 0 -219.5 65t-63.5 223v415h152v-415q0 -95 26.5 -130t97.5 -35q70 0 96.5 35t26.5 130v415h153z" />
    <glyph glyph-name="Uacute" unicode="&#xda;" horiz-adv-x="681" 
d="M526 832l-225 -109l-43 63l201 149zM617 690v-415q0 -158 -60.5 -223t-208.5 -65q-156 0 -219.5 65t-63.5 223v415h152v-415q0 -95 26.5 -130t97.5 -35q70 0 96.5 35t26.5 130v415h153z" />
    <glyph glyph-name="Ucircumflex" unicode="&#xdb;" horiz-adv-x="681" 
d="M528 774l-42 -55l-140 95h-8l-143 -95l-41 58l134 132h107zM617 690v-415q0 -158 -60.5 -223t-208.5 -65q-156 0 -219.5 65t-63.5 223v415h152v-415q0 -95 26.5 -130t97.5 -35q70 0 96.5 35t26.5 130v415h153z" />
    <glyph glyph-name="Udieresis" unicode="&#xdc;" horiz-adv-x="681" 
d="M225 886h49q32 0 32 -33v-57q0 -33 -32 -33h-49q-32 0 -32 33v57q0 33 32 33zM407 886h49q33 0 33 -33v-57q0 -33 -33 -33h-49q-33 0 -33 33v57q0 33 33 33zM617 690v-415q0 -158 -60.5 -223t-208.5 -65q-156 0 -219.5 65t-63.5 223v415h152v-415q0 -95 26.5 -130
t97.5 -35q70 0 96.5 35t26.5 130v415h153z" />
    <glyph glyph-name="Yacute" unicode="&#xdd;" horiz-adv-x="608" 
d="M264 723l-44 63l201 149l68 -103zM381 228v-228h-153v228l-228 462h159l115 -253q10 -22 26 -87h10q12 54 25 87l115 253h157z" />
    <glyph glyph-name="Thorn" unicode="&#xde;" horiz-adv-x="610" 
d="M223 690v-116h107q142 0 195 -47.5t53 -180.5q0 -132 -50 -179.5t-179 -47.5q-64 0 -126 8v-127h-153v565v125h153zM223 237h103q58 0 78.5 22t20.5 87q0 66 -20.5 88.5t-78.5 22.5l-103 -1v-219z" />
    <glyph glyph-name="germandbls" unicode="&#xdf;" horiz-adv-x="705" 
d="M522 312l78 -45q48 -31 65.5 -58t17.5 -76q0 -79 -43.5 -111.5t-148.5 -32.5q-75 0 -167 11l9 99q84 -2 124 -2q48 0 63.5 7t15.5 35q0 11 -3.5 19.5t-16.5 19t-19 14.5l-30 20l-71 38q-75 46 -75 117q0 22 9.5 41t16 27t33 30.5t32.5 28.5q29 26 39 41.5t10 37.5
q0 27 -20 38.5t-83 11.5q-64 0 -85 -17t-21 -69v-537h-148v393h-86v98l86 2v61q0 104 57.5 141t193.5 37q139 0 190.5 -33.5t51.5 -118.5q0 -35 -13 -62t-54 -62q-7 -6 -22 -18t-21 -17t-14 -13.5t-10.5 -16t-2.5 -16.5q0 -11 8.5 -22t15.5 -16t29 -19z" />
    <glyph glyph-name="agrave" unicode="&#xe0;" horiz-adv-x="567" 
d="M311 540l-225 110l67 102l202 -148zM74 383l-14 100q133 24 257 24q100 0 147 -40.5t47 -140.5v-326h-117l-15 75q-74 -87 -182 -87q-71 0 -116 37.5t-45 104.5v50q0 59 40 92t111 33h176v22q-1 38 -17.5 51t-63.5 13q-82 0 -208 -8zM182 169v-19q0 -51 58 -51
q60 0 123 48v69h-133q-48 -1 -48 -47z" />
    <glyph glyph-name="aacute" unicode="&#xe1;" horiz-adv-x="567" 
d="M243 540l-44 64l201 148l68 -102zM74 383l-14 100q133 24 257 24q100 0 147 -40.5t47 -140.5v-326h-117l-15 75q-74 -87 -182 -87q-71 0 -116 37.5t-45 104.5v50q0 59 40 92t111 33h176v22q-1 38 -17.5 51t-63.5 13q-82 0 -208 -8zM182 169v-19q0 -51 58 -51q60 0 123 48
v69h-133q-48 -1 -48 -47z" />
    <glyph glyph-name="acircumflex" unicode="&#xe2;" horiz-adv-x="567" 
d="M137 537l-41 58l134 132h107l132 -135l-41 -55l-141 95h-8zM74 383l-14 100q133 24 257 24q100 0 147 -40.5t47 -140.5v-326h-117l-15 75q-74 -87 -182 -87q-71 0 -116 37.5t-45 104.5v50q0 59 40 92t111 33h176v22q-1 38 -17.5 51t-63.5 13q-82 0 -208 -8zM182 169v-19
q0 -51 58 -51q60 0 123 48v69h-133q-48 -1 -48 -47z" />
    <glyph glyph-name="atilde" unicode="&#xe3;" horiz-adv-x="567" 
d="M172 575h-63q-11 70 14 107t67 34q36 -3 86.5 -23.5t73.5 -24.5q24 -4 31 6t7 37h64q10 -68 -14 -105.5t-68 -34.5q-38 3 -89.5 24.5t-70.5 24.5q-24 3 -31 -7t-7 -38zM74 383l-14 100q133 24 257 24q100 0 147 -40.5t47 -140.5v-326h-117l-15 75q-74 -87 -182 -87
q-71 0 -116 37.5t-45 104.5v50q0 59 40 92t111 33h176v22q-1 38 -17.5 51t-63.5 13q-82 0 -208 -8zM182 169v-19q0 -51 58 -51q60 0 123 48v69h-133q-48 -1 -48 -47z" />
    <glyph glyph-name="adieresis" unicode="&#xe4;" horiz-adv-x="567" 
d="M215 580h-48q-33 0 -33 33v58q0 33 33 33h48q33 0 33 -33v-58q0 -33 -33 -33zM397 580h-48q-33 0 -33 33v58q0 33 33 33h48q33 0 33 -33v-58q0 -33 -33 -33zM74 383l-14 100q133 24 257 24q100 0 147 -40.5t47 -140.5v-326h-117l-15 75q-74 -87 -182 -87q-71 0 -116 37.5
t-45 104.5v50q0 59 40 92t111 33h176v22q-1 38 -17.5 51t-63.5 13q-82 0 -208 -8zM182 169v-19q0 -51 58 -51q60 0 123 48v69h-133q-48 -1 -48 -47z" />
    <glyph glyph-name="aring" unicode="&#xe5;" horiz-adv-x="567" 
d="M283 530q-49 0 -83.5 33.5t-34.5 81.5t34.5 81.5t83.5 33.5q48 0 83 -33.5t35 -81.5t-34.5 -81.5t-83.5 -33.5zM283 697q-21 0 -35.5 -14.5t-14.5 -37.5t14.5 -37t35.5 -14t35.5 14t14.5 37t-14.5 37.5t-35.5 14.5zM74 383l-14 100q133 24 257 24q100 0 147 -40.5
t47 -140.5v-326h-117l-15 75q-74 -87 -182 -87q-71 0 -116 37.5t-45 104.5v50q0 59 40 92t111 33h176v22q-1 38 -17.5 51t-63.5 13q-82 0 -208 -8zM182 169v-19q0 -51 58 -51q60 0 123 48v69h-133q-48 -1 -48 -47z" />
    <glyph glyph-name="ae" unicode="&#xe6;" horiz-adv-x="875" 
d="M690 197h-178q7 -54 33 -72.5t86 -18.5q77 0 182 11l14 -92q-77 -37 -214 -37q-169 0 -223 97q-76 -97 -195 -97q-70 0 -114.5 37.5t-44.5 104.5v50q0 58 40 91t110 33h173v23q0 37 -16.5 50.5t-62.5 13.5q-81 0 -207 -8l-13 100q131 24 254 24q90 0 136 -32
q55 32 158 32q122 0 176.5 -42.5t54.5 -129.5q1 -69 -34.5 -103.5t-114.5 -34.5zM510 286h139q27 0 36.5 13t9.5 38q0 35 -18 48.5t-64 13.5q-58 0 -79.5 -22.5t-23.5 -90.5zM182 169v-19q0 -51 56 -51q62 0 129 53q-7 31 -8 64h-130q-47 -1 -47 -47z" />
    <glyph glyph-name="ccedilla" unicode="&#xe7;" horiz-adv-x="507" 
d="M465 117l13 -96q-76 -33 -191 -33q-136 0 -191.5 58.5t-55.5 200.5q0 143 56 201.5t193 58.5q112 0 182 -31l-16 -92q-108 2 -141 2q-68 0 -93.5 -29t-25.5 -110t25.5 -110t93.5 -29q87 0 151 9zM205 -110l15 58q82 9 114 -3t30 -62q-3 -73 -59.5 -109.5t-140.5 -25.5
l19 65q37 -1 60.5 13.5t25.5 44.5q1 13 -10.5 16t-53.5 3z" />
    <glyph glyph-name="egrave" unicode="&#xe8;" horiz-adv-x="560" 
d="M321 540l-225 110l68 102l201 -148zM375 197h-178q7 -54 32.5 -72.5t84.5 -18.5q79 0 184 11l14 -92q-77 -37 -215 -37q-139 0 -198 60t-59 198q0 145 57.5 203t193.5 58q123 0 178 -42.5t56 -129.5q0 -69 -35.5 -103.5t-114.5 -34.5zM194 286h140q27 0 36.5 13t9.5 38
q0 35 -18 48.5t-66 13.5q-57 0 -78 -22.5t-24 -90.5z" />
    <glyph glyph-name="eacute" unicode="&#xe9;" horiz-adv-x="560" 
d="M253 540l-44 64l202 148l67 -102zM375 197h-178q7 -54 32.5 -72.5t84.5 -18.5q79 0 184 11l14 -92q-77 -37 -215 -37q-139 0 -198 60t-59 198q0 145 57.5 203t193.5 58q123 0 178 -42.5t56 -129.5q0 -69 -35.5 -103.5t-114.5 -34.5zM194 286h140q27 0 36.5 13t9.5 38
q0 35 -18 48.5t-66 13.5q-57 0 -78 -22.5t-24 -90.5z" />
    <glyph glyph-name="ecircumflex" unicode="&#xea;" horiz-adv-x="560" 
d="M147 537l-41 58l134 132h107l132 -135l-41 -55l-141 95h-8zM375 197h-178q7 -54 32.5 -72.5t84.5 -18.5q79 0 184 11l14 -92q-77 -37 -215 -37q-139 0 -198 60t-59 198q0 145 57.5 203t193.5 58q123 0 178 -42.5t56 -129.5q0 -69 -35.5 -103.5t-114.5 -34.5zM194 286h140
q27 0 36.5 13t9.5 38q0 35 -18 48.5t-66 13.5q-57 0 -78 -22.5t-24 -90.5z" />
    <glyph glyph-name="edieresis" unicode="&#xeb;" horiz-adv-x="560" 
d="M226 580h-49q-33 0 -33 33v58q0 33 33 33h49q32 0 32 -33v-58q0 -33 -32 -33zM407 580h-48q-33 0 -33 33v58q0 33 33 33h48q33 0 33 -33v-58q0 -33 -33 -33zM375 197h-178q7 -54 32.5 -72.5t84.5 -18.5q79 0 184 11l14 -92q-77 -37 -215 -37q-139 0 -198 60t-59 198
q0 145 57.5 203t193.5 58q123 0 178 -42.5t56 -129.5q0 -69 -35.5 -103.5t-114.5 -34.5zM194 286h140q27 0 36.5 13t9.5 38q0 35 -18 48.5t-66 13.5q-57 0 -78 -22.5t-24 -90.5z" />
    <glyph glyph-name="igrave" unicode="&#xec;" horiz-adv-x="278" 
d="M211 604l-43 -64l-225 110l67 102zM213 0h-148v493h148v-493z" />
    <glyph glyph-name="iacute" unicode="&#xed;" horiz-adv-x="278" 
d="M325 650l-226 -110l-43 64l201 148zM213 0h-148v493h148v-493z" />
    <glyph glyph-name="icircumflex" unicode="&#xee;" horiz-adv-x="278" 
d="M326 592l-41 -55l-141 95h-8l-143 -95l-41 58l134 132h107zM213 0h-148v493h148v-493z" />
    <glyph glyph-name="idieresis" unicode="&#xef;" horiz-adv-x="278" 
d="M23 704h49q32 0 32 -33v-58q0 -33 -32 -33h-49q-32 0 -32 33v58q0 33 32 33zM206 704h48q33 0 33 -33v-58q0 -33 -33 -33h-48q-33 0 -33 33v58q0 33 33 33zM213 0h-148v493h148v-493z" />
    <glyph glyph-name="eth" unicode="&#xf0;" horiz-adv-x="573" 
d="M507 663l-72 -70q96 -109 96 -306q0 -156 -56.5 -228t-192.5 -72q-125 0 -184 55.5t-59 173.5q0 120 49 177.5t164 57.5q65 0 112 -21q-21 101 -79.5 138.5t-163.5 31.5l13 98q117 7 206 -34l84 83zM284 98q58 0 75.5 40.5t17.5 150.5l-1 42q-42 9 -92 9t-70.5 -27
t-20.5 -94q0 -69 20.5 -95t70.5 -26z" />
    <glyph glyph-name="ntilde" unicode="&#xf1;" horiz-adv-x="599" 
d="M196 575h-63q-11 70 14.5 107t67.5 34q36 -3 86 -23.5t73 -24.5q24 -4 31.5 6t7.5 37h63q11 -68 -13 -105.5t-69 -34.5q-38 3 -89.5 24.5t-70.5 24.5q-24 3 -31 -7t-7 -38zM181 493l11 -73q107 87 211 87q67 0 102.5 -35t35.5 -102v-370h-147v324q0 33 -10.5 45.5
t-37.5 12.5q-47 0 -137 -45v-337h-148v493h120z" />
    <glyph glyph-name="ograve" unicode="&#xf2;" horiz-adv-x="587" 
d="M366 604l-44 -64l-225 110l68 102zM294 507q138 0 195.5 -59.5t57.5 -201.5t-57.5 -200.5t-195.5 -58.5q-139 0 -196.5 58.5t-57.5 200.5q0 143 57.5 202t196.5 59zM294 396q-59 0 -79 -30t-20 -120q0 -88 20 -118t79 -30q57 0 77.5 30t20.5 118q0 89 -20 119.5t-78 30.5
z" />
    <glyph glyph-name="oacute" unicode="&#xf3;" horiz-adv-x="587" 
d="M479 650l-225 -110l-43 64l201 148zM294 507q138 0 195.5 -59.5t57.5 -201.5t-57.5 -200.5t-195.5 -58.5q-139 0 -196.5 58.5t-57.5 200.5q0 143 57.5 202t196.5 59zM294 396q-59 0 -79 -30t-20 -120q0 -88 20 -118t79 -30q57 0 77.5 30t20.5 118q0 89 -20 119.5
t-78 30.5z" />
    <glyph glyph-name="ocircumflex" unicode="&#xf4;" horiz-adv-x="587" 
d="M481 592l-42 -55l-140 95h-8l-143 -95l-41 58l134 132h107zM294 507q138 0 195.5 -59.5t57.5 -201.5t-57.5 -200.5t-195.5 -58.5q-139 0 -196.5 58.5t-57.5 200.5q0 143 57.5 202t196.5 59zM294 396q-59 0 -79 -30t-20 -120q0 -88 20 -118t79 -30q57 0 77.5 30t20.5 118
q0 89 -20 119.5t-78 30.5z" />
    <glyph glyph-name="otilde" unicode="&#xf5;" horiz-adv-x="587" 
d="M184 575h-64q-11 70 14.5 107t67.5 34q36 -3 86 -23.5t73 -24.5q24 -4 31.5 6t7.5 37h63q11 -68 -12.5 -105.5t-68.5 -34.5q-38 3 -90.5 24.5t-70.5 24.5q-23 3 -30 -7t-7 -38zM294 507q138 0 195.5 -59.5t57.5 -201.5t-57.5 -200.5t-195.5 -58.5q-139 0 -196.5 58.5
t-57.5 200.5q0 143 57.5 202t196.5 59zM294 396q-59 0 -79 -30t-20 -120q0 -88 20 -118t79 -30q57 0 77.5 30t20.5 118q0 89 -20 119.5t-78 30.5z" />
    <glyph glyph-name="odieresis" unicode="&#xf6;" horiz-adv-x="587" 
d="M178 704h49q32 0 32 -33v-58q0 -33 -32 -33h-49q-32 0 -32 33v58q0 33 32 33zM360 704h49q33 0 33 -33v-58q0 -33 -33 -33h-49q-33 0 -33 33v58q0 33 33 33zM294 507q138 0 195.5 -59.5t57.5 -201.5t-57.5 -200.5t-195.5 -58.5q-139 0 -196.5 58.5t-57.5 200.5
q0 143 57.5 202t196.5 59zM294 396q-59 0 -79 -30t-20 -120q0 -88 20 -118t79 -30q57 0 77.5 30t20.5 118q0 89 -20 119.5t-78 30.5z" />
    <glyph glyph-name="divide" unicode="&#xf7;" horiz-adv-x="553" 
d="M257 550h36q31 0 42.5 -11.5t11.5 -42.5v-34q0 -30 -11.5 -41.5t-42.5 -11.5h-36q-30 0 -41.5 11.5t-11.5 41.5v34q0 31 11.5 42.5t41.5 11.5zM506 241h-459v105h459v-105zM257 176h36q31 0 42.5 -11.5t11.5 -42.5v-33q0 -31 -11.5 -42.5t-42.5 -11.5h-36
q-30 0 -41.5 11.5t-11.5 42.5v33q0 31 11.5 42.5t41.5 11.5z" />
    <glyph glyph-name="oslash" unicode="&#xf8;" horiz-adv-x="587" 
d="M498 546l-37 -75q86 -55 86 -225q0 -142 -57.5 -200.5t-195.5 -58.5q-39 0 -64 4l-43 -90l-102 50l36 75q-81 55 -81 220q0 143 57.5 202t196.5 59q32 0 57 -3l45 93zM294 98q57 0 77.5 30t20.5 118q0 89 -20 119.5t-78 30.5q-59 0 -79 -30t-20 -120q0 -88 20 -118
t79 -30z" />
    <glyph glyph-name="ugrave" unicode="&#xf9;" 
d="M326 548l-226 109l68 102l201 -148zM529 493v-493h-117l-11 68q-102 -81 -204 -81q-139 0 -139 137v369h148v-324q-1 -32 11 -45t42 -13q43 0 123 41v341h147z" />
    <glyph glyph-name="uacute" unicode="&#xfa;" 
d="M257 548l-43 63l201 148l67 -102zM529 493v-493h-117l-11 68q-102 -81 -204 -81q-139 0 -139 137v369h148v-324q-1 -32 11 -45t42 -13q43 0 123 41v341h147z" />
    <glyph glyph-name="ucircumflex" unicode="&#xfb;" 
d="M151 544l-41 58l134 132h107l133 -135l-42 -55l-140 95h-8zM529 493v-493h-117l-11 68q-102 -81 -204 -81q-139 0 -139 137v369h148v-324q-1 -32 11 -45t42 -13q43 0 123 41v341h147z" />
    <glyph glyph-name="udieresis" unicode="&#xfc;" 
d="M230 588h-49q-32 0 -32 33v57q0 33 32 33h49q32 0 32 -33v-57q0 -33 -32 -33zM412 588h-49q-33 0 -33 33v57q0 33 33 33h49q33 0 33 -33v-57q0 -33 -33 -33zM529 493v-493h-117l-11 68q-102 -81 -204 -81q-139 0 -139 137v369h148v-324q-1 -32 11 -45t42 -13q43 0 123 41
v341h147z" />
    <glyph glyph-name="yacute" unicode="&#xfd;" horiz-adv-x="562" 
d="M244 540l-43 64l201 148l67 -102zM554 493l-175 -500q-14 -40 -34.5 -74t-52.5 -65.5t-79.5 -46.5t-105.5 -8l-12 87q60 16 94 41.5t53 68.5l2 4h-28q-37 0 -48 36l-161 457h158l92 -319q9 -35 15 -74h13q3 12 10 37.5t10 36.5l91 319h158z" />
    <glyph glyph-name="thorn" unicode="&#xfe;" horiz-adv-x="594" 
d="M209 700v-135q0 -55 -5 -120q68 60 170 60q95 0 136.5 -64t41.5 -199q0 -144 -43 -199.5t-140 -55.5q-96 0 -164 41q4 -43 4 -99v-119h-148v890h148zM209 348v-230q62 -24 104 -24q49 0 68 30t19 117q0 89 -18.5 119.5t-64.5 30.5t-108 -43z" />
    <glyph glyph-name="ydieresis" unicode="&#xff;" horiz-adv-x="562" 
d="M217 580h-49q-32 0 -32 33v58q0 33 32 33h49q32 0 32 -33v-58q0 -33 -32 -33zM399 580h-49q-33 0 -33 33v58q0 33 33 33h49q32 0 32 -33v-58q0 -33 -32 -33zM554 493l-175 -500q-14 -40 -34.5 -74t-52.5 -65.5t-79.5 -46.5t-105.5 -8l-12 87q60 16 94 41.5t53 68.5l2 4
h-28q-37 0 -48 36l-161 457h158l92 -319q9 -35 15 -74h13q3 12 10 37.5t10 36.5l91 319h158z" />
    <glyph glyph-name="Amacron" unicode="&#x100;" horiz-adv-x="650" 
d="M476 776h-299v96h299v-96zM444 181h-237l-50 -181h-156l199 650q4 18 19 29t34 11h144q43 0 53 -40l199 -650h-155zM411 299l-58 211q-12 50 -14 65h-27q-2 -10 -7 -32t-8 -33l-58 -211h172z" />
    <glyph glyph-name="amacron" unicode="&#x101;" horiz-adv-x="567" 
d="M433 594h-299v95h299v-95zM74 383l-14 100q133 24 257 24q100 0 147 -40.5t47 -140.5v-326h-117l-15 75q-74 -87 -182 -87q-71 0 -116 37.5t-45 104.5v50q0 59 40 92t111 33h176v22q-1 38 -17.5 51t-63.5 13q-82 0 -208 -8zM182 169v-19q0 -51 58 -51q60 0 123 48v69
h-133q-48 -1 -48 -47z" />
    <glyph glyph-name="Abreve" unicode="&#x102;" horiz-adv-x="650" 
d="M419 901l71 -10q8 -64 -38 -107.5t-126 -43.5q-81 0 -127 43.5t-38 107.5l70 10q0 -64 95 -64q93 0 93 64zM444 181h-237l-50 -181h-156l199 650q4 18 19 29t34 11h144q43 0 53 -40l199 -650h-155zM411 299l-58 211q-12 50 -14 65h-27q-2 -10 -7 -32t-8 -33l-58 -211h172
z" />
    <glyph glyph-name="abreve" unicode="&#x103;" horiz-adv-x="567" 
d="M376 719l70 -10q8 -64 -37.5 -107.5t-125.5 -43.5q-81 0 -127 43.5t-38 107.5l70 10q0 -65 95 -65q93 0 93 65zM74 383l-14 100q133 24 257 24q100 0 147 -40.5t47 -140.5v-326h-117l-15 75q-74 -87 -182 -87q-71 0 -116 37.5t-45 104.5v50q0 59 40 92t111 33h176v22
q-1 38 -17.5 51t-63.5 13q-82 0 -208 -8zM182 169v-19q0 -51 58 -51q60 0 123 48v69h-133q-48 -1 -48 -47z" />
    <glyph glyph-name="Aogonek" unicode="&#x104;" horiz-adv-x="650" 
d="M652 -138l12 -55q-106 -36 -150.5 -7t-23.5 89q17 55 97 111h-93l-50 181h-237l-50 -181h-156l199 650q4 18 19 29t34 11h144q43 0 53 -40l199 -650q-43 -60 -60 -100q-14 -30 5.5 -39.5t57.5 1.5zM411 299l-58 211q-12 50 -14 65h-27q-2 -10 -7 -32t-8 -33l-58 -211h172
z" />
    <glyph glyph-name="aogonek" unicode="&#x105;" horiz-adv-x="567" 
d="M514 -138l12 -55q-106 -36 -150.5 -7t-23.5 89q17 55 97 111h-55l-15 75q-74 -87 -182 -87q-71 0 -116 37.5t-45 104.5v50q0 59 40 92t111 33h176v22q-1 38 -17.5 51t-63.5 13q-82 0 -208 -8l-14 100q133 24 257 24q100 0 147 -40.5t47 -140.5v-326q-42 -57 -60 -100
q-14 -30 5.5 -39.5t57.5 1.5zM182 169v-19q0 -51 58 -51q60 0 123 48v69h-133q-48 -1 -48 -47z" />
    <glyph glyph-name="Cacute" unicode="&#x106;" horiz-adv-x="586" 
d="M514 832l-225 -109l-43 63l201 149zM545 129l13 -113q-90 -28 -221 -28q-160 0 -225 80t-65 277t65 277t225 80q116 0 207 -23l-13 -114q-81 5 -194 5q-75 0 -102.5 -47.5t-27.5 -177.5t27.5 -177.5t102.5 -47.5q139 0 208 9z" />
    <glyph glyph-name="cacute" unicode="&#x107;" horiz-adv-x="507" 
d="M461 650l-225 -110l-44 64l202 148zM465 117l13 -96q-76 -33 -191 -33q-136 0 -191.5 58.5t-55.5 200.5q0 143 56 201.5t193 58.5q112 0 182 -31l-16 -92q-108 2 -141 2q-68 0 -93.5 -29t-25.5 -110t25.5 -110t93.5 -29q87 0 151 9z" />
    <glyph glyph-name="Cdotaccent" unicode="&#x10a;" horiz-adv-x="586" 
d="M307 887h45q42 0 42 -41v-52q0 -41 -42 -41h-45q-42 0 -42 41v52q0 41 42 41zM545 129l13 -113q-90 -28 -221 -28q-160 0 -225 80t-65 277t65 277t225 80q116 0 207 -23l-13 -114q-81 5 -194 5q-75 0 -102.5 -47.5t-27.5 -177.5t27.5 -177.5t102.5 -47.5q139 0 208 9z
" />
    <glyph glyph-name="cdotaccent" unicode="&#x10b;" horiz-adv-x="507" 
d="M254 704h45q42 0 42 -41v-52q0 -41 -42 -41h-45q-42 0 -42 41v52q0 41 42 41zM465 117l13 -96q-76 -33 -191 -33q-136 0 -191.5 58.5t-55.5 200.5q0 143 56 201.5t193 58.5q112 0 182 -31l-16 -92q-108 2 -141 2q-68 0 -93.5 -29t-25.5 -110t25.5 -110t93.5 -29
q87 0 151 9z" />
    <glyph glyph-name="Ccaron" unicode="&#x10c;" horiz-adv-x="586" 
d="M513 870l-152 -131h-62l-152 131l41 58l138 -79h8l138 79zM545 129l13 -113q-90 -28 -221 -28q-160 0 -225 80t-65 277t65 277t225 80q116 0 207 -23l-13 -114q-81 5 -194 5q-75 0 -102.5 -47.5t-27.5 -177.5t27.5 -177.5t102.5 -47.5q139 0 208 9z" />
    <glyph glyph-name="ccaron" unicode="&#x10d;" horiz-adv-x="507" 
d="M460 688l-153 -131h-61l-152 131l40 58l139 -80h8l138 80zM465 117l13 -96q-76 -33 -191 -33q-136 0 -191.5 58.5t-55.5 200.5q0 143 56 201.5t193 58.5q112 0 182 -31l-16 -92q-108 2 -141 2q-68 0 -93.5 -29t-25.5 -110t25.5 -110t93.5 -29q87 0 151 9z" />
    <glyph glyph-name="Dcaron" unicode="&#x10e;" horiz-adv-x="680" 
d="M298 739l-152 131l41 58l138 -79h8l138 79l41 -58l-152 -131h-62zM70 0v690q142 9 268 9q165 0 229.5 -76t64.5 -278t-64.5 -278t-229.5 -76q-126 0 -268 9zM222 579v-467q17 0 55.5 -0.5t60.5 -0.5q77 0 105.5 49t28.5 185t-28.5 185.5t-105.5 49.5z" />
    <glyph glyph-name="dcaron" unicode="&#x10f;" horiz-adv-x="594" 
d="M696 665v-47q0 -74 -43 -133l-54 13q13 40 13 94q-36 0 -36 33l1 40q1 21 11 29t34 8h30q25 0 34.5 -8t9.5 -29zM385 700h148v-700h-117l-12 72q-71 -84 -188 -84q-92 0 -133.5 66.5t-41.5 196.5q0 142 46 199t143 57q95 0 160 -44q-5 55 -5 103v134zM385 150v228
q-67 19 -105 19q-50 0 -68.5 -28t-18.5 -117q0 -85 18 -113.5t64 -28.5q31 0 53 8.5t57 31.5z" />
    <glyph glyph-name="Dcroat" unicode="&#x110;" horiz-adv-x="683" 
d="M73 400v290q142 9 269 9q164 0 228.5 -76t64.5 -278t-64.5 -278t-228.5 -76q-127 0 -269 9v323h-57v77h57zM225 323v-211q17 0 56 -0.5t61 -0.5q77 0 105 49.5t28 184.5q0 136 -28 185.5t-105 49.5l-117 -1v-179h124v-77h-124z" />
    <glyph glyph-name="dcroat" unicode="&#x111;" 
d="M594 559h-61v-559h-117l-12 72q-71 -84 -188 -84q-92 0 -133.5 66.5t-41.5 196.5q0 142 46 199t143 57q95 0 160 -44q-5 52 -5 96h-130v70h130v71h148v-71h61v-70zM385 150v228q-67 19 -105 19q-50 0 -68.5 -28t-18.5 -117q0 -85 18 -113.5t64 -28.5q31 0 53 8.5t57 31.5
z" />
    <glyph glyph-name="Emacron" unicode="&#x112;" horiz-adv-x="576" 
d="M465 788h-299v95h299v-95zM529 119l7 -112q-94 -10 -320 -10q-69 0 -110 37.5t-42 101.5v418q1 64 42 101.5t110 37.5q226 0 320 -10l-7 -113h-265q-25 0 -36 -12t-11 -39v-105h275v-110h-275v-133q0 -28 11 -40t36 -12h265z" />
    <glyph glyph-name="emacron" unicode="&#x113;" horiz-adv-x="560" 
d="M443 594h-299v95h299v-95zM375 197h-178q7 -54 32.5 -72.5t84.5 -18.5q79 0 184 11l14 -92q-77 -37 -215 -37q-139 0 -198 60t-59 198q0 145 57.5 203t193.5 58q123 0 178 -42.5t56 -129.5q0 -69 -35.5 -103.5t-114.5 -34.5zM194 286h140q27 0 36.5 13t9.5 38
q0 35 -18 48.5t-66 13.5q-57 0 -78 -22.5t-24 -90.5z" />
    <glyph glyph-name="Edotaccent" unicode="&#x116;" horiz-adv-x="576" 
d="M338 764h-45q-42 0 -42 41v52q0 41 42 41h45q42 0 42 -41v-52q0 -41 -42 -41zM529 119l7 -112q-94 -10 -320 -10q-69 0 -110 37.5t-42 101.5v418q1 64 42 101.5t110 37.5q226 0 320 -10l-7 -113h-265q-25 0 -36 -12t-11 -39v-105h275v-110h-275v-133q0 -28 11 -40t36 -12
h265z" />
    <glyph glyph-name="edotaccent" unicode="&#x117;" horiz-adv-x="560" 
d="M316 570h-45q-42 0 -42 41v52q0 41 42 41h45q42 0 42 -41v-52q0 -41 -42 -41zM375 197h-178q7 -54 32.5 -72.5t84.5 -18.5q79 0 184 11l14 -92q-77 -37 -215 -37q-139 0 -198 60t-59 198q0 145 57.5 203t193.5 58q123 0 178 -42.5t56 -129.5q0 -69 -35.5 -103.5
t-114.5 -34.5zM194 286h140q27 0 36.5 13t9.5 38q0 35 -18 48.5t-66 13.5q-57 0 -78 -22.5t-24 -90.5z" />
    <glyph glyph-name="Eogonek" unicode="&#x118;" horiz-adv-x="576" 
d="M539 -131l12 -54q-73 -28 -115 -20t-57 36t-2 65q17 54 89 106q-79 -5 -250 -5q-69 0 -110 37.5t-42 101.5v418q1 64 42 101.5t110 37.5q226 0 320 -10l-7 -113h-265q-25 0 -36 -12t-11 -39v-105h275v-110h-275v-133q0 -28 11 -40t36 -12h265l7 -112q-43 -60 -60 -100
q-14 -30 5.5 -39.5t57.5 1.5z" />
    <glyph glyph-name="eogonek" unicode="&#x119;" horiz-adv-x="560" 
d="M514 -113l13 -55q-73 -27 -115.5 -19t-57.5 36t-2 65q14 41 61 83q-50 -9 -116 -9q-139 0 -198 60t-59 198q0 145 57.5 203t193.5 58q123 0 178 -42.5t56 -129.5q0 -69 -35.5 -103.5t-114.5 -34.5h-178q7 -54 32.5 -72.5t84.5 -18.5q79 0 184 11l14 -92q-44 -62 -61 -101
q-13 -29 6 -38.5t57 1.5zM194 286h140q27 0 36.5 13t9.5 38q0 35 -18 48.5t-66 13.5q-57 0 -78 -22.5t-24 -90.5z" />
    <glyph glyph-name="Ecaron" unicode="&#x11a;" horiz-adv-x="576" 
d="M285 751l-152 131l40 58l139 -80h8l138 80l41 -58l-153 -131h-61zM529 119l7 -112q-94 -10 -320 -10q-69 0 -110 37.5t-42 101.5v418q1 64 42 101.5t110 37.5q226 0 320 -10l-7 -113h-265q-25 0 -36 -12t-11 -39v-105h275v-110h-275v-133q0 -28 11 -40t36 -12h265z" />
    <glyph glyph-name="ecaron" unicode="&#x11b;" horiz-adv-x="560" 
d="M263 557l-152 131l40 58l139 -80h8l138 80l41 -58l-153 -131h-61zM375 197h-178q7 -54 32.5 -72.5t84.5 -18.5q79 0 184 11l14 -92q-77 -37 -215 -37q-139 0 -198 60t-59 198q0 145 57.5 203t193.5 58q123 0 178 -42.5t56 -129.5q0 -69 -35.5 -103.5t-114.5 -34.5z
M194 286h140q27 0 36.5 13t9.5 38q0 35 -18 48.5t-66 13.5q-57 0 -78 -22.5t-24 -90.5z" />
    <glyph glyph-name="Gbreve" unicode="&#x11e;" horiz-adv-x="645" 
d="M431 901l71 -10q8 -64 -37.5 -107.5t-126.5 -43.5t-127 43.5t-38 107.5l71 10q-1 -32 22.5 -48t71.5 -16q93 0 93 64zM592 398v-398h-112l-14 69q-80 -82 -199 -82q-116 0 -168 85t-52 275q0 202 68.5 279t240.5 77q125 0 212 -24l-12 -112q-113 5 -195 5
q-46 0 -72.5 -7.5t-46.5 -32.5t-27 -69.5t-7 -120.5q0 -129 24 -177t89 -48q60 0 124 35v246h147z" />
    <glyph glyph-name="gbreve" unicode="&#x11f;" horiz-adv-x="579" 
d="M374 719l70 -10q8 -64 -37.5 -107.5t-126.5 -43.5t-126.5 43.5t-37.5 107.5l70 10q0 -65 95 -65q93 0 93 65zM559 428l-62 -8q12 -28 12 -71q0 -86 -51.5 -122t-180.5 -36q-43 0 -85 5q-12 -16 -4.5 -36t33.5 -23l179 -21q76 -9 109.5 -44t33.5 -103q0 -94 -56.5 -127
t-202.5 -33q-152 0 -206 31.5t-54 115.5q0 38 17.5 62.5t60.5 44.5q-34 33 -27.5 81.5t43.5 70.5q-73 34 -73 133q0 87 52 123t181 36q78 0 129 -14h159zM277 285q54 0 74.5 14t20.5 50q0 37 -20 50t-75 13t-75.5 -13t-20.5 -50q0 -36 20.5 -50t75.5 -14zM321 19l-124 13
q-32 -26 -32 -57q0 -36 22 -46t95 -10t96.5 10.5t23.5 43.5q0 26 -15 33t-66 13z" />
    <glyph glyph-name="Gdotaccent" unicode="&#x120;" horiz-adv-x="645" 
d="M361 753h-45q-42 0 -42 41v52q0 41 42 41h45q42 0 42 -41v-52q0 -41 -42 -41zM592 398v-398h-112l-14 69q-80 -82 -199 -82q-116 0 -168 85t-52 275q0 202 68.5 279t240.5 77q125 0 212 -24l-12 -112q-113 5 -195 5q-46 0 -72.5 -7.5t-46.5 -32.5t-27 -69.5t-7 -120.5
q0 -129 24 -177t89 -48q60 0 124 35v246h147z" />
    <glyph glyph-name="gdotaccent" unicode="&#x121;" horiz-adv-x="579" 
d="M303 570h-45q-42 0 -42 41v52q0 41 42 41h45q42 0 42 -41v-52q0 -41 -42 -41zM559 428l-62 -8q12 -28 12 -71q0 -86 -51.5 -122t-180.5 -36q-43 0 -85 5q-12 -16 -4.5 -36t33.5 -23l179 -21q76 -9 109.5 -44t33.5 -103q0 -94 -56.5 -127t-202.5 -33q-152 0 -206 31.5
t-54 115.5q0 38 17.5 62.5t60.5 44.5q-34 33 -27.5 81.5t43.5 70.5q-73 34 -73 133q0 87 52 123t181 36q78 0 129 -14h159zM277 285q54 0 74.5 14t20.5 50q0 37 -20 50t-75 13t-75.5 -13t-20.5 -50q0 -36 20.5 -50t75.5 -14zM321 19l-124 13q-32 -26 -32 -57q0 -36 22 -46
t95 -10t96.5 10.5t23.5 43.5q0 26 -15 33t-66 13z" />
    <glyph glyph-name="Gcommaaccent" unicode="&#x122;" horiz-adv-x="645" 
d="M592 398v-398h-112l-14 69q-80 -82 -199 -82q-116 0 -168 85t-52 275q0 202 68.5 279t240.5 77q125 0 212 -24l-12 -112q-113 5 -195 5q-46 0 -72.5 -7.5t-46.5 -32.5t-27 -69.5t-7 -120.5q0 -129 24 -177t89 -48q60 0 124 35v246h147zM320 -52h32q26 0 36 -9.5t10 -32.5
v-52q0 -81 -46 -146l-56 14q13 45 13 104q-38 0 -38 37l1 43q1 23 11.5 32.5t36.5 9.5z" />
    <glyph glyph-name="gcommaaccent" unicode="&#x123;" horiz-adv-x="579" 
d="M309 551h-31q-26 0 -36.5 9t-10.5 33v51q0 80 46 147l56 -15q-13 -49 -13 -103q38 0 38 -37l-1 -43q-1 -24 -11.5 -33t-36.5 -9zM559 428l-62 -8q12 -28 12 -71q0 -86 -51.5 -122t-180.5 -36q-43 0 -85 5q-12 -16 -4.5 -36t33.5 -23l179 -21q76 -9 109.5 -44t33.5 -103
q0 -94 -56.5 -127t-202.5 -33q-152 0 -206 31.5t-54 115.5q0 38 17.5 62.5t60.5 44.5q-34 33 -27.5 81.5t43.5 70.5q-73 34 -73 133q0 87 52 123t181 36q78 0 129 -14h159zM277 285q54 0 74.5 14t20.5 50q0 37 -20 50t-75 13t-75.5 -13t-20.5 -50q0 -36 20.5 -50t75.5 -14z
M321 19l-124 13q-32 -26 -32 -57q0 -36 22 -46t95 -10t96.5 10.5t23.5 43.5q0 26 -15 33t-66 13z" />
    <glyph glyph-name="Hbar" unicode="&#x126;" horiz-adv-x="693" 
d="M681 513h-60v-513h-153v308h-243v-308h-152v513h-60v72h60v105h152v-105h243v105h153v-105h60v-72zM468 513h-243v-87h243v87z" />
    <glyph glyph-name="hbar" unicode="&#x127;" horiz-adv-x="603" 
d="M213 559v-30q0 -59 -9 -103q104 81 202 81q68 0 103.5 -35t35.5 -102v-370h-148v324q0 33 -10 45.5t-37 12.5q-52 0 -138 -45v-337h-148v559h-65v70h65v71h149v-71h125v-70h-125z" />
    <glyph glyph-name="Imacron" unicode="&#x12a;" horiz-adv-x="292" 
d="M296 776h-299v96h299v-96zM222 0h-152v690h152v-690z" />
    <glyph glyph-name="imacron" unicode="&#x12b;" horiz-adv-x="278" 
d="M290 594h-300v95h300v-95zM213 0h-148v493h148v-493z" />
    <glyph glyph-name="Iogonek" unicode="&#x12e;" horiz-adv-x="292" 
d="M222 0h-19q-42 -57 -61 -100q-13 -30 6 -39.5t57 1.5l13 -55q-73 -27 -115.5 -19t-57.5 36t-2 65q20 57 98 111h-71v690h152v-690z" />
    <glyph glyph-name="iogonek" unicode="&#x12f;" horiz-adv-x="278" 
d="M162 570h-45q-42 0 -42 41v52q0 41 42 41h45q42 0 42 -41v-52q0 -41 -42 -41zM202 -138l13 -55q-73 -27 -115.5 -19t-57.5 36t-2 65q20 57 98 111h-73v493h148v-493h-13q-42 -57 -61 -100q-13 -30 6 -39.5t57 1.5z" />
    <glyph glyph-name="Idotaccent" unicode="&#x130;" horiz-adv-x="292" 
d="M124 887h45q42 0 42 -41v-52q0 -41 -42 -41h-45q-42 0 -42 41v52q0 41 42 41zM222 0h-152v690h152v-690z" />
    <glyph glyph-name="dotlessi" unicode="&#x131;" horiz-adv-x="278" 
d="M213 0h-148v493h148v-493z" />
    <glyph glyph-name="IJ" unicode="&#x132;" horiz-adv-x="660" 
d="M222 0h-152v690h152v-690zM593 690v-545q0 -75 -40.5 -116t-114.5 -41q-83 0 -126 20l16 102h47q67 0 67 53v527h151z" />
    <glyph glyph-name="ij" unicode="&#x133;" horiz-adv-x="554" 
d="M382 715h66q42 0 42 -43v-54q0 -43 -42 -43h-66q-43 0 -43 43v54q0 43 43 43zM105 711h66q43 0 43 -43v-54q0 -43 -43 -43h-66q-43 0 -43 43v54q0 43 43 43zM212 0h-147v493h147v-493zM489 493v-470q0 -69 -34 -128.5t-92 -91.5l-82 65q61 69 61 155v470h147z" />
    <glyph glyph-name="Kcommaaccent" unicode="&#x136;" horiz-adv-x="631" 
d="M626 0h-170l-182 304h-59q7 -40 7 -66v-238h-152v690h152v-195q0 -44 -7 -82h59l175 277h165l-178 -275q-17 -30 -50 -55v-4q36 -25 58 -61zM314 -52h32q26 0 36 -9.5t11 -32.5v-52q-1 -81 -47 -146l-56 14q12 43 14 104q-37 0 -39 37l1 43q2 23 12.5 32.5t35.5 9.5z" />
    <glyph glyph-name="kcommaaccent" unicode="&#x137;" horiz-adv-x="557" 
d="M553 0h-166l-138 229h-47q7 -45 7 -74v-155h-148v700h148v-289q0 -49 -7 -90h46l122 172h166l-128 -171q-16 -27 -46 -47v-2q25 -17 46 -53zM276 -48h32q26 0 36 -9.5t10 -32.5v-52q0 -81 -46 -146l-56 14q13 46 13 104q-38 0 -38 36l1 44q1 23 11.5 32.5t36.5 9.5z" />
    <glyph glyph-name="Lacute" unicode="&#x139;" horiz-adv-x="532" 
d="M333 832l-226 -109l-43 63l201 149zM220 690v-515q0 -27 12.5 -39t41.5 -12h237l7 -116q-101 -11 -292 -11q-80 0 -119 40t-39 107v546h152z" />
    <glyph glyph-name="lacute" unicode="&#x13a;" horiz-adv-x="327" 
d="M325 847l-225 -109l-44 63l201 148zM209 700v-539q0 -50 56 -50h40l17 -103q-38 -20 -118 -20q-66 0 -104 35.5t-38 100.5v576h147z" />
    <glyph glyph-name="Lcommaaccent" unicode="&#x13b;" horiz-adv-x="532" 
d="M220 690v-515q0 -27 12.5 -39t41.5 -12h237l7 -116q-101 -11 -292 -11q-80 0 -119 40t-39 107v546h152zM279 -52h31q26 0 36.5 -9.5t10.5 -32.5v-52q-1 -81 -47 -146l-56 14q14 49 14 104q-38 0 -38 37l1 43q1 23 11.5 32.5t36.5 9.5z" />
    <glyph glyph-name="lcommaaccent" unicode="&#x13c;" horiz-adv-x="327" 
d="M209 700v-539q0 -50 56 -50h40l17 -103q-38 -20 -118 -20q-66 0 -104 35.5t-38 100.5v576h147zM166 -52h32q25 0 35.5 -9.5t10.5 -32.5v-52q0 -79 -46 -146l-56 14q13 51 13 104q-38 0 -38 37l1 43q1 23 11.5 32.5t36.5 9.5z" />
    <glyph glyph-name="Lcaron" unicode="&#x13d;" horiz-adv-x="532" 
d="M355 691h32q26 0 36 -9t11 -32v-52q-1 -81 -47 -147l-56 15q13 44 13 104q-36 0 -38 36l1 44q1 23 11.5 32t36.5 9zM220 690v-515q0 -27 12.5 -39t41.5 -12h237l7 -116q-101 -11 -292 -11q-80 0 -119 40t-39 107v546h152z" />
    <glyph glyph-name="lcaron" unicode="&#x13e;" horiz-adv-x="327" 
d="M298 702h30q25 0 34.5 -8t9.5 -29v-47q0 -73 -44 -133l-53 13q11 39 13 94q-35 0 -37 33l1 40q2 21 11.5 29t34.5 8zM209 700v-539q0 -50 56 -50h40l17 -103q-38 -20 -118 -20q-66 0 -104 35.5t-38 100.5v576h147z" />
    <glyph glyph-name="Ldot" unicode="&#x13f;" horiz-adv-x="532" 
d="M220 690v-515q0 -27 12.5 -39t41.5 -12h237l7 -116q-101 -11 -292 -11q-80 0 -119 40t-39 107v546h152zM435 342h-46q-42 0 -42 41v52q0 41 42 41h46q42 0 42 -41v-52q0 -41 -42 -41z" />
    <glyph glyph-name="ldot" unicode="&#x140;" horiz-adv-x="388" 
d="M209 700v-539q0 -50 56 -50h40l17 -103q-38 -20 -118 -20q-66 0 -104 35.5t-38 100.5v576h147zM351 323h-46q-42 0 -42 41v52q0 41 42 41h46q41 0 41 -41v-52q0 -41 -41 -41z" />
    <glyph glyph-name="Lslash" unicode="&#x141;" horiz-adv-x="536" 
d="M515 124l7 -116q-101 -11 -292 -11q-80 0 -119 40t-39 107v167l-58 -24v82l58 23v298h152v-237l109 43v-82l-109 -43v-196q0 -27 12.5 -39t41.5 -12h237z" />
    <glyph glyph-name="lslash" unicode="&#x142;" horiz-adv-x="358" 
d="M329 111l17 -103q-38 -20 -117 -20q-67 0 -105 35.5t-38 100.5v185l-74 -30v82l74 30v309h147v-250l96 38v-82l-96 -38v-207q0 -50 56 -50h40z" />
    <glyph glyph-name="Nacute" unicode="&#x143;" horiz-adv-x="722" 
d="M553 832l-225 -109l-44 63l201 149zM652 690v-635q0 -55 -54 -55h-95q-23 0 -36 10.5t-25 34.5l-181 368q-34 73 -42 107h-11q7 -50 7 -110v-410h-145v635q0 55 55 55h93q23 0 36 -10.5t25 -34.5l175 -357q25 -50 50 -111h10q-6 78 -6 116v397h144z" />
    <glyph glyph-name="nacute" unicode="&#x144;" horiz-adv-x="599" 
d="M267 540l-44 64l202 148l67 -102zM181 493l11 -73q107 87 211 87q67 0 102.5 -35t35.5 -102v-370h-147v324q0 33 -10.5 45.5t-37.5 12.5q-47 0 -137 -45v-337h-148v493h120z" />
    <glyph glyph-name="Ncommaaccent" unicode="&#x145;" horiz-adv-x="722" 
d="M652 690v-635q0 -55 -54 -55h-95q-23 0 -36 10.5t-25 34.5l-181 368q-34 73 -42 107h-11q7 -50 7 -110v-410h-145v635q0 55 55 55h93q23 0 36 -10.5t25 -34.5l175 -357q25 -50 50 -111h10q-6 78 -6 116v397h144zM342 -52h31q26 0 36.5 -9.5t10.5 -32.5v-52
q-1 -81 -47 -146l-55 14q13 51 13 104q-38 0 -38 37l1 43q1 23 11.5 32.5t36.5 9.5z" />
    <glyph glyph-name="ncommaaccent" unicode="&#x146;" horiz-adv-x="599" 
d="M181 493l11 -73q107 87 211 87q67 0 102.5 -35t35.5 -102v-370h-147v324q0 33 -10.5 45.5t-37.5 12.5q-47 0 -137 -45v-337h-148v493h120zM279 -48h31q26 0 36.5 -9.5t10.5 -32.5v-52q-1 -81 -46 -146l-56 14q13 51 13 104q-38 0 -38 36l1 44q1 23 11.5 32.5t36.5 9.5z
" />
    <glyph glyph-name="Ncaron" unicode="&#x147;" horiz-adv-x="722" 
d="M552 870l-153 -131h-61l-153 131l41 58l138 -79h8l138 79zM652 690v-635q0 -55 -54 -55h-95q-23 0 -36 10.5t-25 34.5l-181 368q-34 73 -42 107h-11q7 -50 7 -110v-410h-145v635q0 55 55 55h93q23 0 36 -10.5t25 -34.5l175 -357q25 -50 50 -111h10q-6 78 -6 116v397h144z
" />
    <glyph glyph-name="ncaron" unicode="&#x148;" horiz-adv-x="599" 
d="M277 557l-152 131l41 58l138 -80h8l138 80l41 -58l-153 -131h-61zM181 493l11 -73q107 87 211 87q67 0 102.5 -35t35.5 -102v-370h-147v324q0 33 -10.5 45.5t-37.5 12.5q-47 0 -137 -45v-337h-148v493h120z" />
    <glyph glyph-name="Eng" unicode="&#x14a;" horiz-adv-x="722" 
d="M652 690v-746q0 -73 -38.5 -114t-102.5 -40q-69 0 -116 19l16 96h42q63 0 63 51v48h-24q-15 0 -36 39l-195 358q-19 35 -44 107h-9q7 -50 7 -107v-401h-145v635q0 55 55 55h79q23 0 36 -10t27 -35l186 -345q22 -40 50 -111h10q-6 57 -6 113v388h145z" />
    <glyph glyph-name="eng" unicode="&#x14b;" horiz-adv-x="599" 
d="M176 493l13 -75q107 89 213 89q139 0 139 -137v-416q0 -74 -36 -114t-104 -40q-76 0 -118 19l16 96h39q56 0 56 52v357q0 30 -11 41.5t-39 11.5q-48 0 -135 -41v-336h-148v493h115z" />
    <glyph glyph-name="Omacron" unicode="&#x14c;" horiz-adv-x="684" 
d="M491 776h-299v96h299v-96zM342 703q166 0 231 -76.5t65 -281.5t-65 -281.5t-231 -76.5t-230.5 76.5t-64.5 281.5t64.5 281.5t230.5 76.5zM342 580q-78 0 -106.5 -49t-28.5 -186t28.5 -186t106.5 -49t106.5 49t28.5 186t-28.5 186t-106.5 49z" />
    <glyph glyph-name="omacron" unicode="&#x14d;" horiz-adv-x="587" 
d="M444 594h-299v95h299v-95zM294 507q138 0 195.5 -59.5t57.5 -201.5t-57.5 -200.5t-195.5 -58.5q-139 0 -196.5 58.5t-57.5 200.5q0 143 57.5 202t196.5 59zM294 396q-59 0 -79 -30t-20 -120q0 -88 20 -118t79 -30q57 0 77.5 30t20.5 118q0 89 -20 119.5t-78 30.5z" />
    <glyph glyph-name="Ohungarumlaut" unicode="&#x150;" horiz-adv-x="684" 
d="M576 881l-153 -167l-59 47l114 186zM386 881l-152 -167l-60 48l115 185zM342 703q166 0 231 -76.5t65 -281.5t-65 -281.5t-231 -76.5t-230.5 76.5t-64.5 281.5t64.5 281.5t230.5 76.5zM342 580q-78 0 -106.5 -49t-28.5 -186t28.5 -186t106.5 -49t106.5 49t28.5 186
t-28.5 186t-106.5 49z" />
    <glyph glyph-name="ohungarumlaut" unicode="&#x151;" horiz-adv-x="587" 
d="M529 699l-153 -167l-59 47l114 185zM339 699l-152 -167l-60 47l115 185zM294 507q138 0 195.5 -59.5t57.5 -201.5t-57.5 -200.5t-195.5 -58.5q-139 0 -196.5 58.5t-57.5 200.5q0 143 57.5 202t196.5 59zM294 396q-59 0 -79 -30t-20 -120q0 -88 20 -118t79 -30
q57 0 77.5 30t20.5 118q0 89 -20 119.5t-78 30.5z" />
    <glyph glyph-name="OE" unicode="&#x152;" horiz-adv-x="945" 
d="M898 119l7 -112q-94 -10 -323 -10q-42 0 -77 22q-68 -32 -165 -32q-111 0 -173 32t-91 109t-29 217t29 217t91 109t173 32q97 0 175 -29q33 19 73 19q225 0 317 -10l-7 -113h-247q-28 0 -40.5 -12t-12.5 -39v-106h264v-108h-264v-134q0 -28 12.5 -40t40.5 -12h247z
M445 144v402q0 16 1 24q-45 10 -106 10q-77 0 -104.5 -48.5t-27.5 -186.5q0 -137 27.5 -186t104.5 -49q64 0 106 11q-1 8 -1 23z" />
    <glyph glyph-name="oe" unicode="&#x153;" horiz-adv-x="905" 
d="M698 200h-156q7 -57 32.5 -76t86.5 -19q81 0 181 12l14 -93q-77 -37 -213 -37q-117 0 -176 44q-57 -44 -175 -44q-138 0 -195 58.5t-57 200.5q0 143 57 202t195 59q115 0 173 -42q56 41 167 41q237 0 237 -164q0 -80 -38 -111t-133 -31zM540 286h132q32 0 43 12t10 46
q-2 29 -22.5 41.5t-67.5 12.5q-52 1 -72 -22t-23 -90zM292 98q54 0 75 25t23 96v28v28q-2 71 -23 96t-74 25q-58 0 -78 -30t-20 -120q0 -88 20 -118t77 -30z" />
    <glyph glyph-name="Racute" unicode="&#x154;" horiz-adv-x="643" 
d="M277 723l-44 63l202 149l67 -103zM614 0h-161l-52 211q-10 33 -26.5 45.5t-47.5 12.5l-107 1v-270h-150v690q93 9 263 9q139 0 197 -44t58 -160q0 -76 -30.5 -119t-101.5 -52v-5q79 -18 98 -104zM220 387h110q60 0 82 20.5t22 77.5t-21.5 77t-82.5 20l-110 -1v-194z" />
    <glyph glyph-name="racute" unicode="&#x155;" horiz-adv-x="425" 
d="M197 540l-43 64l201 148l67 -102zM176 493l13 -72q101 86 200 86h26l-15 -137h-40q-49 0 -151 -34v-336h-148v493h115z" />
    <glyph glyph-name="Rcommaaccent" unicode="&#x156;" horiz-adv-x="643" 
d="M614 0h-161l-52 211q-10 33 -26.5 45.5t-47.5 12.5l-107 1v-270h-150v690q93 9 263 9q139 0 197 -44t58 -160q0 -76 -30.5 -119t-101.5 -52v-5q79 -18 98 -104zM220 387h110q60 0 82 20.5t22 77.5t-21.5 77t-82.5 20l-110 -1v-194zM320 -52h32q26 0 36 -9.5t10 -32.5v-52
q0 -81 -46 -146l-56 14q13 45 13 104q-38 0 -38 37l1 43q2 23 12.5 32.5t35.5 9.5z" />
    <glyph glyph-name="rcommaaccent" unicode="&#x157;" horiz-adv-x="425" 
d="M415 507l-15 -137h-40q-49 0 -151 -34v-336h-148v493h115l13 -72q101 86 200 86h26zM109 -48h32q26 0 36 -9.5t10 -32.5v-52q0 -81 -46 -146l-56 14q13 45 13 104q-38 0 -38 36l1 44q2 23 12.5 32.5t35.5 9.5z" />
    <glyph glyph-name="Rcaron" unicode="&#x158;" horiz-adv-x="643" 
d="M287 739l-152 131l40 58l139 -79h8l138 79l41 -58l-153 -131h-61zM614 0h-161l-52 211q-10 33 -26.5 45.5t-47.5 12.5l-107 1v-270h-150v690q93 9 263 9q139 0 197 -44t58 -160q0 -76 -30.5 -119t-101.5 -52v-5q79 -18 98 -104zM220 387h110q60 0 82 20.5t22 77.5
t-21.5 77t-82.5 20l-110 -1v-194z" />
    <glyph glyph-name="rcaron" unicode="&#x159;" horiz-adv-x="425" 
d="M207 557l-152 131l41 58l138 -80h8l138 80l41 -58l-152 -131h-62zM176 493l13 -72q101 86 200 86h26l-15 -137h-40q-49 0 -151 -34v-336h-148v493h115z" />
    <glyph glyph-name="Sacute" unicode="&#x15a;" horiz-adv-x="582" 
d="M477 832l-225 -109l-44 63l202 149zM325 261l-139 49q-77 28 -110 76t-33 126q0 114 55.5 152.5t195.5 38.5q132 0 227 -27l-10 -104q-87 3 -216 3q-60 0 -80 -10.5t-20 -52.5q0 -34 15 -49t57 -29l131 -45q80 -28 113 -76.5t33 -126.5q0 -116 -56 -157.5t-200 -41.5
q-117 0 -237 26l9 110q213 -5 228 -5q61 0 81.5 13t20.5 54q0 35 -14 49.5t-51 26.5z" />
    <glyph glyph-name="sacute" unicode="&#x15b;" horiz-adv-x="527" 
d="M453 650l-225 -110l-44 64l202 148zM280 183l-123 33q-68 20 -94 54.5t-26 95.5q0 77 47.5 109t162.5 32q133 -2 228 -19l-10 -95q-126 2 -190 2q-35 0 -48.5 -0.5t-27 -3.5t-16.5 -9.5t-3 -19.5q0 -5 0.5 -9t2.5 -7.5t3.5 -5.5t5.5 -4.5t6.5 -3.5t9 -3.5t10 -3.5
t13 -3.5t14.5 -3.5l126 -34q66 -19 94 -50.5t28 -93.5q0 -88 -51 -119.5t-175 -31.5q-120 0 -221 17l9 96q36 -2 171 -2q77 0 100.5 6.5t23.5 30.5q0 5 -0.5 9t-2.5 7.5t-4 5.5t-6.5 4.5t-7 4t-9.5 4t-11 3.5l-14 3.5t-15 4.5z" />
    <glyph glyph-name="Scedilla" unicode="&#x15e;" horiz-adv-x="582" 
d="M325 261l-139 49q-77 28 -110 76t-33 126q0 114 55.5 152.5t195.5 38.5q132 0 227 -27l-10 -104q-87 3 -216 3q-60 0 -80 -10.5t-20 -52.5q0 -34 15 -49t57 -29l131 -45q80 -28 113 -76.5t33 -126.5q0 -116 -56 -157.5t-200 -41.5q-117 0 -237 26l9 110q213 -5 228 -5
q61 0 81.5 13t20.5 54q0 35 -14 49.5t-51 26.5zM222 -117l14 59q83 8 114.5 -3.5t30.5 -61.5q-3 -74 -59.5 -110.5t-140.5 -24.5l19 64q82 0 86 58q1 13 -10.5 16t-53.5 3z" />
    <glyph glyph-name="scedilla" unicode="&#x15f;" horiz-adv-x="527" 
d="M280 183l-123 33q-68 20 -94 54.5t-26 95.5q0 77 47.5 109t162.5 32q133 -2 228 -19l-10 -95q-126 2 -190 2q-35 0 -48.5 -0.5t-27 -3.5t-16.5 -9.5t-3 -19.5q0 -5 0.5 -9t2.5 -7.5t3.5 -5.5t5.5 -4.5t6.5 -3.5t9 -3.5t10 -3.5t13 -3.5t14.5 -3.5l126 -34
q66 -19 94 -50.5t28 -93.5q0 -88 -51 -119.5t-175 -31.5q-120 0 -221 17l9 96q36 -2 171 -2q77 0 100.5 6.5t23.5 30.5q0 5 -0.5 9t-2.5 7.5t-4 5.5t-6.5 4.5t-7 4t-9.5 4t-11 3.5l-14 3.5t-15 4.5zM185 -109l14 58q82 9 114 -3t30 -62q-3 -73 -59.5 -109.5t-140.5 -25.5
l19 65q37 -1 60.5 13.5t25.5 44.5q1 13 -10.5 16t-52.5 3z" />
    <glyph glyph-name="Scaron" unicode="&#x160;" horiz-adv-x="582" 
d="M476 870l-153 -131h-61l-152 131l40 58l139 -79h8l138 79zM325 261l-139 49q-77 28 -110 76t-33 126q0 114 55.5 152.5t195.5 38.5q132 0 227 -27l-10 -104q-87 3 -216 3q-60 0 -80 -10.5t-20 -52.5q0 -34 15 -49t57 -29l131 -45q80 -28 113 -76.5t33 -126.5
q0 -116 -56 -157.5t-200 -41.5q-117 0 -237 26l9 110q213 -5 228 -5q61 0 81.5 13t20.5 54q0 35 -14 49.5t-51 26.5z" />
    <glyph glyph-name="scaron" unicode="&#x161;" horiz-adv-x="527" 
d="M452 688l-153 -131h-61l-152 131l41 58l138 -80h8l138 80zM280 183l-123 33q-68 20 -94 54.5t-26 95.5q0 77 47.5 109t162.5 32q133 -2 228 -19l-10 -95q-126 2 -190 2q-35 0 -48.5 -0.5t-27 -3.5t-16.5 -9.5t-3 -19.5q0 -5 0.5 -9t2.5 -7.5t3.5 -5.5t5.5 -4.5t6.5 -3.5
t9 -3.5t10 -3.5t13 -3.5t14.5 -3.5l126 -34q66 -19 94 -50.5t28 -93.5q0 -88 -51 -119.5t-175 -31.5q-120 0 -221 17l9 96q36 -2 171 -2q77 0 100.5 6.5t23.5 30.5q0 5 -0.5 9t-2.5 7.5t-4 5.5t-6.5 4.5t-7 4t-9.5 4t-11 3.5l-14 3.5t-15 4.5z" />
    <glyph glyph-name="Tcedilla" unicode="&#x162;" horiz-adv-x="601" 
d="M583 690v-124h-206v-566h-153v566h-206v124h565zM225 -104l14 58q82 9 114 -3t30 -62q-3 -73 -59.5 -109.5t-140.5 -24.5l19 64q37 -1 60.5 13.5t25.5 44.5q1 13 -10.5 16t-52.5 3z" />
    <glyph glyph-name="tcedilla" unicode="&#x163;" horiz-adv-x="411" 
d="M253 394v-233q0 -28 12 -39t42 -11h63l16 -103q-57 -20 -139 -20q-67 0 -104 37.5t-37 104.5v264h-87v94l87 5v138h147v-138h137v-99h-137zM158 -110l14 59q82 9 114 -3t30 -62q-2 -74 -58.5 -110.5t-141.5 -24.5l19 64q82 0 86 58q1 12 -10.5 15.5t-52.5 3.5z" />
    <glyph glyph-name="Tcaron" unicode="&#x164;" horiz-adv-x="601" 
d="M270 739l-152 131l40 58l139 -79h8l138 79l41 -58l-153 -131h-61zM583 566h-206v-566h-153v566h-206v124h565v-124z" />
    <glyph glyph-name="tcaron" unicode="&#x165;" horiz-adv-x="411" 
d="M365 553l-56 14q13 51 13 104q-38 0 -38 37l1 43q1 23 11.5 32.5t36.5 9.5h32q25 0 35.5 -9.5t10.5 -32.5v-52q0 -79 -46 -146zM253 493h137v-99h-137v-233q0 -28 12 -39t42 -11h63l16 -103q-57 -20 -139 -20q-67 0 -104 37.5t-37 104.5v264h-87v94l87 5v138h147v-138z
" />
    <glyph glyph-name="Tbar" unicode="&#x166;" horiz-adv-x="603" 
d="M378 566v-154h127v-73h-127v-339h-153v339h-129v73h129v154h-206v124h565v-124h-206z" />
    <glyph glyph-name="tbar" unicode="&#x167;" horiz-adv-x="411" 
d="M253 394v-73h106v-72h-106v-88q0 -28 12 -39t42 -11h63l16 -103q-57 -20 -139 -20q-67 0 -104 37.5t-37 104.5v119h-60v72h60v73h-87v94l87 5v138h147v-138h137v-99h-137z" />
    <glyph glyph-name="Umacron" unicode="&#x16a;" horiz-adv-x="681" 
d="M491 776h-299v96h299v-96zM617 690v-415q0 -158 -60.5 -223t-208.5 -65q-156 0 -219.5 65t-63.5 223v415h152v-415q0 -95 26.5 -130t97.5 -35q70 0 96.5 35t26.5 130v415h153z" />
    <glyph glyph-name="umacron" unicode="&#x16b;" 
d="M447 601h-299v96h299v-96zM529 493v-493h-117l-11 68q-102 -81 -204 -81q-139 0 -139 137v369h148v-324q-1 -32 11 -45t42 -13q43 0 123 41v341h147z" />
    <glyph glyph-name="Uring" unicode="&#x16e;" horiz-adv-x="681" 
d="M342 943q48 0 83 -33.5t35 -81.5t-35 -81.5t-83 -33.5q-50 0 -84 33t-34 82q0 48 34.5 81.5t83.5 33.5zM342 879q-22 0 -36.5 -14.5t-14.5 -36.5q0 -23 14.5 -37t36.5 -14q21 0 35.5 14t14.5 37q0 22 -14.5 36.5t-35.5 14.5zM617 690v-415q0 -158 -60.5 -223t-208.5 -65
q-156 0 -219.5 65t-63.5 223v415h152v-415q0 -95 26.5 -130t97.5 -35q70 0 96.5 35t26.5 130v415h153z" />
    <glyph glyph-name="uring" unicode="&#x16f;" 
d="M298 538q-50 0 -84 32.5t-34 81.5t34.5 82.5t83.5 33.5q48 0 83 -34t35 -82t-34.5 -81t-83.5 -33zM298 704q-22 0 -36.5 -14.5t-14.5 -37.5t14.5 -37t36.5 -14q21 0 35.5 14t14.5 37t-14.5 37.5t-35.5 14.5zM529 493v-493h-117l-11 68q-102 -81 -204 -81q-139 0 -139 137
v369h148v-324q-1 -32 11 -45t42 -13q43 0 123 41v341h147z" />
    <glyph glyph-name="Uhungarumlaut" unicode="&#x170;" horiz-adv-x="681" 
d="M576 881l-153 -167l-59 47l114 186zM386 881l-152 -167l-60 48l115 185zM617 690v-415q0 -158 -60.5 -223t-208.5 -65q-156 0 -219.5 65t-63.5 223v415h152v-415q0 -95 26.5 -130t97.5 -35q70 0 96.5 35t26.5 130v415h153z" />
    <glyph glyph-name="uhungarumlaut" unicode="&#x171;" 
d="M320 586l114 185l98 -65l-153 -167zM190 539l-60 47l115 185l97 -65zM382 493h147v-493h-117l-11 68q-102 -81 -204 -81q-139 0 -139 137v369h148v-324q-1 -32 11 -45t42 -13q43 0 123 41v341z" />
    <glyph glyph-name="Uogonek" unicode="&#x172;" horiz-adv-x="681" 
d="M617 690v-415q0 -149 -53.5 -215t-181.5 -73q-40 -55 -58 -96q-14 -30 5.5 -39.5t57.5 1.5l12 -55q-106 -36 -150.5 -7t-23.5 89q18 55 92 107q-138 6 -195 71.5t-57 216.5v415h152v-415q0 -95 26.5 -130t97.5 -35q70 0 96.5 35t26.5 130v415h153z" />
    <glyph glyph-name="uogonek" unicode="&#x173;" 
d="M534 -138l12 -55q-106 -36 -150.5 -7t-23.5 89q17 55 97 111h-57l-11 68q-102 -81 -204 -81q-139 0 -139 137v369h148v-324q-1 -32 11 -45t42 -13q43 0 123 41v341h147v-493h2q-42 -57 -60 -100q-14 -30 5.5 -39.5t57.5 1.5z" />
    <glyph glyph-name="Wcircumflex" unicode="&#x174;" horiz-adv-x="973" 
d="M674 774l-42 -55l-140 95h-8l-143 -95l-41 58l134 132h107zM947 690l-109 -648q-4 -19 -19 -30.5t-36 -11.5h-146q-21 0 -36 12t-18 31l-75 451q-8 44 -12 87h-19q0 -3 -4.5 -37t-7.5 -51l-74 -450q-3 -19 -18.5 -31t-36.5 -12h-146q-20 0 -35.5 11.5t-19.5 30.5
l-109 648h156l67 -479q6 -45 9 -100h20q3 28 15 100l74 432q3 21 17.5 34t36.5 13h132q21 0 35.5 -13t17.5 -34l74 -433q12 -74 14 -99h21q4 57 9 98l68 481h155z" />
    <glyph glyph-name="wcircumflex" unicode="&#x175;" horiz-adv-x="847" 
d="M611 592l-41 -55l-141 95h-8l-142 -95l-41 58l134 132h106zM831 493l-121 -454q-10 -39 -51 -39h-116q-20 0 -35 12.5t-18 32.5l-50 279q-1 9 -4.5 38t-6.5 45h-12l-12 -83l-49 -279q-3 -20 -18 -32.5t-36 -12.5h-114q-41 0 -51 39l-121 454h149l67 -320q10 -54 12 -81
h13q2 14 6.5 41t6.5 40l50 276q7 44 51 44h104q20 0 34.5 -12t17.5 -33l49 -275q2 -14 7 -41t7 -40h12l12 81l68 320h149z" />
    <glyph glyph-name="Ycircumflex" unicode="&#x176;" horiz-adv-x="608" 
d="M158 719l-41 58l134 132h107l132 -135l-41 -55l-141 95h-8zM381 228v-228h-153v228l-228 462h159l115 -253q10 -22 26 -87h10q12 54 25 87l115 253h157z" />
    <glyph glyph-name="ycircumflex" unicode="&#x177;" horiz-adv-x="562" 
d="M138 537l-41 58l134 132h107l133 -135l-42 -55l-140 95h-8zM554 493l-175 -500q-14 -40 -34.5 -74t-52.5 -65.5t-79.5 -46.5t-105.5 -8l-12 87q60 16 94 41.5t53 68.5l2 4h-28q-37 0 -48 36l-161 457h158l92 -319q9 -35 15 -74h13q3 12 10 37.5t10 36.5l91 319h158z" />
    <glyph glyph-name="Ydieresis" unicode="&#x178;" horiz-adv-x="608" 
d="M236 763h-49q-32 0 -32 33v57q0 33 32 33h49q33 0 33 -33v-57q0 -33 -33 -33zM418 763h-48q-33 0 -33 33v57q0 33 33 33h48q33 0 33 -33v-57q0 -33 -33 -33zM381 228v-228h-153v228l-228 462h159l115 -253q10 -22 26 -87h10q12 54 25 87l115 253h157z" />
    <glyph glyph-name="Zacute" unicode="&#x179;" horiz-adv-x="583" 
d="M256 723l-44 63l202 149l67 -103zM544 117v-117h-504v117l328 456h-320v117h488v-117l-328 -456h336z" />
    <glyph glyph-name="zacute" unicode="&#x17a;" horiz-adv-x="525" 
d="M225 540l-44 64l202 148l67 -102zM485 106v-106h-445v106l272 282h-267v105h435v-105l-271 -282h276z" />
    <glyph glyph-name="Zdotaccent" unicode="&#x17b;" horiz-adv-x="583" 
d="M319 753h-45q-42 0 -42 41v52q0 41 42 41h45q42 0 42 -41v-52q0 -41 -42 -41zM544 117v-117h-504v117l328 456h-320v117h488v-117l-328 -456h336z" />
    <glyph glyph-name="zdotaccent" unicode="&#x17c;" horiz-adv-x="525" 
d="M288 570h-45q-42 0 -42 41v52q0 41 42 41h45q42 0 42 -41v-52q0 -41 -42 -41zM485 106v-106h-445v106l272 282h-267v105h435v-105l-271 -282h276z" />
    <glyph glyph-name="Zcaron" unicode="&#x17d;" horiz-adv-x="583" 
d="M266 739l-152 131l41 58l138 -79h8l138 79l41 -58l-153 -131h-61zM544 117v-117h-504v117l328 456h-320v117h488v-117l-328 -456h336z" />
    <glyph glyph-name="zcaron" unicode="&#x17e;" horiz-adv-x="525" 
d="M235 557l-152 131l40 58l139 -80h8l138 80l41 -58l-153 -131h-61zM485 106v-106h-445v106l272 282h-267v105h435v-105l-271 -282h276z" />
    <glyph glyph-name="florin" unicode="&#x192;" horiz-adv-x="478" 
d="M445 593h-67q-34 0 -48.5 -13t-17.5 -50l-11 -124h118l-9 -100h-118l-29 -316q-13 -153 -170 -153q-79 0 -128 10l21 99h64q34 0 48.5 14t17.5 49l27 297h-96l7 95l98 4l13 145q15 152 173 152q79 0 129 -10z" />
    <glyph glyph-name="Scommaaccent" unicode="&#x218;" horiz-adv-x="582" 
d="M325 261l-139 49q-77 28 -110 76t-33 126q0 114 55.5 152.5t195.5 38.5q132 0 227 -27l-10 -104q-87 3 -216 3q-60 0 -80 -10.5t-20 -52.5q0 -34 15 -49t57 -29l131 -45q80 -28 113 -76.5t33 -126.5q0 -116 -56 -157.5t-200 -41.5q-117 0 -237 26l9 110q213 -5 228 -5
q61 0 81.5 13t20.5 54q0 35 -14 49.5t-51 26.5zM264 -52h32q26 0 36 -9.5t10 -32.5v-52q0 -81 -46 -146l-56 14q13 45 13 104q-38 0 -38 37l1 43q2 23 12.5 32.5t35.5 9.5z" />
    <glyph glyph-name="scommaaccent" unicode="&#x219;" horiz-adv-x="527" 
d="M280 183l-123 33q-68 20 -94 54.5t-26 95.5q0 77 47.5 109t162.5 32q133 -2 228 -19l-10 -95q-126 2 -190 2q-35 0 -48.5 -0.5t-27 -3.5t-16.5 -9.5t-3 -19.5q0 -5 0.5 -9t2.5 -7.5t3.5 -5.5t5.5 -4.5t6.5 -3.5t9 -3.5t10 -3.5t13 -3.5t14.5 -3.5l126 -34
q66 -19 94 -50.5t28 -93.5q0 -88 -51 -119.5t-175 -31.5q-120 0 -221 17l9 96q36 -2 171 -2q77 0 100.5 6.5t23.5 30.5q0 5 -0.5 9t-2.5 7.5t-4 5.5t-6.5 4.5t-7 4t-9.5 4t-11 3.5l-14 3.5t-15 4.5zM247 -48h31q26 0 36.5 -9.5t10.5 -32.5v-52q-1 -81 -47 -146l-56 14
q12 43 14 104q-38 0 -38 36l1 44q1 23 11.5 32.5t36.5 9.5z" />
    <glyph glyph-name="uni021A" unicode="&#x21a;" horiz-adv-x="601" 
d="M583 566h-206v-566h-153v566h-206v124h565v-124zM275 -52h32q26 0 36 -9.5t10 -32.5v-52q0 -81 -46 -146l-56 14q13 45 13 104q-38 0 -38 37l1 43q1 23 11.5 32.5t36.5 9.5z" />
    <glyph glyph-name="uni021B" unicode="&#x21b;" horiz-adv-x="411" 
d="M253 394v-233q0 -28 12 -39t42 -11h63l16 -103q-57 -20 -139 -20q-67 0 -104 37.5t-37 104.5v264h-87v94l87 5v138h147v-138h137v-99h-137zM218 -52h32q25 0 35.5 -9.5t10.5 -32.5v-52q0 -79 -46 -146l-56 14q13 45 13 104q-38 0 -38 37l1 43q1 23 11.5 32.5t36.5 9.5z
" />
    <glyph glyph-name="circumflex" unicode="&#x2c6;" horiz-adv-x="448" 
d="M411 589l-41 -55l-141 94h-8l-142 -94l-41 58l134 131h107z" />
    <glyph glyph-name="caron" unicode="&#x2c7;" horiz-adv-x="448" 
d="M409 682l-153 -131h-61l-153 131l41 59l138 -80h8l138 80z" />
    <glyph glyph-name="breve" unicode="&#x2d8;" horiz-adv-x="393" 
d="M290 707l71 -10q8 -64 -37.5 -107.5t-126.5 -43.5t-127 43.5t-38 107.5l71 10q0 -64 94 -64q47 0 70.5 16t22.5 48z" />
    <glyph glyph-name="dotaccent" unicode="&#x2d9;" horiz-adv-x="236" 
d="M95 703h46q41 0 41 -41v-52q0 -42 -41 -42h-46q-42 0 -42 42v52q0 41 42 41z" />
    <glyph glyph-name="ring" unicode="&#x2da;" horiz-adv-x="309" 
d="M155 759q48 0 83 -34t35 -82t-34.5 -81t-83.5 -33t-83.5 33t-34.5 81q0 49 34.5 82.5t83.5 33.5zM155 695q-22 0 -36 -14.5t-14 -37.5t14.5 -37t35.5 -14t35.5 14t14.5 37t-14.5 37.5t-35.5 14.5z" />
    <glyph glyph-name="ogonek" unicode="&#x2db;" horiz-adv-x="251" 
d="M141 2l59 -2q-43 -60 -60 -100q-14 -30 5.5 -39.5t57.5 1.5l13 -55q-73 -27 -115.5 -19t-57.5 36t-2 65q19 58 100 113z" />
    <glyph glyph-name="tilde" unicode="&#x2dc;" horiz-adv-x="440" 
d="M112 570h-63q-11 71 14 108t67 34q35 -3 85.5 -24t73.5 -24q24 -4 31.5 6t7.5 37h63q11 -68 -13 -106t-68 -35q-38 3 -90.5 25t-69.5 25q-24 3 -31 -7t-7 -39z" />
    <glyph glyph-name="hungarumlaut" unicode="&#x2dd;" horiz-adv-x="501" 
d="M450 682l-153 -168l-59 47l114 186zM260 682l-152 -168l-60 48l115 185z" />
    <glyph glyph-name="Delta" unicode="&#x394;" horiz-adv-x="660" 
d="M640 53v-53h-621v53l235 637h151zM466 114l-115 341q-5 17 -12.5 51t-8.5 38q-3 -12 -10 -42.5t-12 -47.5l-116 -340h274z" />
    <glyph glyph-name="Omega" unicode="&#x3a9;" horiz-adv-x="719" 
d="M45 123h83q37 0 71 -13q-76 59 -107.5 120.5t-30.5 158.5q0 161 69.5 237.5t229.5 76.5q159 0 228.5 -77t69.5 -240q0 -99 -31 -159.5t-107 -116.5q39 13 70 13h84v-123h-277v116q58 47 80.5 102t22.5 149q0 120 -31 167t-110 47t-109.5 -47t-30.5 -169
q0 -97 22.5 -147.5t80.5 -101.5v-116h-277v123z" />
    <glyph glyph-name="mu" unicode="&#x3bc;" horiz-adv-x="621" 
d="M546 493v-493h-115l-14 72q-93 -85 -190 -85q-22 0 -33 2q6 -27 6 -55v-124h-128v683h148v-324q0 -51 61 -51q48 0 117 33v342h148z" />
    <glyph glyph-name="pi" unicode="&#x3c0;" horiz-adv-x="648" 
d="M627 388h-78v-388h-148v388h-154v-388h-147v388h-79v106h606v-106z" />
    <glyph glyph-name="uni0401" unicode="&#x401;" horiz-adv-x="577" 
d="M248 775h-49q-32 0 -32 32v58q0 33 32 33h49q32 0 32 -33v-58q0 -32 -32 -32zM429 775h-48q-33 0 -33 32v58q0 33 33 33h48q33 0 33 -33v-58q0 -32 -33 -32zM530 119l6 -112q-93 -10 -320 -10q-69 0 -110 37.5t-41 101.5v418q0 64 41.5 101.5t109.5 37.5q227 0 320 -10
l-6 -113h-266q-25 0 -36 -12t-11 -39v-105h275v-110h-275v-133q0 -28 11 -40t36 -12h266z" />
    <glyph glyph-name="uni0402" unicode="&#x402;" horiz-adv-x="763" 
d="M376 566v-162q87 45 182 45q87 0 131 -45t44 -167q0 -137 -69.5 -193.5t-195.5 -53.5l-14 108q71 9 99 36t28 93q0 63 -16.5 80.5t-63.5 17.5q-63 0 -125 -28v-297h-153v566h-205v124h563v-124h-205z" />
    <glyph glyph-name="uni0403" unicode="&#x403;" horiz-adv-x="533" 
d="M483 832l-225 -109l-44 63l201 149zM69 0v546q0 65 41 106t104 41q216 0 306 -11l-7 -112h-237q-29 0 -41.5 -12.5t-12.5 -42.5v-515h-153z" />
    <glyph glyph-name="uni0404" unicode="&#x404;" 
d="M544 130l13 -114q-87 -28 -215 -28q-163 0 -229 80t-66 277t66 277t229 80q119 0 210 -23l-13 -114q-108 5 -197 5q-69 0 -99.5 -34.5t-36.5 -122.5h280v-106h-282q4 -107 33.5 -147t104.5 -40q128 0 202 10z" />
    <glyph glyph-name="uni0405" unicode="&#x405;" horiz-adv-x="582" 
d="M325 261l-139 49q-77 28 -110 76t-33 126q0 114 55.5 152.5t195.5 38.5q132 0 227 -27l-10 -104q-87 3 -216 3q-60 0 -80 -10.5t-20 -52.5q0 -34 15 -49t57 -29l131 -45q80 -28 113 -76.5t33 -126.5q0 -116 -56 -157.5t-200 -41.5q-117 0 -237 26l9 110q213 -5 228 -5
q61 0 81.5 13t20.5 54q0 35 -14 49.5t-51 26.5z" />
    <glyph glyph-name="uni0406" unicode="&#x406;" horiz-adv-x="295" 
d="M223 0h-151v690h151v-690z" />
    <glyph glyph-name="uni0407" unicode="&#x407;" horiz-adv-x="295" 
d="M32 886h48q33 0 33 -33v-58q0 -33 -33 -33h-48q-33 0 -33 33v58q0 33 33 33zM214 886h48q33 0 33 -33v-58q0 -33 -33 -33h-48q-33 0 -33 33v58q0 33 33 33zM223 0h-151v690h151v-690z" />
    <glyph glyph-name="uni0408" unicode="&#x408;" horiz-adv-x="370" 
d="M302 690v-545q0 -75 -41 -116t-115 -41q-83 0 -126 20l17 102h47q66 0 66 53v527h152z" />
    <glyph glyph-name="uni0409" unicode="&#x409;" horiz-adv-x="976" 
d="M599 434h94q141 0 195.5 -47.5t54.5 -173.5t-51 -173.5t-173 -47.5q-173 0 -269 8h-1v580h-85q-48 0 -54 -58q-14 -159 -25 -235.5t-33 -139.5q-31 -89 -83.5 -122t-141.5 -28l-11 104q33 9 55.5 27t40.5 60q22 50 32 121.5t19 199.5q1 22 2 33q9 148 162 148h272v-256z
M599 110h94q60 0 78 20.5t18 86.5q0 65 -18 87.5t-78 22.5h-94v-217z" />
    <glyph glyph-name="uni040A" unicode="&#x40a;" horiz-adv-x="976" 
d="M599 427h98q139 0 192.5 -46.5t53.5 -169.5q0 -125 -50 -172t-169 -47q-178 0 -273 8h-3v316h-224v-316h-152v690h152v-263h224v263h151v-263zM599 110h98q57 0 74.5 20t17.5 83t-17.5 85t-74.5 22h-98v-210z" />
    <glyph glyph-name="uni040B" unicode="&#x40b;" horiz-adv-x="786" 
d="M376 566v-156q101 43 193 43q90 0 132.5 -41t42.5 -127v-285h-153v253q0 41 -16 56t-61 15q-66 0 -138 -25v-299h-153v566h-205v124h563v-124h-205z" />
    <glyph glyph-name="uni040C" unicode="&#x40c;" horiz-adv-x="638" 
d="M287 723l-44 63l202 149l67 -103zM382 362v-4q19 -3 35 -6.5t30.5 -11.5t25.5 -14t22.5 -21.5t19 -24.5t18 -33t16.5 -37.5t17.5 -47.5t17.5 -52.5t20 -62.5q10 -31 15 -47h-159q-56 183 -76 224q-31 63 -78 75q-18 5 -41 5h-49q8 -37 8 -66v-238h-152v690h152v-195
q0 -39 -8 -82h47q71 0 102.5 54t77.5 213q2 7 3 10h155q-56 -176 -71 -209q-35 -78 -88 -103q-25 -11 -60 -16z" />
    <glyph glyph-name="uni040D" unicode="&#x40d;" horiz-adv-x="711" 
d="M432 786l-43 -63l-225 109l67 103zM639 0h-146v412q0 46 9 93h-7q-15 -46 -39 -91l-233 -414h-151v690h145v-405q0 -43 -8 -96h6q13 38 40 90l233 411h151v-690z" />
    <glyph glyph-name="uni040E" unicode="&#x40e;" horiz-adv-x="592" 
d="M391 901l70 -10q8 -63 -37.5 -107t-125.5 -44q-81 0 -127 44t-38 107l70 10q0 -64 95 -64q93 0 93 64zM590 690l-169 -512q-30 -91 -68 -136.5t-106 -51.5t-166 15l17 108q97 -5 123.5 3.5t45.5 57.5l8 22h-37q-67 0 -89 69l-142 425h156l109 -365q3 -12 18 -12h25
l119 377h156z" />
    <glyph glyph-name="uni040F" unicode="&#x40f;" horiz-adv-x="694" 
d="M623 690v-690h-214l-6 -151h-104l-7 151h-220v690h152v-580h246v580h153z" />
    <glyph glyph-name="uni0410" unicode="&#x410;" horiz-adv-x="650" 
d="M444 181h-237l-50 -181h-156l199 650q4 18 19 29t34 11h144q43 0 53 -40l199 -650h-155zM411 299l-58 211q-12 50 -14 65h-27q-2 -10 -7 -32t-8 -33l-58 -211h172z" />
    <glyph glyph-name="uni0411" unicode="&#x411;" horiz-adv-x="619" 
d="M224 410h105q143 0 199 -45.5t56 -164.5q0 -67 -15 -109t-50 -63.5t-78 -29t-113 -7.5q-144 0 -253 9h-4v690q112 7 235 7q100 0 235 -7l-12 -117h-305v-163zM224 108h105q63 0 82.5 19t19.5 79q0 59 -19.5 79.5t-82.5 20.5h-105v-198z" />
    <glyph glyph-name="uni0412" unicode="&#x412;" horiz-adv-x="639" 
d="M454 360v-4q77 -7 109.5 -52.5t32.5 -131.5q0 -104 -53 -142t-180 -38q-191 0 -292 8v690q90 8 260 8q137 0 190 -37.5t53 -142.5q0 -75 -28 -113.5t-92 -44.5zM220 408h112q55 0 75.5 18t20.5 71q0 52 -21.5 69t-83.5 17l-103 1v-176zM220 107h116q64 0 86 18.5t22 75.5
q0 62 -23 83.5t-88 22.5h-113v-200z" />
    <glyph glyph-name="uni0413" unicode="&#x413;" horiz-adv-x="533" 
d="M69 0v546q0 65 41 106t104 41q216 0 306 -11l-7 -112h-237q-29 0 -41.5 -12.5t-12.5 -42.5v-515h-153z" />
    <glyph glyph-name="uni0414" unicode="&#x414;" horiz-adv-x="737" 
d="M606 -151l-12 151h-457l-12 -151h-108v261h73q71 177 90 436q5 65 48 104.5t113 39.5h283v-580h90v-261h-108zM472 110v470h-89q-30 0 -43.5 -13.5t-15.5 -45.5q-12 -145 -32 -238t-59 -173h239z" />
    <glyph glyph-name="uni0415" unicode="&#x415;" horiz-adv-x="577" 
d="M530 119l6 -112q-93 -10 -320 -10q-69 0 -110 37.5t-41 101.5v418q0 64 41.5 101.5t109.5 37.5q227 0 320 -10l-6 -113h-266q-25 0 -36 -12t-11 -39v-105h275v-110h-275v-133q0 -28 11 -40t36 -12h266z" />
    <glyph glyph-name="uni0416" unicode="&#x416;" horiz-adv-x="938" 
d="M685 362v-4q91 -12 127.5 -71t96.5 -256q7 -20 10 -31h-160q-63 192 -80 230q-29 60 -69 70q-13 4 -29 4h-46q8 -37 8 -66v-238h-146v238q0 29 8 66h-49q-55 0 -82 -47.5t-79 -206.5q-10 -32 -16 -50h-160q60 195 82 241q35 77 91 101q25 11 61 16v4q-25 3 -45.5 11
t-35.5 17t-29 29t-23.5 35.5t-22 50t-20 58t-22.5 72.5q-11 36 -17 55h155q54 -170 74 -209q41 -64 89 -68h49q-8 43 -8 82v195h146v-195q0 -39 -8 -82h45q53 0 80 49t74 194q7 22 11 34h155q-55 -176 -71 -212q-34 -77 -88 -101q-24 -11 -56 -15z" />
    <glyph glyph-name="uni0417" unicode="&#x417;" horiz-adv-x="565" 
d="M55 569l-12 110q90 19 219 19q134 0 186 -37.5t52 -142.5q0 -75 -28 -113.5t-90 -44.5v-4q75 -7 107 -52.5t32 -131.5q0 -103 -52 -141.5t-176 -38.5q-160 0 -264 30l11 105q120 -19 224 -19q59 0 79.5 18.5t20.5 74.5q0 60 -21.5 81t-82.5 23h-133v107h132q52 0 71 17.5
t19 67.5q0 51 -20.5 68t-76.5 17q-78 0 -197 -13z" />
    <glyph glyph-name="uni0418" unicode="&#x418;" horiz-adv-x="711" 
d="M639 0h-146v412q0 46 9 93h-7q-15 -46 -39 -91l-233 -414h-151v690h145v-405q0 -43 -8 -96h6q13 38 40 90l233 411h151v-690z" />
    <glyph glyph-name="uni0419" unicode="&#x419;" horiz-adv-x="711" 
d="M426 895h98q8 -64 -37 -109.5t-126 -45.5t-127 45.5t-38 109.5h98q-4 -82 67 -82q69 0 65 82zM639 0h-146v412q0 46 9 93h-7q-15 -46 -39 -91l-233 -414h-151v690h145v-405q0 -43 -8 -96h6q13 38 40 90l233 411h151v-690z" />
    <glyph glyph-name="uni041A" unicode="&#x41a;" horiz-adv-x="638" 
d="M382 362v-4q19 -3 35 -6.5t30.5 -11.5t25.5 -14t22.5 -21.5t19 -24.5t18 -33t16.5 -37.5t17.5 -47.5t17.5 -52.5t20 -62.5q10 -31 15 -47h-159q-56 183 -76 224q-31 63 -78 75q-18 5 -41 5h-49q8 -37 8 -66v-238h-152v690h152v-195q0 -39 -8 -82h47q71 0 102.5 54
t77.5 213q2 7 3 10h155q-56 -176 -71 -209q-35 -78 -88 -103q-25 -11 -60 -16z" />
    <glyph glyph-name="uni041B" unicode="&#x41b;" horiz-adv-x="678" 
d="M607 690v-690h-153v580h-88q-59 0 -63 -58q-13 -155 -24.5 -236t-34.5 -139q-61 -170 -229 -150l-11 118q39 7 62.5 23t36.5 50q20 53 31 128.5t23 223.5q11 150 162 150h288z" />
    <glyph glyph-name="uni041C" unicode="&#x41c;" horiz-adv-x="914" 
d="M626 690h147q54 0 57 -57l26 -633h-144l-22 571h-18l-104 -427q-10 -49 -61 -49h-100q-51 0 -63 49l-105 427h-17l-20 -571h-143l25 633q2 57 57 57h147q48 0 60 -49l84 -344q4 -20 10.5 -56t7.5 -41h13q1 5 7.5 41t10.5 56l83 344q11 49 62 49z" />
    <glyph glyph-name="uni041D" unicode="&#x41d;" horiz-adv-x="692" 
d="M620 690v-690h-153v308h-243v-308h-152v690h152v-264h243v264h153z" />
    <glyph glyph-name="uni041E" unicode="&#x41e;" horiz-adv-x="684" 
d="M342 703q166 0 231 -76.5t65 -281.5t-65 -281.5t-231 -76.5t-230.5 76.5t-64.5 281.5t64.5 281.5t230.5 76.5zM342 580q-78 0 -106.5 -49t-28.5 -186t28.5 -186t106.5 -49t106.5 49t28.5 186t-28.5 186t-106.5 49z" />
    <glyph glyph-name="uni041F" unicode="&#x41f;" horiz-adv-x="690" 
d="M618 690v-690h-152v580h-242v-580h-152v690h546z" />
    <glyph glyph-name="uni0420" unicode="&#x420;" horiz-adv-x="616" 
d="M71 0v690q93 9 263 9q144 0 197.5 -47t53.5 -178t-50.5 -178.5t-180.5 -47.5q-66 0 -130 8v-256h-153zM224 365h106q60 1 81 23t21 86t-21 86t-81 22l-106 -1v-216z" />
    <glyph glyph-name="uni0421" unicode="&#x421;" horiz-adv-x="586" 
d="M545 129l13 -113q-90 -28 -221 -28q-160 0 -225 80t-65 277t65 277t225 80q116 0 207 -23l-13 -114q-81 5 -194 5q-75 0 -102.5 -47.5t-27.5 -177.5t27.5 -177.5t102.5 -47.5q139 0 208 9z" />
    <glyph glyph-name="uni0422" unicode="&#x422;" horiz-adv-x="601" 
d="M583 566h-206v-566h-153v566h-206v124h565v-124z" />
    <glyph glyph-name="uni0423" unicode="&#x423;" horiz-adv-x="592" 
d="M590 690l-169 -512q-30 -91 -68 -136.5t-106 -51.5t-166 15l17 108q97 -5 123.5 3.5t45.5 57.5l8 22h-37q-67 0 -89 69l-142 425h156l109 -365q3 -12 18 -12h25l119 377h156z" />
    <glyph glyph-name="uni0424" unicode="&#x424;" horiz-adv-x="843" 
d="M498 739v-90q173 -9 243 -74.5t71 -221.5q-1 -151 -70.5 -215t-243.5 -74v-90h-153v90q-173 9 -243 73.5t-70 215.5q0 156 70 221.5t243 74.5v90h153zM352 180v353q-98 -6 -132 -43.5t-34 -136.5q0 -94 34 -130t132 -43zM491 533v-353q98 7 132 43.5t34 129.5
q0 98 -34 135.5t-132 44.5z" />
    <glyph glyph-name="uni0425" unicode="&#x425;" horiz-adv-x="641" 
d="M326 307h-12l-147 -307h-157l180 354l-166 336h156l133 -285h15l133 285h156l-166 -336l180 -354h-158z" />
    <glyph glyph-name="uni0426" unicode="&#x426;" horiz-adv-x="712" 
d="M581 -151l-12 151h-497v690h152v-580h230v580h153v-580h82v-261h-108z" />
    <glyph glyph-name="uni0427" unicode="&#x427;" horiz-adv-x="657" 
d="M585 690v-690h-152v286q-107 -52 -211 -52q-89 0 -131.5 40.5t-42.5 126.5v289h152v-256q-1 -39 16 -55t61 -16q77 0 156 31v296h152z" />
    <glyph glyph-name="uni0428" unicode="&#x428;" horiz-adv-x="971" 
d="M899 690v-690h-827v690h149v-580h190v580h149v-580h190v580h149z" />
    <glyph glyph-name="uni0429" unicode="&#x429;" horiz-adv-x="999" 
d="M868 -151l-12 151h-784v690h149v-580h188v580h148v-580h189v580h148v-580h81v-261h-107z" />
    <glyph glyph-name="uni042A" unicode="&#x42a;" horiz-adv-x="763" 
d="M382 434h98q142 0 196 -48t54 -175q0 -125 -51 -172t-173 -47q-179 0 -275 8h-2v566h-212v124h365v-256zM382 110h98q60 0 78.5 20.5t18.5 85.5t-18.5 88t-78.5 23h-98v-217z" />
    <glyph glyph-name="uni042B" unicode="&#x42b;" horiz-adv-x="897" 
d="M224 434h100q142 0 196.5 -48t54.5 -175q0 -125 -51 -172t-174 -47q-179 0 -274 8h-4v690h152v-256zM825 690v-690h-152v690h152zM224 110h100q61 0 79 20.5t18 85.5t-18.5 88t-78.5 23h-100v-217z" />
    <glyph glyph-name="uni042C" unicode="&#x42c;" horiz-adv-x="611" 
d="M224 434h102q142 0 196.5 -48t54.5 -175q0 -125 -51 -172t-174 -47q-181 0 -276 8h-4v690h152v-256zM224 110h102q61 0 79.5 20.5t18.5 85.5t-18.5 88t-79.5 23h-102v-217z" />
    <glyph glyph-name="uni042D" unicode="&#x42d;" 
d="M51 565l-13 114q91 23 210 23q163 0 229 -80t66 -277t-66 -277t-229 -80q-128 0 -215 28l13 114q74 -10 202 -10q75 0 104.5 40t33.5 147h-282v106h280q-6 88 -36.5 122.5t-99.5 34.5q-89 0 -197 -5z" />
    <glyph glyph-name="uni042E" unicode="&#x42e;" horiz-adv-x="971" 
d="M225 412h128q9 165 71 228t205 63q165 0 230 -76.5t65 -281.5t-65 -281.5t-230 -76.5q-148 0 -209.5 68t-67.5 247h-127v-302h-153v690h153v-278zM629 110q77 0 105 49t29 186q-1 137 -29 186t-105 49q-75 0 -101.5 -49t-26.5 -186t26.5 -186t101.5 -49z" />
    <glyph glyph-name="uni042F" unicode="&#x42f;" horiz-adv-x="635" 
d="M564 0h-152v265h-101q-58 0 -71 -59l-51 -206h-160l56 211q20 86 104 102l-1 6q-71 9 -101.5 52.5t-30.5 123.5q0 112 57.5 158t190.5 46q168 0 260 -9v-690zM412 382v199l-104 1q-57 0 -77.5 -20t-21.5 -77q0 -57 21.5 -80t77.5 -23h104z" />
    <glyph glyph-name="uni0430" unicode="&#x430;" horiz-adv-x="571" 
d="M75 383l-13 100q133 24 256 24q100 0 147.5 -40.5t47.5 -140.5v-326h-117l-15 75q-74 -87 -183 -87q-71 0 -115.5 37.5t-44.5 104.5v50q0 59 40 92t111 33h176v22q-1 37 -17.5 50.5t-63.5 13.5q-81 0 -209 -8zM184 169v-19q0 -51 57 -51q59 0 124 48v69h-133
q-48 -1 -48 -47z" />
    <glyph glyph-name="uni0431" unicode="&#x431;" horiz-adv-x="593" 
d="M499 740l27 -114q-40 -23 -80 -31t-85 -11.5t-76 -12.5q-82 -22 -107 -101q-9 -24 -17 -73h3q29 39 68.5 59.5t110.5 20.5q114 0 161 -54.5t47 -179.5q0 -131 -54.5 -193t-190.5 -62q-51 0 -90 8.5t-65.5 22t-45 38t-29 47.5t-15.5 59.5t-6.5 65.5t-1.5 74q0 81 7 136.5
t26 106t55.5 83.5t93.5 51q37 12 125.5 23t138.5 37zM305 375q-61 0 -80 -28.5t-19 -103.5q0 -85 20 -115t75 -30t75 29.5t20 114.5q0 80 -18.5 106.5t-72.5 26.5z" />
    <glyph glyph-name="uni0432" unicode="&#x432;" horiz-adv-x="570" 
d="M406 256v-4q68 -5 97 -37t29 -93q0 -74 -47 -102t-159 -28q-169 0 -264 6v495q85 6 236 6q122 0 169 -27.5t47 -103.5q0 -53 -25.5 -80.5t-82.5 -31.5zM201 297h97q45 0 61.5 11t16.5 42q0 28 -18 38t-67 10l-90 1v-102zM201 95h100q48 0 66 11.5t18 46.5q0 33 -19 45.5
t-68 12.5h-97v-116z" />
    <glyph glyph-name="uni0433" unicode="&#x433;" horiz-adv-x="480" 
d="M60 0v380q0 119 127 119q198 0 279 -13l-6 -103h-208q-24 0 -34.5 -10.5t-10.5 -34.5v-338h-147z" />
    <glyph glyph-name="uni0434" unicode="&#x434;" horiz-adv-x="629" 
d="M605 106v-247h-97l-11 141h-369l-10 -141h-97v247h62q44 113 61 267q12 120 141 120h242v-387h78zM388 106v287h-64q-45 0 -50 -47q-17 -147 -61 -240h175z" />
    <glyph glyph-name="uni0435" unicode="&#x435;" horiz-adv-x="563" 
d="M376 197h-178q7 -54 33 -72.5t84 -18.5q79 0 184 11l14 -92q-77 -37 -215 -37q-139 0 -198 60t-59 198q0 144 58 202.5t193 58.5q123 0 178 -42.5t56 -129.5q0 -69 -35.5 -103.5t-114.5 -34.5zM195 286h140q28 0 37 13t9 38q0 35 -18 48.5t-66 13.5q-57 0 -78 -22.5
t-24 -90.5z" />
    <glyph glyph-name="uni0436" unicode="&#x436;" horiz-adv-x="822" 
d="M610 260v-4q22 -3 37.5 -6.5t30.5 -11.5t24.5 -14.5t21 -24t18 -30.5t18 -43.5t19 -54.5t22.5 -71h-149q-49 140 -69 173t-63 33h-49q6 -22 6 -43v-163h-130v163q0 18 5 43h-51q-41 0 -60.5 -32.5t-70.5 -173.5h-149q16 49 23 71t19 54.5t18 44t18 30t21 24t24 14.5
t30.5 12t38.5 6v4q-74 9 -100 43.5t-67 158.5q-6 20 -10 31h145q41 -119 62 -153t64 -34h46q-6 28 -6 59v128h130v-128q0 -31 -6 -59h43q44 0 64 33t62 154h146q-46 -138 -62 -168q-26 -45 -75 -58q-16 -4 -39 -7z" />
    <glyph glyph-name="uni0437" unicode="&#x437;" horiz-adv-x="517" 
d="M54 381l-10 102q73 22 173 22q137 0 189 -26t52 -108q0 -57 -24 -84t-81 -31v-4q66 -5 95.5 -36.5t29.5 -92.5q0 -82 -51.5 -108.5t-176.5 -26.5q-128 0 -221 20l10 102q108 -10 200 -10q53 0 70 9.5t17 42.5q0 30 -17.5 39.5t-68.5 10.5l-142 2v93l141 2q44 0 59.5 9.5
t15.5 39.5q0 27 -18 35t-72 8q-92 0 -170 -10z" />
    <glyph glyph-name="uni0438" unicode="&#x438;" horiz-adv-x="606" 
d="M543 -1h-132v258q0 29 5 79h-4q-11 -36 -37 -73l-186 -263h-126v493h131v-263q0 -28 -5 -73h3q13 33 37 67l188 269h126v-494z" />
    <glyph glyph-name="uni0439" unicode="&#x439;" horiz-adv-x="606" 
d="M368 712h98q8 -63 -37.5 -109t-125.5 -46q-81 0 -127.5 46t-37.5 109h98q-4 -82 67 -82q69 0 65 82zM543 -1h-132v258q0 29 5 79h-4q-11 -36 -37 -73l-186 -263h-126v493h131v-263q0 -28 -5 -73h3q13 33 37 67l188 269h126v-494z" />
    <glyph glyph-name="uni043A" unicode="&#x43a;" horiz-adv-x="564" 
d="M351 259v-4q30 -4 49 -8.5t37 -18.5t27.5 -26t24.5 -46.5t24.5 -63.5t29.5 -92h-154q-44 140 -65 172t-74 32h-45q5 -25 5 -42v-162h-147v493h147v-126q0 -30 -6 -60h37q57 0 79 32.5t57 153.5h150q-46 -139 -62 -168q-24 -44 -71 -57q-17 -5 -43 -9z" />
    <glyph glyph-name="uni043B" unicode="&#x43b;" horiz-adv-x="591" 
d="M528 493v-493h-148v390h-64q-25 0 -36.5 -11t-15.5 -38q-21 -166 -36 -224q-30 -142 -201 -122l-15 110q41 7 58.5 16.5t25.5 36.5q19 56 32 210q12 125 137 125h263z" />
    <glyph glyph-name="uni043C" unicode="&#x43c;" horiz-adv-x="783" 
d="M527 493h134q50 0 52 -51l16 -442h-135l-14 385h-14l-80 -276q-11 -46 -55 -46h-80q-46 0 -57 46l-79 276h-14l-12 -385h-134l15 442q0 51 52 51h132q46 0 55 -46l62 -218q5 -19 14 -73h11q1 5 5.5 32t8.5 41l61 218q9 46 56 46z" />
    <glyph glyph-name="uni043D" unicode="&#x43d;" horiz-adv-x="604" 
d="M541 493v-493h-145v209h-187v-209h-146v493h146v-181h187v181h145z" />
    <glyph glyph-name="uni043E" unicode="&#x43e;" horiz-adv-x="589" 
d="M295 507q139 0 196 -59t57 -202q0 -142 -57 -200.5t-196 -58.5t-196.5 58.5t-57.5 200.5q0 143 57.5 202t196.5 59zM295 396q-59 0 -79 -30t-20 -120q0 -88 20 -118t79 -30q58 0 78.5 30t20.5 118q0 89 -20.5 119.5t-78.5 30.5z" />
    <glyph glyph-name="uni043F" unicode="&#x43f;" horiz-adv-x="595" 
d="M532 494v-494h-143v388h-182v-388h-144v494h469z" />
    <glyph glyph-name="uni0440" unicode="&#x440;" horiz-adv-x="603" 
d="M183 493l11 -72q31 37 85.5 61t110.5 24q171 0 171 -264q0 -142 -46 -198.5t-143 -56.5q-100 0 -165 48q5 -51 3 -106v-119h-147v683h120zM210 343v-226q78 -20 112 -20q50 0 68.5 28t18.5 117q0 87 -17 117.5t-60 30.5q-50 0 -122 -47z" />
    <glyph glyph-name="uni0441" unicode="&#x441;" horiz-adv-x="509" 
d="M466 117l14 -96q-77 -33 -192 -33q-136 0 -191.5 58.5t-55.5 200.5q0 143 56 201.5t193 58.5q112 0 182 -31l-16 -92q-108 2 -141 2q-68 0 -93.5 -29t-25.5 -110t25.5 -110t93.5 -29q88 0 151 9z" />
    <glyph glyph-name="uni0442" unicode="&#x442;" horiz-adv-x="513" 
d="M494 379h-164v-379h-146v379h-164v114h474v-114z" />
    <glyph glyph-name="uni0443" unicode="&#x443;" horiz-adv-x="565" 
d="M555 493l-175 -500q-39 -122 -135 -171q-74 -42 -202 -20l12 98q91 -3 129 20q39 23 62 80h-28q-38 0 -49 36l-160 457h157l92 -319q12 -46 16 -74h12q16 57 20 74l91 319h158z" />
    <glyph glyph-name="uni0444" unicode="&#x444;" horiz-adv-x="748" 
d="M440 700v-195q144 -10 205.5 -70t61.5 -189q0 -128 -61.5 -187t-205.5 -69v-180h-133v180q-144 10 -205.5 69t-61.5 187q0 129 61.5 189t205.5 70v195h133zM313 97v301q-75 -7 -103.5 -40t-28.5 -112q0 -78 28.5 -110t103.5 -39zM434 398v-301q75 7 103.5 39t28.5 110
q0 79 -28.5 112t-103.5 40z" />
    <glyph glyph-name="uni0445" unicode="&#x445;" horiz-adv-x="566" 
d="M286 207h-6l-117 -207h-152l152 253l-140 240h151l105 -190h9l105 190h151l-140 -240l151 -253h-152z" />
    <glyph glyph-name="uni0446" unicode="&#x446;" horiz-adv-x="625" 
d="M601 106v-247h-98l-11 141h-429v493h146v-387h171v387h146v-387h75z" />
    <glyph glyph-name="uni0447" unicode="&#x447;" horiz-adv-x="567" 
d="M502 493v-493h-146v184q-85 -29 -166 -29q-147 0 -147 113v225h146v-179q0 -26 11.5 -36.5t39.5 -10.5q57 0 116 21v205h146z" />
    <glyph glyph-name="uni0448" unicode="&#x448;" horiz-adv-x="836" 
d="M773 493v-493h-710v493h142v-387h148v387h130v-387h148v387h142z" />
    <glyph glyph-name="uni0449" unicode="&#x449;" horiz-adv-x="872" 
d="M847 106v-247h-97l-12 141h-675v493h142v-387h147v387h131v-387h147v387h143v-387h74z" />
    <glyph glyph-name="uni044A" unicode="&#x44a;" horiz-adv-x="654" 
d="M326 322h73q129 0 177 -34.5t48 -129.5q0 -93 -46.5 -128.5t-154.5 -35.5q-152 0 -237 6h-2v384h-165v109h307v-171zM326 98h73q45 0 60.5 13t15.5 53q0 38 -15.5 51.5t-60.5 13.5h-73v-131z" />
    <glyph glyph-name="uni044B" unicode="&#x44b;" horiz-adv-x="779" 
d="M205 322h74q130 0 178 -34.5t48 -129.5q0 -93 -46 -128.5t-154 -35.5q-153 0 -238 6h-4v493h142v-171zM716 493v-493h-148v493h148zM205 98h74q46 0 61.5 12.5t15.5 53.5q0 39 -15.5 52t-61.5 13h-74v-131z" />
    <glyph glyph-name="uni044C" unicode="&#x44c;" horiz-adv-x="537" 
d="M205 322h76q130 0 178 -34.5t48 -129.5q0 -93 -46.5 -128.5t-154.5 -35.5q-154 0 -239 6h-4v493h142v-171zM205 98h76q46 0 61.5 12.5t15.5 53.5q0 39 -15.5 52t-61.5 13h-76v-131z" />
    <glyph glyph-name="uni044D" unicode="&#x44d;" horiz-adv-x="534" 
d="M49 385l-12 94q75 25 189 25q148 0 207.5 -57.5t59.5 -202.5q0 -142 -60 -199t-207 -57q-117 0 -194 26l12 96q92 -5 182 -5q64 0 88.5 19.5t28.5 80.5h-248v91h247q-7 54 -32 73t-84 18q-59 0 -177 -2z" />
    <glyph glyph-name="uni044E" unicode="&#x44e;" horiz-adv-x="831" 
d="M210 305h97q9 116 61 159t172 43q140 0 194.5 -54t54.5 -207q0 -149 -55 -202.5t-194 -53.5q-123 0 -175 45t-59 166h-96v-201h-147v493h147v-188zM538 106q58 0 78 28.5t20 113.5q0 86 -20 114.5t-78 28.5t-77 -28.5t-19 -114.5q0 -85 19 -113.5t77 -28.5z" />
    <glyph glyph-name="uni044F" unicode="&#x44f;" horiz-adv-x="564" 
d="M161 210v5q-108 20 -108 133q0 87 44 121t167 34q166 0 238 -7v-496h-144v168h-91q-50 0 -57 -36l-33 -132h-152l42 153q14 49 94 57zM358 265v129h-91q-44 0 -57 -11.5t-13 -48.5q0 -42 13 -55.5t57 -13.5h91z" />
    <glyph glyph-name="uni0451" unicode="&#x451;" horiz-adv-x="563" 
d="M227 580h-49q-32 0 -32 33v58q0 33 32 33h49q32 0 32 -33v-58q0 -33 -32 -33zM409 580h-49q-33 0 -33 33v58q0 33 33 33h49q32 0 32 -33v-58q0 -33 -32 -33zM376 197h-178q7 -54 33 -72.5t84 -18.5q79 0 184 11l14 -92q-77 -37 -215 -37q-139 0 -198 60t-59 198
q0 144 58 202.5t193 58.5q123 0 178 -42.5t56 -129.5q0 -69 -35.5 -103.5t-114.5 -34.5zM195 286h140q28 0 37 13t9 38q0 35 -18 48.5t-66 13.5q-57 0 -78 -22.5t-24 -90.5z" />
    <glyph glyph-name="uni0452" unicode="&#x452;" horiz-adv-x="606" 
d="M234 480v-45q0 -47 -7 -94q97 72 198 72q140 0 140 -137v-276h-149v231q0 31 -12.5 42.5t-46.5 11.5q-50 0 -124 -35v-250h-147v480h-67v72h67v148h147v-148h172v-72h-171z" />
    <glyph glyph-name="uni0453" unicode="&#x453;" horiz-adv-x="480" 
d="M449 650l-226 -110l-43 64l201 148zM60 0v380q0 119 127 119q198 0 279 -13l-6 -103h-208q-24 0 -34.5 -10.5t-10.5 -34.5v-338h-147z" />
    <glyph glyph-name="uni0454" unicode="&#x454;" horiz-adv-x="534" 
d="M490 110l12 -96q-77 -26 -194 -26q-147 0 -207 57t-60 199q0 145 59.5 202.5t207.5 57.5q118 0 190 -25l-13 -94q-116 2 -177 2q-59 1 -84 -18t-31 -73h247v-91h-249q5 -61 30 -80.5t87 -19.5q92 0 182 5z" />
    <glyph glyph-name="uni0455" unicode="&#x455;" horiz-adv-x="530" 
d="M281 183l-123 33q-67 20 -93 54.5t-26 95.5q0 77 47 109t162 32q132 -2 229 -19l-10 -95q-128 2 -191 2q-35 0 -48.5 -0.5t-27 -3.5t-16.5 -9.5t-3 -19.5q0 -5 0.5 -9t2.5 -7.5t3.5 -5.5t5.5 -4.5t6.5 -3.5t9 -3.5t10 -3.5t13 -3.5t14.5 -3.5l126 -34q66 -19 94 -50.5
t28 -93.5q0 -88 -51 -119.5t-175 -31.5q-120 0 -221 17l9 96q36 -2 171 -2q77 0 100.5 6.5t23.5 30.5q0 5 -0.5 9t-2.5 7.5t-4 5.5t-6.5 4.5t-7 4t-9.5 4t-11 3.5l-14 3.5t-15 4.5z" />
    <glyph glyph-name="uni0456" unicode="&#x456;" horiz-adv-x="281" 
d="M108 711h65q43 0 43 -43v-54q0 -43 -43 -43h-65q-43 0 -43 43v54q0 43 43 43zM214 0h-147v493h147v-493z" />
    <glyph glyph-name="uni0457" unicode="&#x457;" horiz-adv-x="282" 
d="M25 704h49q32 0 32 -33v-58q0 -33 -32 -33h-49q-32 0 -32 33v58q0 33 32 33zM207 704h49q32 0 32 -33v-58q0 -33 -32 -33h-49q-33 0 -33 33v58q0 33 33 33zM215 0h-148v493h148v-493z" />
    <glyph glyph-name="uni0458" unicode="&#x458;" horiz-adv-x="282" 
d="M107 715h66q43 0 43 -43v-54q0 -43 -43 -43h-66q-43 0 -43 43v54q0 43 43 43zM215 493v-470q0 -69 -34 -128.5t-93 -91.5l-81 65q60 68 60 155v470h148z" />
    <glyph glyph-name="uni0459" unicode="&#x459;" horiz-adv-x="826" 
d="M503 321h71q127 0 174.5 -35t47.5 -129q0 -93 -45.5 -128t-152.5 -35q-125 0 -230 6h-2v396h-49q-25 0 -35.5 -9.5t-13.5 -34.5q-20 -173 -43 -240q-23 -70 -74 -98t-120 -18l-10 101q20 4 31.5 7.5t26 16t22.5 32.5q19 46 40 226q12 114 130 114h232v-172zM503 96h71
q46 0 61.5 13t15.5 53q0 39 -15.5 52.5t-61.5 13.5h-71v-132z" />
    <glyph glyph-name="uni045A" unicode="&#x45a;" horiz-adv-x="825" 
d="M502 314h76q125 0 171 -33t46 -124q0 -93 -44.5 -128t-149.5 -35q-151 0 -235 6h-2v219h-166v-219h-135v493h135v-178h166v178h138v-179zM502 96h76q43 0 58 13t15 51q0 37 -14.5 50t-58.5 13h-76v-127z" />
    <glyph glyph-name="uni045B" unicode="&#x45b;" horiz-adv-x="606" 
d="M234 480v-45q0 -47 -7 -94q97 72 198 72q138 0 140 -137v-253q0 -69 -33 -128.5t-90 -91.5l-83 65q57 66 57 155v208q0 30 -13 42t-46 12q-50 0 -124 -35v-250h-147v480h-67v72h67v148h147v-148h172v-72h-171z" />
    <glyph glyph-name="uni045C" unicode="&#x45c;" horiz-adv-x="564" 
d="M253 540l-44 64l201 148l68 -102zM351 259v-4q30 -4 49 -8.5t37 -18.5t27.5 -26t24.5 -46.5t24.5 -63.5t29.5 -92h-154q-44 140 -65 172t-74 32h-45q5 -25 5 -42v-162h-147v493h147v-126q0 -30 -6 -60h37q57 0 79 32.5t57 153.5h150q-46 -139 -62 -168q-24 -44 -71 -57
q-17 -5 -43 -9z" />
    <glyph glyph-name="uni045D" unicode="&#x45d;" horiz-adv-x="606" 
d="M374 604l-44 -64l-225 110l68 102zM543 -1h-132v258q0 29 5 79h-4q-11 -36 -37 -73l-186 -263h-126v493h131v-263q0 -28 -5 -73h3q13 33 37 67l188 269h126v-494z" />
    <glyph glyph-name="uni045E" unicode="&#x45e;" horiz-adv-x="565" 
d="M346 712h98q8 -63 -37.5 -108.5t-125.5 -45.5t-126.5 45.5t-38.5 108.5h98q-4 -82 67 -82q69 0 65 82zM555 493l-175 -500q-39 -122 -135 -171q-74 -42 -202 -20l12 98q91 -3 129 20q39 23 62 80h-28q-38 0 -49 36l-160 457h157l92 -319q12 -46 16 -74h12q16 57 20 74
l91 319h158z" />
    <glyph glyph-name="uni045F" unicode="&#x45f;" horiz-adv-x="601" 
d="M538 493v-493h-179l-10 -163h-98l-11 163h-177v493h147v-387h182v387h146z" />
    <glyph glyph-name="uni0490" unicode="&#x490;" horiz-adv-x="538" 
d="M525 676l-7 -106h-242q-29 0 -41.5 -12.5t-12.5 -42.5v-515h-153v546q0 65 41 106t104 41q133 0 197 -4l14 153h100v-166z" />
    <glyph glyph-name="uni0491" unicode="&#x491;" horiz-adv-x="481" 
d="M467 638v-152l-7 -103h-207q-25 0 -35.5 -10.5t-10.5 -34.5v-338h-146v380q0 119 126 119q115 0 171 -3l13 142h96z" />
    <glyph glyph-name="uni04B0" unicode="&#x4b0;" horiz-adv-x="616" 
d="M525 208h-140v-208h-152v208h-141v81h111l-198 401h159l114 -253q10 -22 26 -87h10q16 65 26 87l114 253h158l-197 -401h110v-81z" />
    <glyph glyph-name="uni04B1" unicode="&#x4b1;" horiz-adv-x="616" 
d="M414 96h111v-90h-140v-196h-153v196h-140v90h110l-196 397h158l114 -248q5 -12 9.5 -26.5t9.5 -34t7 -27.5h9q17 67 26 88l113 248h159z" />
    <glyph glyph-name="uni04B6" unicode="&#x4b6;" horiz-adv-x="694" 
d="M672 102v-253h-107l-13 151h-120v283q-108 -49 -208 -49q-91 0 -133.5 40.5t-42.5 126.5v289h153v-256q-2 -40 15.5 -56t62.5 -16q75 0 153 31v297h153v-588h87z" />
    <glyph glyph-name="uni04B7" unicode="&#x4b7;" horiz-adv-x="600" 
d="M576 106v-247h-98l-11 141h-113v184q-85 -29 -165 -29q-146 0 -146 113v225h146v-179q0 -26 11.5 -36.5t38.5 -10.5q57 0 115 21v205h146v-387h76z" />
    <glyph glyph-name="uni04BA" unicode="&#x4ba;" horiz-adv-x="657" 
d="M224 690v-283q107 49 209 49q91 0 134 -40.5t43 -126.5v-289h-153v256q1 40 -16.5 56t-62.5 16q-78 0 -154 -31v-297h-152v690h152z" />
    <glyph glyph-name="uni04C0" unicode="&#x4c0;" horiz-adv-x="296" 
d="M224 0h-152v690h152v-690z" />
    <glyph glyph-name="Wgrave" unicode="&#x1e80;" horiz-adv-x="973" 
d="M559 786l-44 -64l-225 109l68 103zM947 690l-109 -648q-4 -19 -19 -30.5t-36 -11.5h-146q-21 0 -36 12t-18 31l-75 451q-8 44 -12 87h-19q0 -3 -4.5 -37t-7.5 -51l-74 -450q-3 -19 -18.5 -31t-36.5 -12h-146q-20 0 -35.5 11.5t-19.5 30.5l-109 648h156l67 -479
q6 -45 9 -100h20q3 28 15 100l74 432q3 21 17.5 34t36.5 13h132q21 0 35.5 -13t17.5 -34l74 -433q12 -74 14 -99h21q4 57 9 98l68 481h155z" />
    <glyph glyph-name="wgrave" unicode="&#x1e81;" horiz-adv-x="847" 
d="M496 604l-43 -64l-225 110l67 102zM831 493l-121 -454q-10 -39 -51 -39h-116q-20 0 -35 12.5t-18 32.5l-50 279q-1 9 -4.5 38t-6.5 45h-12l-12 -83l-49 -279q-3 -20 -18 -32.5t-36 -12.5h-114q-41 0 -51 39l-121 454h149l67 -320q10 -54 12 -81h13q2 14 6.5 41t6.5 40
l50 276q7 44 51 44h104q20 0 34.5 -12t17.5 -33l49 -275q2 -14 7 -41t7 -40h12l12 81l68 320h149z" />
    <glyph glyph-name="Wacute" unicode="&#x1e82;" horiz-adv-x="973" 
d="M672 831l-225 -109l-43 64l201 148zM947 690l-109 -648q-4 -19 -19 -30.5t-36 -11.5h-146q-21 0 -36 12t-18 31l-75 451q-8 44 -12 87h-19q0 -3 -4.5 -37t-7.5 -51l-74 -450q-3 -19 -18.5 -31t-36.5 -12h-146q-20 0 -35.5 11.5t-19.5 30.5l-109 648h156l67 -479
q6 -45 9 -100h20q3 28 15 100l74 432q3 21 17.5 34t36.5 13h132q21 0 35.5 -13t17.5 -34l74 -433q12 -74 14 -99h21q4 57 9 98l68 481h155z" />
    <glyph glyph-name="wacute" unicode="&#x1e83;" horiz-adv-x="847" 
d="M610 650l-225 -110l-44 64l201 148zM831 493l-121 -454q-10 -39 -51 -39h-116q-20 0 -35 12.5t-18 32.5l-50 279q-1 9 -4.5 38t-6.5 45h-12l-12 -83l-49 -279q-3 -20 -18 -32.5t-36 -12.5h-114q-41 0 -51 39l-121 454h149l67 -320q10 -54 12 -81h13q2 14 6.5 41t6.5 40
l50 276q7 44 51 44h104q20 0 34.5 -12t17.5 -33l49 -275q2 -14 7 -41t7 -40h12l12 81l68 320h149z" />
    <glyph glyph-name="Wdieresis" unicode="&#x1e84;" horiz-adv-x="973" 
d="M371 886h49q32 0 32 -33v-58q0 -33 -32 -33h-49q-32 0 -32 33v58q0 33 32 33zM553 886h49q33 0 33 -33v-58q0 -33 -33 -33h-49q-33 0 -33 33v58q0 33 33 33zM947 690l-109 -648q-4 -19 -19 -30.5t-36 -11.5h-146q-21 0 -36 12t-18 31l-75 451q-8 44 -12 87h-19
q0 -3 -4.5 -37t-7.5 -51l-74 -450q-3 -19 -18.5 -31t-36.5 -12h-146q-20 0 -35.5 11.5t-19.5 30.5l-109 648h156l67 -479q6 -45 9 -100h20q3 28 15 100l74 432q3 21 17.5 34t36.5 13h132q21 0 35.5 -13t17.5 -34l74 -433q12 -74 14 -99h21q4 57 9 98l68 481h155z" />
    <glyph glyph-name="wdieresis" unicode="&#x1e85;" horiz-adv-x="847" 
d="M308 704h49q33 0 33 -33v-58q0 -33 -33 -33h-49q-32 0 -32 33v58q0 33 32 33zM491 704h48q33 0 33 -33v-58q0 -33 -33 -33h-48q-33 0 -33 33v58q0 33 33 33zM831 493l-121 -454q-10 -39 -51 -39h-116q-20 0 -35 12.5t-18 32.5l-50 279q-1 9 -4.5 38t-6.5 45h-12l-12 -83
l-49 -279q-3 -20 -18 -32.5t-36 -12.5h-114q-41 0 -51 39l-121 454h149l67 -320q10 -54 12 -81h13q2 14 6.5 41t6.5 40l50 276q7 44 51 44h104q20 0 34.5 -12t17.5 -33l49 -275q2 -14 7 -41t7 -40h12l12 81l68 320h149z" />
    <glyph glyph-name="Ygrave" unicode="&#x1ef2;" horiz-adv-x="608" 
d="M332 723l-225 109l67 103l202 -149zM381 228v-228h-153v228l-228 462h159l115 -253q10 -22 26 -87h10q12 54 25 87l115 253h157z" />
    <glyph glyph-name="ygrave" unicode="&#x1ef3;" horiz-adv-x="562" 
d="M312 540l-225 110l68 102l201 -148zM554 493l-175 -500q-14 -40 -34.5 -74t-52.5 -65.5t-79.5 -46.5t-105.5 -8l-12 87q60 16 94 41.5t53 68.5l2 4h-28q-37 0 -48 36l-161 457h158l92 -319q9 -35 15 -74h13q3 12 10 37.5t10 36.5l91 319h158z" />
    <glyph glyph-name="endash" unicode="&#x2013;" horiz-adv-x="561" 
d="M503 206h-445v97h445v-97z" />
    <glyph glyph-name="emdash" unicode="&#x2014;" horiz-adv-x="857" 
d="M799 206h-741v97h741v-97z" />
    <glyph glyph-name="quoteleft" unicode="&#x2018;" horiz-adv-x="223" 
d="M129 450h-33q-28 0 -38.5 10.5t-10.5 36.5v59q0 92 49 165l58 -16q-14 -55 -14 -117q40 0 40 -42l-1 -49q-2 -26 -12.5 -36.5t-37.5 -10.5z" />
    <glyph glyph-name="quoteright" unicode="&#x2019;" horiz-adv-x="220" 
d="M93 714h33q28 0 38.5 -10.5t10.5 -37.5v-58q-1 -91 -49 -166l-58 17q12 48 14 117q-40 0 -40 41l1 49q1 27 12 37.5t38 10.5z" />
    <glyph glyph-name="quotesinglbase" unicode="&#x201a;" horiz-adv-x="234" 
d="M101 144h34q27 0 37.5 -10.5t10.5 -38.5v-61q0 -95 -48 -172l-59 17q14 56 14 122q-38 0 -40 43l1 51q2 28 12.5 38.5t37.5 10.5z" />
    <glyph glyph-name="quotedblleft" unicode="&#x201c;" horiz-adv-x="402" 
d="M129 450h-33q-28 0 -38.5 10.5t-10.5 36.5v59q0 92 49 165l58 -16q-14 -55 -14 -117q40 0 40 -42l-1 -49q-2 -26 -12.5 -36.5t-37.5 -10.5zM308 450h-33q-27 0 -37.5 10.5t-11.5 36.5v59q1 92 49 165l59 -16q-14 -50 -14 -117q38 0 40 -42l-2 -49q-1 -26 -12 -36.5
t-38 -10.5z" />
    <glyph glyph-name="quotedblright" unicode="&#x201d;" horiz-adv-x="399" 
d="M93 714h33q28 0 38.5 -10.5t10.5 -37.5v-58q-1 -91 -49 -166l-58 17q12 48 14 117q-40 0 -40 41l1 49q1 27 12 37.5t38 10.5zM272 714h34q27 0 37.5 -10.5t10.5 -37.5v-58q0 -91 -48 -166l-59 17q14 55 14 117q-38 0 -40 41l1 49q1 27 12.5 37.5t37.5 10.5z" />
    <glyph glyph-name="quotedblbase" unicode="&#x201e;" horiz-adv-x="413" 
d="M101 132h33q28 0 38.5 -10t10.5 -37v-58q-1 -91 -49 -166l-58 17q12 48 14 117q-40 0 -40 41l1 49q1 27 12 37t38 10zM280 132h34q27 0 37.5 -10t10.5 -37v-58q0 -91 -48 -166l-59 17q14 55 14 117q-38 0 -40 41l1 49q1 27 12 37t38 10z" />
    <glyph glyph-name="dagger" unicode="&#x2020;" horiz-adv-x="471" 
d="M297 -110h-123l7 521v74l-7 206h123l-7 -206v-74zM32 381v112h129v-96zM439 493v-112l-129 16v96h129z" />
    <glyph glyph-name="daggerdbl" unicode="&#x2021;" horiz-adv-x="508" 
d="M308 492v-399l8 -203h-124l7 203v399l-7 199h124zM179 397l-129 -16v112h129v-96zM458 381l-129 16v96h129v-112zM179 184v-96h-129v112zM458 88h-129v96l129 16v-112z" />
    <glyph glyph-name="bullet" unicode="&#x2022;" horiz-adv-x="372" 
d="M182 380h14q58 0 80.5 -22.5t22.5 -79.5v-15q0 -61 -22.5 -84.5t-80.5 -23.5h-14q-62 0 -85 23.5t-23 84.5v15q0 57 23.5 79.5t84.5 22.5z" />
    <glyph glyph-name="ellipsis" unicode="&#x2026;" horiz-adv-x="893" 
d="M97 151h40q29 0 40.5 -11t11.5 -40v-48q0 -29 -11.5 -40.5t-40.5 -11.5h-40q-29 0 -40 11.5t-11 40.5v48q0 29 11 40t40 11zM421 151h40q29 0 40.5 -11t11.5 -40v-48q0 -29 -11.5 -40.5t-40.5 -11.5h-40q-29 0 -40.5 11.5t-11.5 40.5v48q0 29 11.5 40t40.5 11zM745 151
h40q29 0 40.5 -11t11.5 -40v-48q0 -29 -11.5 -40.5t-40.5 -11.5h-40q-29 0 -40.5 11.5t-11.5 40.5v48q0 29 11.5 40t40.5 11z" />
    <glyph glyph-name="perthousand" unicode="&#x2030;" horiz-adv-x="1295" 
d="M205 703q96 0 134 -45t38 -160q0 -114 -38 -159.5t-134 -45.5q-95 0 -133 45.5t-38 159.5q0 115 38 160t133 45zM293 0h-95l414 690h94zM204 621q-36 0 -48.5 -24t-12.5 -99t12 -99t49 -24q38 0 50.5 23.5t12.5 99.5q0 75 -12.5 99t-50.5 24zM701 399q96 0 134 -45.5
t38 -159.5q0 -115 -38 -160.5t-134 -45.5q-95 0 -132.5 45.5t-37.5 160.5q0 114 37.5 159.5t132.5 45.5zM1088 399q95 0 133 -45.5t38 -159.5q0 -115 -38 -160.5t-133 -45.5t-133 45.5t-38 160.5q0 114 38 159.5t133 45.5zM701 316q-37 0 -49.5 -23.5t-11.5 -98.5
q-1 -75 11.5 -99t49.5 -24t49.5 24t12.5 99q0 74 -12.5 98t-49.5 24zM1087 316q-36 0 -48.5 -24t-12.5 -98t12.5 -98.5t48.5 -24.5q38 0 50.5 24t12.5 99t-12.5 98.5t-50.5 23.5z" />
    <glyph glyph-name="guilsinglleft" unicode="&#x2039;" horiz-adv-x="311" 
d="M270 415l-105 -164l106 -169l-78 -49l-159 202v32l158 198z" />
    <glyph glyph-name="guilsinglright" unicode="&#x203a;" horiz-adv-x="312" 
d="M278 267v-32l-160 -202l-78 49l107 169l-106 164l77 50z" />
    <glyph glyph-name="fraction" unicode="&#x2044;" horiz-adv-x="160" 
d="M-80 0h-95l414 690h95z" />
    <glyph glyph-name="Euro" unicode="&#x20ac;" horiz-adv-x="639" 
d="M492 368h-452v95h76q19 123 88.5 181t206.5 58q93 0 174 -23l-13 -111q-109 14 -172 5q-50 -5 -79 -31t-42 -79h223zM588 126l12 -110q-82 -28 -189 -28q-138 0 -207.5 60.5t-87.5 187.5h-77v94h435l-9 -94h-188q11 -59 40 -87.5t83 -31.5q88 -9 188 9z" />
    <glyph glyph-name="trademark" unicode="&#x2122;" horiz-adv-x="980" 
d="M396 696v-80h-119v-300h-102v300h-119v80h340zM921 316h-94l-13 303h-10l-56 -216q-7 -31 -40 -31h-63q-32 0 -40 31l-56 216h-10l-12 -303h-94l14 343q2 37 36 37h96q31 0 39 -32l45 -172q2 -9 5 -27.5t5 -27.5h7q1 7 4.5 26.5t6.5 29.5l43 171q6 32 39 32h98
q34 0 37 -37z" />
    <glyph glyph-name="partialdiff" unicode="&#x2202;" horiz-adv-x="589" 
d="M117 600v103q123 3 201.5 -10.5t134 -54t76.5 -113.5t16 -187q-8 -185 -73.5 -267.5t-200.5 -82.5q-69 0 -117.5 22t-73 59.5t-34 79t-6.5 88.5q6 93 59.5 155.5t157.5 61.5q85 0 140 -51q1 78 -21 118.5t-82 59.5t-177 19zM277 107q61 0 84.5 50.5t31.5 160.5
q-51 24 -100 24q-99 0 -106 -108q-8 -127 90 -127z" />
    <glyph glyph-name="emptyset" unicode="&#x2205;" horiz-adv-x="685" 
d="M343 633q121 0 206.5 -85.5t85.5 -206.5t-85.5 -207t-206.5 -86t-207 86t-86 207t86 206.5t207 85.5zM312 241h54q0 35 14.5 64.5t32.5 46.5t32.5 43.5t14.5 56.5q0 93 -117 93q-51 0 -122 -11l3 -45q60 9 119 9q66 0 66 -46q0 -21 -15 -44.5t-33.5 -42.5t-33.5 -52
t-15 -72zM359 171h-39q-7 0 -7 -8v-37q0 -7 7 -7h39q8 0 8 7v37q0 8 -8 8z" />
    <glyph glyph-name="product" unicode="&#x220f;" horiz-adv-x="715" 
d="M683 578h-87v-675h-147v675h-183v-675h-147v675h-87v112h651v-112z" />
    <glyph glyph-name="summation" unicode="&#x2211;" horiz-adv-x="596" 
d="M546 580h-327l142 -246l-156 -360h351v-110h-515v110l156 360l-144 246v110h493v-110z" />
    <glyph glyph-name="minus" unicode="&#x2212;" horiz-adv-x="579" 
d="M519 241h-459v105h459v-105z" />
    <glyph glyph-name="radical" unicode="&#x221a;" horiz-adv-x="578" 
d="M568 876l-224 -868q-3 -8 -13 -8h-174q-11 0 -13 8l-125 485h119l99 -398h13l198 781h120z" />
    <glyph glyph-name="infinity" unicode="&#x221e;" horiz-adv-x="768" 
d="M577 453q62 0 104.5 -37t42.5 -107q0 -73 -46 -113.5t-115 -40.5q-95 0 -178 81q-90 -81 -184 -81q-66 0 -111.5 41t-45.5 113q0 71 43.5 107.5t111.5 36.5q98 0 186 -86q97 86 192 86zM224 250q51 0 101 53q-23 28 -45 41t-59 13q-63 0 -63 -52q0 -55 66 -55zM546 250
q64 0 64 55q0 52 -61 52q-36 0 -58 -14.5t-47 -43.5q43 -49 102 -49z" />
    <glyph glyph-name="integral" unicode="&#x222b;" horiz-adv-x="360" 
d="M138 -56l-47 637q-4 64 29 98.5t92 34.5q83 0 121 -4l-9 -106h-62q-24 0 -33.5 -11t-8.5 -40l49 -642q5 -69 -24 -101t-105 -32q-86 0 -113 4l9 106h59q26 0 35.5 12.5t7.5 43.5z" />
    <glyph glyph-name="approxequal" unicode="&#x2248;" horiz-adv-x="581" 
d="M156 315h-92q-15 77 17.5 115t97.5 34q27 -2 105 -25t106 -25q22 -1 27.5 8t5.5 37h93q15 -74 -14.5 -112t-100.5 -36q-31 1 -108 24.5t-103 25.5q-22 1 -28 -8.5t-6 -37.5zM156 118h-92q-15 78 17.5 116t97.5 34q28 -2 105.5 -25.5t105.5 -25.5q22 -1 27.5 8t5.5 37h93
q15 -73 -14.5 -111t-100.5 -36q-31 1 -108 24.5t-103 25.5q-22 1 -28 -8.5t-6 -38.5z" />
    <glyph glyph-name="notequal" unicode="&#x2260;" horiz-adv-x="615" 
d="M537 456v-105h-459v105h225l48 134l89 -32l-35 -102h132zM78 243h459v-105h-247l-48 -135l-92 31l38 104h-110v105z" />
    <glyph glyph-name="lessequal" unicode="&#x2264;" horiz-adv-x="557" 
d="M490 447l-300 -70l300 -66v-115l-426 124v114l426 128v-115zM493 51h-440v110h440v-110z" />
    <glyph glyph-name="greaterequal" unicode="&#x2265;" horiz-adv-x="557" 
d="M493 434v-114l-426 -124v115l300 66l-300 70v115zM504 51h-440v110h440v-110z" />
    <glyph glyph-name="lozenge" unicode="&#x25ca;" horiz-adv-x="570" 
d="M295 690l248 -334q5 -10 0 -20l-248 -336q-9 -13 -19 0l-249 336q-5 10 0 20l249 334q10 13 19 0zM143 346l143 -202l141 202l-141 200z" />
    <glyph glyph-name="fi" unicode="&#xfb01;" horiz-adv-x="667" 
d="M602 493v-493h-148v394h-201v-394h-148v394h-86v94l86 5v66q0 161 162 161q82 0 132 -10v-98h-80q-37 0 -51.5 -16t-14.5 -56v-47h349zM495 715h65q44 0 44 -43v-54q0 -43 -44 -43h-65q-43 0 -43 43v54q0 43 43 43z" />
    <glyph glyph-name="fl" unicode="&#xfb02;" horiz-adv-x="721" 
d="M699 102l17 -94q-37 -20 -115 -20q-65 0 -102 34t-37 94v498h-145q-37 0 -51 -16.5t-14 -57.5v-47h124v-99h-124v-394h-148v394h-86v94l86 5v66q0 78 38 120t123 41q248 0 344 -18v-549q0 -51 53 -51h37z" />
    <glyph glyph-name="brevecy" horiz-adv-x="393" 
d="M262 701h99q8 -64 -38 -109.5t-126 -45.5t-126.5 46t-38.5 109h99q-4 -82 66 -82q71 0 65 82z" />
    </font>
</defs>
</svg>
